<svg xmlns="http://www.w3.org/2000/svg" viewBox="0 0 750 500"><defs><style>.cls-1{fill:#edca87;}.cls-2{fill:#e2b572;}.cls-3{fill:#6bb7ec;}.cls-4{fill:#7ccbf0;}.cls-5{fill:#f1fcff;}.cls-6{fill:#dcf6fa;}.cls-7{fill:#b77b6a;}.cls-8{fill:#9e5f51;}.cls-9{fill:#db9f95;}.cls-10{fill:#eb9fb1;}.cls-11{fill:#f8d5e1;}.cls-12{fill:#db829b;}.cls-13{fill:#e290ae;}.cls-14{fill:#e7bc79;}.cls-15{fill:#ffde76;}.cls-16{fill:#ffedbb;}.cls-17{fill:#efc243;}.cls-18{fill:#fffad9;}.cls-19{fill:#efd290;}.cls-20{fill:#db3b3b;}.cls-21{fill:#ec5d5d;}.cls-22{fill:#f2a6a6;}.cls-23{fill:#ee7878;}</style></defs><g id="BACKGROUND"><rect class="cls-1" width="750" height="500" transform="translate(750 500) rotate(-180)"/><path class="cls-2" d="M750,228.54s-12.92,6.68-34.21,57.44c-7.73,18.45-11,64.15-56,74.68-38.18,8.94-91-59.75-135.54-28.62S440.89,495.75,282.84,462.63c-115.1-24.12-109.22-97.46-151.52-101.93-48-5.08-82.27,10.59-98.88-38.42-6.35-18.76-13.56-79.39-32.44-80V493.53H750Z" transform="translate(0 0)"/><path class="cls-2" d="M190,374.45c2.15-1.75.16-2.47-1.33-3.89-2.06-1.95-2.52-4.84-4.5-6.67-1.3-1.19-3.25-1.25-5-1.1-1.32.11-2.94.58-3.17,1.89-.18,1,.63,1.94,1.38,2.66C179.68,369.52,185.86,377.87,190,374.45Z" transform="translate(0 0)"/><path class="cls-2" d="M374.66,440.85c1.8.92,4,.45,5.87-.32,3.6-1.49,7.31-4.09,11-2.95a27.87,27.87,0,0,1,3.49,1.67c3.43,1.58,7.53,1.13,11-.41,3.24-1.45,8.85-4.71,10.08-8.35,1.43-4.23-1.88-9.35-6.4-9.38-3.59,0-6.46,2.79-9.5,4.72a21.26,21.26,0,0,1-9.61,3.23c-3,.24-6.12-.17-9.17.06s-6.25,1.29-8.05,3.76S371.94,439.46,374.66,440.85Z" transform="translate(0 0)"/><path class="cls-2" d="M643.72,347.73a36.51,36.51,0,0,0,12.78,2.41,29.39,29.39,0,0,0,11.2-1.36c3.21-1.19,7.51-4.22,8.87-7.55s-.57-7.07-4.44-6.3a13.9,13.9,0,0,0-3.82,1.65c-3.74,2-7.92,3.7-12.14,3.19a38.93,38.93,0,0,1-6.63-1.86,12,12,0,0,0-6.79-.47c-2.2.64-4.14,2.67-4,5C638.88,345,641.35,346.74,643.72,347.73Z" transform="translate(0 0)"/><path class="cls-2" d="M74.73,291c1.53,1.44,3.89,1.34,5.94,1.82a13.44,13.44,0,0,1,7.56,5.45c1.52,2.1,2.41,7.07,4.26,8.59,2.07,1.69,6.9-.58,6.58-3.5a4,4,0,0,0-.86-1.8l-11.35-16.2a7.19,7.19,0,0,0-1.93-2.1,6,6,0,0,0-2.44-.76c-2.53-.33-5.31,0-7.21,1.72S72.88,289.21,74.73,291Z" transform="translate(0 0)"/><path class="cls-2" d="M515.6,199.07c3.65-9.07-8.7-7.66-13.54-4.56-3.27,2.09-6,5.6-5.75,9.47C496.91,212.6,513.53,204.23,515.6,199.07Z" transform="translate(0 0)"/><path class="cls-2" d="M718,202.15c6.89-13.11-13.47-20.8-21.61-12.21C686.81,200,711.3,214.87,718,202.15Z" transform="translate(0 0)"/><path class="cls-2" d="M274.88,338.72c3.22-7.92-9.63-6.46-12.52-2.74C258.42,341,272.17,345.41,274.88,338.72Z" transform="translate(0 0)"/><path class="cls-2" d="M599.16,231.55c-3.94,5,9.81,9.43,12.53,2.74C614.9,226.37,602.06,227.84,599.16,231.55Z" transform="translate(0 0)"/><path class="cls-2" d="M557.34,73.11a2.54,2.54,0,0,0,1.45.31c3.51,0,7-1.16,10.48-.46,2.52.51,4.73,2,7.12,2.89,8.45,3.26,25.41,3.25,28.37-7.53,3.62-13.12-11-6.74-17.63-5.86a21,21,0,0,1-9.75-1c-3.57-1.26-6.88-3.52-10.65-3.76A10.34,10.34,0,0,0,556.53,72,2.45,2.45,0,0,0,557.34,73.11Z" transform="translate(0 0)"/></g><g id="OBJECTS"><path class="cls-3" d="M750,295.08s-16.49-3.35-33.3,16.66c-12.87,15.31-12.4,54.22-57.42,64.76-38.18,8.94-98.18-19.16-142.72,12S401.94,500.7,286.36,479,158.8,393.26,116.5,388.79c-48-5.08-68.33-1.27-84.93-50.28C25.21,319.75,18.88,302.75,0,302.11V500H750Z" transform="translate(0 0)"/><path class="cls-4" d="M102.19,488.57l-7.1,3.67A35.89,35.89,0,0,0,102.19,488.57Z" transform="translate(0 0)"/><path class="cls-4" d="M34.1,375.18c-10.78-5.78-23.27-8-34.1-13.5v9.51c1-.26,1.85-.53,2.58-.65,8.29-1.28,16.73,1.07,24.63,3.38a46.18,46.18,0,0,1,9.3,3.46c4.3,2.35,7.72,6,11.31,9.34,9.85,9.16,22.28,16.57,35.69,16.73,0,.23.08.46.09.7a13.33,13.33,0,0,1-1.47,5.75q-.48,1.1-1,2.19c0-.22-.09-.43-.13-.65-.11.47-.16,1-.23,1.44-1.9,4.08-3.83,8.18-4.4,12.62-.39,3,.06,13.36,3.08,18.37l-63-25.24c-5.42-2.17-10.88-4.34-16.46-6v14.87c18.76,2.06,37.1,6.56,55.26,12.16a3.23,3.23,0,0,1-.44.65,6.53,6.53,0,0,1-2.68,1.63c-2.59,1-5.35,1.43-8,2.23a32.06,32.06,0,0,0-13.5,8.14c-2.53,2.57-4.62,5.56-7.25,8A26.89,26.89,0,0,1,5.93,467.5L0,465.08v3.85c17.59,2.14,34.05,11.12,50.31,18.76Q64.77,494.47,79.78,500H94c-1.46-.2-2.92-.44-4.37-.72s-3-.63-4.56-1a16.07,16.07,0,0,1,4.89-3.4l5.1-2.64c-.58.22-1.15.45-1.74.64a78.7,78.7,0,0,1-16,3.21c-7.17-2.28-14.19-5.14-21.17-8L44.3,483.22a23.81,23.81,0,0,1-8.85-7.66,23,23,0,0,1-2.75-6.73c-.92-3.57-1.29-7.41-.06-10.87a16.43,16.43,0,0,1,5.55-7.25c7.19-5.64,16.81-6.77,25.9-7.69.43,0,.87-.09,1.31-.12,19.69,6.5,39.22,14,58.9,20.92a3.7,3.7,0,0,1-.1,4.53c-1.22,1.53-3.17,2.23-4.94,3.06a18.62,18.62,0,0,0-6.18,4.49c-1.58,1.84-2.65,4.06-4,6.05a26,26,0,0,1-6.85,6.62l9-4.64a2.47,2.47,0,0,1,1.54-.4,2.16,2.16,0,0,1,1.16.87c3,3.61,3.83,9,7.75,11.52a8.21,8.21,0,0,0,2.3,1A48.79,48.79,0,0,1,112.49,500h15.28c2-1.05,4-2.17,6-3.31,9.22-5.42,18.32-11.56,28.74-13.92s21-.79,31.45.76a5.47,5.47,0,0,1,3.51,1.42c1.33,1.57.5,4-.59,5.71A29,29,0,0,1,187,500h8.43a57,57,0,0,1,10.52-10,34,34,0,0,1,10.34-5c19.38,1.48,38.92,1.42,58.38,1.32,45-.24,91-.69,133.77-13.92a100.65,100.65,0,0,1,18.72,3c9.73,2.53,19,6.5,28.26,10.46L487,499.42l1.36.58h7.74c-8.45-3.33-16.42-7.77-24.53-11.87q-9.75-4.94-19.81-9.18c-9.22-3.89-18.72-7.37-28.64-8.65-2.26-.29-4.53-.44-6.8-.54,1.24-.43,2.5-.83,3.74-1.29,31.42-11.69,64.4-20.5,97.88-21.78a86.38,86.38,0,0,1,9.94,3.89,29.24,29.24,0,0,1,7.7,4.81,35.16,35.16,0,0,1,4.46,5.41,199.47,199.47,0,0,1,15.51,24.74,127.14,127.14,0,0,1-9.28,8.7,39.26,39.26,0,0,1-5.35,3.92,33,33,0,0,1-3.78,1.84h6.42c1.54-1.22,3-2.49,4.52-3.79q4.64-4.08,9-8.42c9.7-9.6,18.52-20.28,29.74-28.06A55.54,55.54,0,0,1,606.51,451c6.76.57,13.53,1.14,20.29,1.66,4.18.32,8.37.61,12.55.8l31.74,11c5.15,1.78,10.42,3.63,14.59,7.14a44.37,44.37,0,0,1,6.06,6.7c5.34,6.77,10.81,13.87,14,21.77h5.14A54.42,54.42,0,0,0,702,485.23,86.4,86.4,0,0,0,683.38,469c-4.89-3.27-10.37-6.65-12.27-12.22a5.5,5.5,0,0,1-.22-3.53,3.66,3.66,0,0,1,1-1.49c12-1.56,23.88-3.22,35.68-1.18,14.66,2.52,28.14,10.6,42.45,13.92V456.1c-15.36-6-31.81-9.29-48.29-10.74-20.7-1.82-41.53-.91-62.28.17-1.95.1-4,.19-5.74-.69s-3-3.08-2.13-4.83c.7-1.43,2.4-2,3.93-2.41,35.06-9.68,70.43-19.4,106.74-21.55,2.58-.16,5.18-.28,7.77-.5V407.7A247.24,247.24,0,0,0,673.44,417a109.44,109.44,0,0,1-54.7-14.67,333.25,333.25,0,0,0,35.89,1.42c5.09-.07,10.19-.26,15.27-.68,27.5-2.24,54-11,80.1-20v-5.6A233.69,233.69,0,0,1,643.44,400c-7.75-.21-15.47-.82-23.2-1.42l-30.65-2.39c-20.75-1.62-41.79-3.3-61.4-10.26-1.62-.57-3.25-1.17-4.9-1.63a75.8,75.8,0,0,0-6.73,4.15c-1,.68-2,1.39-2.95,2.11l27,3.85c8.11,1.16,16.23,2.32,24.4,2.8,7.22.42,14.48.32,21.67,1.07,26.71,2.8,51.51,17.3,77.68,21.44-18.38,6-36.15,14-55,18.27-20.4,4.66-41.29,4.89-62.29,4.4a12.6,12.6,0,0,1-3.58-1.86c-3.09-2.34-4.74-6.05-6.53-9.48a83.23,83.23,0,0,0-32.28-33.69c-1.86,1.46-3.75,3-5.69,4.53a33.63,33.63,0,0,0,2.94,2.25c4.7,3.16,10.16,5.06,14.77,8.34a29.82,29.82,0,0,1,9,10.25c2,3.8,3.2,8,5,11.9a23.55,23.55,0,0,0,5,7.45c-21.78-.64-43.6-1.32-65,2.11-15.56,2.49-30.69,7.11-45.9,11.22L421.94,457l-.73.39c-.84.45-1.68.89-2.53,1.32l-1.07.56-2.35,1.19-1.3.64c-.74.37-1.5.73-2.25,1.09l-1.45.7-2.2,1-1.55.71c-.72.33-1.45.65-2.18,1l-1.63.71c-.71.31-1.44.61-2.16.91l-1.7.7-2.15.86-1.76.69-2.15.8-1.83.68-2.14.75-1.88.65-2.15.71-1.93.62-2.16.67-2,.59-2.17.61-2,.56-2.18.57-2.08.52-2.18.52-2.12.48-2.21.47-2.17.44-2.2.42q-1.11.21-2.22.39l-2.23.38-2.25.34-2.25.32-2.29.29c-.76.1-1.51.19-2.27.27l-2.34.25-2.28.21-2.39.19-2.29.16-2.43.13c-.77,0-1.54.08-2.31.1s-1.66.05-2.49.07l-2.31.05h-4.87l-2.6-.05-2.32-.07c-.89,0-1.79-.08-2.69-.13l-2.3-.12c-.92-.05-1.85-.13-2.77-.2l-2.28-.18c-1-.08-1.93-.18-2.89-.28-.74-.08-1.48-.14-2.23-.23-1-.11-2.05-.25-3.08-.38l-2.1-.26c-1.15-.16-2.32-.35-3.49-.53-.58-.09-1.16-.16-1.75-.26-1.75-.29-3.52-.59-5.3-.93h0c-1.95-.37-3.86-.75-5.75-1.14l-.2,0q-2.76-.57-5.45-1.18h0a615.67,615.67,0,0,1-94.79-5.54c-12.41-1.7-24.68-3.46-36.76-5.9a2.21,2.21,0,0,0-1.1-1c-4.5-2.41-9.87-2.37-14.82-3.6-8.19-2-15-7.5-21.59-12.82-5.72-4.63-11.47-9.3-16.11-15C85,426.85,83,421,81.53,414a41.83,41.83,0,0,1,9.57-16.94,18.25,18.25,0,0,1-12.57.52,6.64,6.64,0,0,1,2.38,1.32,57.66,57.66,0,0,1-10.78-1.8C56.56,393.22,46.55,381.85,34.1,375.18ZM29.26,477.06l-17.54-7.18a7.58,7.58,0,0,0,1.69-.35,16.41,16.41,0,0,0,4.47-2.94,30.37,30.37,0,0,1,6.42-3.87c.87-.39,2-.68,2.66,0a2.63,2.63,0,0,1,.4,1.88,14.66,14.66,0,0,0,1.61,7,9.13,9.13,0,0,1,1.28,3.09A2.49,2.49,0,0,1,29.26,477.06ZM544.9,451a7.14,7.14,0,0,1,2.68-4.15l.1-.06c10.19.38,20.37,1,30.55,1.79a5,5,0,0,1,1.72,2c.88,1.91.26,4.17-.68,6.05a39,39,0,0,1-4.71,6.79c-4.32,5.37-8.66,10.76-13.23,15.92a8.25,8.25,0,0,1-6.44-1.56c-2.58-2-4.09-5-5.39-7.95q-1.72-3.9-3.16-7.91C545.08,458.44,544,454.64,544.9,451Zm-22.69-4.48c3.32-.06,6.64-.07,9.95-.05a75.21,75.21,0,0,1-11,.09ZM137.58,468.34q10.08,3.32,20.24,6.2l-.52.35L141,486.58a122.11,122.11,0,0,1-11.87,7.82,10.33,10.33,0,0,1-7-2.72,12.21,12.21,0,0,1-2.41-3.68,23,23,0,0,1-2-8.41,7.73,7.73,0,0,1,.45-3.38,7.81,7.81,0,0,1,3.39-3.34C126.39,470,132,469,137.58,468.34ZM98.39,445.89c6.13,5.36,13.23,9.46,20.51,13.14q-7-2.16-13.82-4.89l-19.79-7.93c-2.93-8.75-6.26-15.91-5.11-25.55.12-1,.29-2,.48-3C81.68,428.53,91,439.4,98.39,445.89Z" transform="translate(0 0)"/><path class="cls-5" d="M3.6,329.47a6,6,0,0,1,3.69,2,6.18,6.18,0,0,0,1.79,1.81c.78.36,2-.12,1.87-1-.08-.61-.75-.93-1.29-1.24a5.41,5.41,0,0,1-2.55-3.57.77.77,0,0,1,0-.54.7.7,0,0,1,.45-.25c3.61-1,7.43.45,10.62,2.39a26.83,26.83,0,0,1,4.42,3.46c3.62,5.92,6.29,13.31,8.12,21.54-1.82-.54-2.07-2.79-4.69-7.88-2.93-5.69-5.09-4.31-3-2.22s2.81,4.79,5.14,12.34,9.18,10.81,13.69,18.49c3,5,4.55,18.64,8.36,22.27a65.61,65.61,0,0,0,6,5.59,53.72,53.72,0,0,0,8.87,4.94C76.32,413,87.59,418.36,99,423.47c2.5,1.12,5.11,2.25,7.85,2.16a1.53,1.53,0,0,0,1-.29c.8-.72-.28-1.94-1.26-2.39-3.69-1.7-7.68-2.62-11.56-3.85a76.35,76.35,0,0,1-17.46-8c-1.32-.83-2.7-1.8-3.19-3.27-.75-2.23,1-4.69,3.15-5.57s4.64-.61,7-.26c13,2,26.46,6.1,35.38,15.79,1,1.05,2.18,2.27,3.57,2,1.57-.33,2.11-2.45,1.47-3.91s-2-2.44-3.24-3.47a12.23,12.23,0,0,1-3.65-4.67,6.25,6.25,0,0,1,.41-5.74c2-2.89,6.16-2.89,9.6-2.36.92.14,2.43.75,3.78,1.14a58.34,58.34,0,0,1,9.46,6.1,14.27,14.27,0,0,1-1,9.15,12.9,12.9,0,0,0-1.42,3.43c-.5,3.26,2.55,5.85,5.25,7.73s5.72,4.53,5.13,7.77a5.78,5.78,0,0,1-4.5,4.22,14,14,0,0,1-6.46-.38,53.35,53.35,0,0,1-20.87-10.2c-1.92,1.7.09,4.77,2.09,6.36,17.27,13.67,39.26,19.43,60.12,26.5,6.77,2.3,13.48,4.76,20.17,7.26,11.74,4.39,23.44,8.9,35.34,12.83,6,2,12,3.79,18.07,5.36,1.87.49,7.91,2.59,12.24,3.18,6.58,1.77,13.55,3.37,21,4.77,34.32,6.44,64.62,3.44,91.41-4.78,7.08-.92,14.17-1.81,21.21-3A156.23,156.23,0,0,0,421.23,482c14.34-4.58,27.55-12.07,40.59-19.59,6.55-3.78,13.32-7.79,17.53-14.08,5-7.47,5.76-17.21,8.57-25.69,4.41-3.69,8.64-7.24,12.68-10.54.07-.05,7.2-5.69,10.69-3s-.16,6.54-4.31,9.42-1.75,10.21-1.75,10.21-.32-6.86,7-10.37,16.92-8.62,31.29-12.61,22.83-7.35,30.33-3.84,9.42,8.68,11.5,6.1-5.59-.83-8-8.17c-2-6-2.73-10.89,1.49-13.13,14.08,1.09,28.11,3.6,41.34,5.36h0c1.22.17,16.16,4.09,10.65,6s-12.09,1.2-20,1.2-14.49,3.23-17,4.31-1,3.35-1,3.35c2.87,1.8,10.74-5.27,22.51-5.27,23.95,0,31.13,7.43,54.6,4.67S685.5,392,694.6,384.88s7.19-11.49,8.74-14.13,4.31-5.26,1.68-5.14-1.92,2.51-4.43,3.71-3.61-4.49-3.61-4.49h0c1.2-2,2.29-4.06,3.3-6.12,1,.4,1.83,1.84,2.83,2.46,1.56.95,3.12-3.12,5-7.19s6.87-7.06,7.11-4.31-7.79,12.93-7.07,14.25,3.11-3.95,5.63-8.14S723.94,343,733,338.31a18.4,18.4,0,0,1,17,0V321.86l-1.21-.2-4.6-.61a5.48,5.48,0,0,0-1.76-.05,8.53,8.53,0,0,0-1.74.66,8.07,8.07,0,0,1-6.07,0,1.62,1.62,0,0,1-.64-.4,1.36,1.36,0,0,1-.26-.83,4.08,4.08,0,0,1,2.13-3.32c1.17-.74,2.51-1.14,3.71-1.8,1.61-.88,3-2.23,4.79-2.64a6.55,6.55,0,0,1,3.85.4,8.46,8.46,0,0,1,1.8,1v-19s-16.49-3.35-33.3,16.66c-12.87,15.31-12.4,54.22-57.42,64.76-38.18,8.94-98.18-19.16-142.72,12S401.94,500.7,286.36,479,158.8,393.26,116.5,388.79c-48-5.08-68.33-1.27-84.93-50.28C25.21,319.75,18.88,302.75,0,302.11V329.7A13.23,13.23,0,0,1,3.6,329.47Zm716.26,4.75c.95-.85,2.19-1.34,3.11-2.22,1.15-1.1,1.7-2.71,2.83-3.83a10.11,10.11,0,0,1,4.26-2.11,4.68,4.68,0,0,1,2.3-.32,4.88,4.88,0,0,1,1.59.77,16.47,16.47,0,0,1,2.57,1.68c.8.79.72.7-.07,1.22-1.41.94-4.24,1.12-5.89,1.56a6,6,0,0,0-2,.8,7.17,7.17,0,0,0-1.56,1.9,14.82,14.82,0,0,1-3.72,3.73,5,5,0,0,1-2.12,1,2.24,2.24,0,0,1-2.11-.75C718.31,336.58,718.92,335.07,719.86,334.22Zm-42.14,53.06c.39-1.52,2.77-3.9,4.83-5.74,1.08-.84,2.11-1.71,3.1-2.61l.07-.05h0a54.21,54.21,0,0,0,4.55-4.69,33.33,33.33,0,0,1,7.11-2.85c3.11-.6,1.67,7.07-4.19,10.66s-9.46,5.75-11.38,8S677,390,677.72,387.28Zm-149.8,6.13a80.79,80.79,0,0,1,21.59-6.15c2.84.08,5.66,1.12,6.64,4.57,2.24,7.82-21.39,15-25.54,11.49S527.83,393.82,527.92,393.41ZM465.55,440.8a9,9,0,0,1,3.81-3.08c1.63-.8,3.45-1.45,4.55-2.89a12.07,12.07,0,0,0,1.57-3.91,5.28,5.28,0,0,1,2.38-3.36,1.45,1.45,0,0,1,.73-.17c.77.06,1.14,1,1.27,1.73a14.33,14.33,0,0,1-2.51,10.09c-1.61,2.38-8.67,10.42-11.84,6.26A4.22,4.22,0,0,1,465.55,440.8Zm-40.71,22.08c5.11-4.52,11.93-5.89,17.71-9.31,3.64-2.15,7.94-7.54,9.75-1,1.25,4.5-1.39,6.48-4.64,8.81-7.68,5.53-16.57,10.05-26,9.59C420.68,468,422.61,464.85,424.84,462.88ZM202.48,459.6a5.3,5.3,0,0,1,2.93-.06,28,28,0,0,1,7.86,3A4.67,4.67,0,0,1,215,464c1.12,1.75-.49,2-1.79,1.92q-2.58-.18-5.16-.54a15.45,15.45,0,0,1-5.48-1.53,2.91,2.91,0,0,1-1.65-1.95A2.29,2.29,0,0,1,202.48,459.6Zm-41.59-14.7a6,6,0,0,1,2-.67,6.54,6.54,0,0,1,2.52-.2,7.64,7.64,0,0,1,1.72.66,7.92,7.92,0,0,0,5,.93c1-.24,1.95-.82,3-1.13a10.63,10.63,0,0,1,3.08-.34,6.33,6.33,0,0,1,2.77.43,5.37,5.37,0,0,1,2.28,2.74,3.49,3.49,0,0,1,.42,1.85c-.19,1.6-1.69,1.46-2.87,1.43-1.63,0-3.26,0-4.89.07a31.45,31.45,0,0,1-9.63-.74c-1.15-.33-2.27-.78-3.42-1.11a8.09,8.09,0,0,1-1.84-.66,2,2,0,0,1-1.09-1.54A2,2,0,0,1,160.89,444.9Zm-13-25.33a1.87,1.87,0,0,1,.89-.72,3.82,3.82,0,0,1,4.19.81c.81.83,1.67,3,.88,4.09s-3.69.42-4.75.07a1.54,1.54,0,0,1-.51-.26,1.39,1.39,0,0,1-.28-.43,6.5,6.5,0,0,1-.62-2.25A2.18,2.18,0,0,1,147.84,419.57Zm-57.73-28a7.43,7.43,0,0,1,2.83-1.17,13.57,13.57,0,0,1,8.36.87A12.55,12.55,0,0,1,107,396c1.59,2.81-3.27,2.69-4.77,1.83a15.22,15.22,0,0,1-2.16-2,4.83,4.83,0,0,0-2.89-1.18,1.57,1.57,0,0,0-.72.08,3,3,0,0,0-.59.42,5.06,5.06,0,0,1-2.85.69,6.76,6.76,0,0,1-2.46-.21,2.33,2.33,0,0,1-1.65-1.69A2.65,2.65,0,0,1,90.11,391.53Zm-33.49-.9a3.64,3.64,0,0,1,1.64-.24c2.76.11,5.18,1.69,7.24,3.4.8.67,2.07,1.53,2,2.73-.1,1.37-1.57,1.35-2.62,1.41a17.88,17.88,0,0,1-5.46-.35,6,6,0,0,1-3.95-2.71C54.7,393.42,55.11,391.3,56.62,390.63Z" transform="translate(0 0)"/><path class="cls-5" d="M50.81,403.33a1.74,1.74,0,0,0-1.17.13c-1.65,1-.44,3.07-.16,3.37a2.85,2.85,0,0,0,4.26.33,1.75,1.75,0,0,0,0-2.59A8.46,8.46,0,0,0,50.81,403.33Z" transform="translate(0 0)"/><path class="cls-5" d="M161.11,464.05c-.65-1.74-.64-3-2.12-4.23-3.13-2.61-7.16-3.79-10.75-5.6-2.31-1.16-4.48-2.59-6.81-3.71a56.54,56.54,0,0,0-7.94-2.88c-4.58-1.42-9.33-2.85-14.1-2.33-1.3.14-2.88.73-3,2a2.09,2.09,0,0,0,1,1.84,5.6,5.6,0,0,0,2.05.74,34.1,34.1,0,0,0,5,.65c2,.11,4,0,6,.33a29.4,29.4,0,0,1,5.51,1.51c5.24,1.84,10.7,4.17,13.83,8.75,1.42,2.07,2.27,4.48,3.55,6.63,1.87,3.13,4.83,5.77,8.41,6.42a4.79,4.79,0,0,0,2.55-.12,2.37,2.37,0,0,0,1.58-1.88c.12-1.17-.83-2.14-1.62-3A16.24,16.24,0,0,1,161.11,464.05Z" transform="translate(0 0)"/><path class="cls-5" d="M186.65,470.33a13.65,13.65,0,0,0-2.91-1.23,1.58,1.58,0,0,0-1.17.12,1.14,1.14,0,0,0-.42,1.07,2,2,0,0,0,.56,1c1.23,1.35,3.73,2.83,5.07,1.6C188.51,472.28,187.39,471,186.65,470.33Z" transform="translate(0 0)"/><path class="cls-5" d="M502.24,435.55a8.46,8.46,0,0,1-5.51,3.51c-.94.19-1.91.24-2.84.48a3.93,3.93,0,0,0-2.37,1.54,2.06,2.06,0,0,0,.26,2.62,2.38,2.38,0,0,0,1.17.48,4.78,4.78,0,0,0,4.12-1.36c.81-.84,1.29-2,2.13-2.78a10.28,10.28,0,0,1,2.29-1.5,6.31,6.31,0,0,0,2.13-1.69c.37-.53.89-1.86.17-2.35S502.57,435.05,502.24,435.55Z" transform="translate(0 0)"/><path class="cls-5" d="M35.4,390.29a13.4,13.4,0,0,1-4.07-6.43c-.54-1.9-.67-3.94-1.57-5.7a3.76,3.76,0,0,0-2.06-2,1.92,1.92,0,0,0-2.38,1.08,2.29,2.29,0,0,0,.61,2.06c.47.58,1.08,1.05,1.5,1.67,1.08,1.55.8,3.62,1,5.5a10.29,10.29,0,0,0,5.38,7.86,2.87,2.87,0,0,0,2.59.29,3.17,3.17,0,0,0,1.28-3C37.41,390.87,36,390.83,35.4,390.29Z" transform="translate(0 0)"/><path class="cls-5" d="M15.25,346.34a15,15,0,0,0-8.69-4.71c-1-.12-2.33.28-2.18,1.24a1.65,1.65,0,0,0,.59.88c2.84,2.69,6.46,4.58,8.8,7.72,2.75,3.7,3.35,8.67,6.11,12.37,1.41,1.89,4.06,2.64,4.48-.22.39-2.6-2.36-6.74-3.51-8.95A34.67,34.67,0,0,0,15.25,346.34Z" transform="translate(0 0)"/><path class="cls-5" d="M134,413.22c.73-.66-.39-2-1.13-2.61a14.06,14.06,0,0,0-2.91-1.24,1.58,1.58,0,0,0-1.17.13,1.14,1.14,0,0,0-.42,1.07,2,2,0,0,0,.56,1.05C130.18,413,132.68,414.45,134,413.22Z" transform="translate(0 0)"/><path class="cls-5" d="M700.15,384.64c.48,2.24,3.35-2.87,3.35-2.87C704.7,378.58,699.67,382.41,700.15,384.64Z" transform="translate(0 0)"/><path class="cls-5" d="M740.49,347.89a22.44,22.44,0,0,0-4.93.8c-2,.39-3.92.81-5.86,1.34a20.37,20.37,0,0,0-6.21,2.6,8.93,8.93,0,0,0-3.87,5.34,34.62,34.62,0,0,1-.63,4.08c-.71,2.07-2.65,3.41-4.46,4.64a4.73,4.73,0,0,0-1.55,1.43,1.71,1.71,0,0,0,.07,2c.63.67,1.75.44,2.57,0a11.19,11.19,0,0,0,4.58-5.25c1-2.12,1.74-4.4,2.77-6.53a9.62,9.62,0,0,1,2.64-3.53,10.89,10.89,0,0,1,2.92-1.44,9.68,9.68,0,0,1,3.42-.71c1.75,0,3.39.88,5.12,1.13a5.72,5.72,0,0,0,3.53-.54C742.74,352.06,743.79,348,740.49,347.89Z" transform="translate(0 0)"/><path class="cls-5" d="M690.89,402.36c-.74,1.79-.24,3.6-5.75,5.19s-9.73,2.32-6.94,4.79,6.86,3.51,11.17-.8S693.15,396.86,690.89,402.36Z" transform="translate(0 0)"/><path class="cls-5" d="M594.4,411A1.27,1.27,0,0,0,594,411c-1-.06-2.06-.33-3.11-.33a2.42,2.42,0,0,0-1.19.24,1,1,0,0,0-.58,1,1,1,0,0,0,.82.8,2.22,2.22,0,0,0,1.19-.14c.38-.14.74-.32,1.14-.43a9.58,9.58,0,0,1,2.34-.11c.07,0,.16,0,.21-.07a.31.31,0,0,0,0-.12A.73.73,0,0,0,594.4,411Z" transform="translate(0 0)"/><path class="cls-5" d="M494.16,428.38a1.8,1.8,0,0,0,0-2.05.77.77,0,0,0-.48-.47.68.68,0,0,0-.37,0,2.64,2.64,0,0,0-1.49,1.12C490.75,428.91,492.9,429.67,494.16,428.38Z" transform="translate(0 0)"/><path class="cls-5" d="M560.58,403.91a8.2,8.2,0,0,0-2.38,1.2c-2.63,1.73-5.26,3.73-8.38,4.1-1.49.18-3,0-4.48.41a1.57,1.57,0,0,0-1.1.84,1.25,1.25,0,0,0,.57,1.37,3.57,3.57,0,0,0,1.51.44,7.12,7.12,0,0,0,2.11,0,8.24,8.24,0,0,0,1.81-.62l7.3-3.19a12.78,12.78,0,0,1,1.65-.64,8.73,8.73,0,0,1,5,.3,5.18,5.18,0,0,0,2.06.43c.71-.07,1.42-.64,1.36-1.34a2,2,0,0,0-.24-.67C566.24,404.31,563,403.28,560.58,403.91Z" transform="translate(0 0)"/><path class="cls-6" d="M137.68,396.73c.18.17.33.32.44.44q2.74,3,5.57,6,3.17,3.33,6.43,6.55c2.1,2.08,4.24,4.13,6.25,6.3,2.31,2.5,4.46,5.15,6.82,7.61,7.27,7.54,16.43,13,25.7,17.85a27,27,0,0,0,7.18,2.89l.34.05C169.33,426.5,154.09,407.31,137.68,396.73Z" transform="translate(0 0)"/><path class="cls-6" d="M32.44,341a38.79,38.79,0,0,0,.47,4.93,58.12,58.12,0,0,0,2.38,8.56c.78,2.32,1.56,4.64,2.56,6.88A38.23,38.23,0,0,0,74.93,384C55.15,379.91,43,370.68,32.44,341Z" transform="translate(0 0)"/><path class="cls-6" d="M516.56,388.47c-1.82,1.28-3.7,2.65-5.61,4.08,2.05-.55,6.44-3.23,7.56-3.68a129.9,129.9,0,0,1,39.2-8.71c18.6-1.41,37.29.24,55.84,2.22,13.51,1.45,27.22,3.07,40.63.88s26.76-8.79,33.85-20.38a13.67,13.67,0,0,0,1.14-2.22c-6.91,6.91-16.33,12.67-29.89,15.84C621.1,385.44,561.1,357.34,516.56,388.47Z" transform="translate(0 0)"/><path class="cls-6" d="M315.65,482.42l2.56.32a160.21,160.21,0,0,0,87-13.85,89.21,89.21,0,0,0,15.17-8.73,61.28,61.28,0,0,0,7.29-6.36C396.77,471.37,359.89,484.42,315.65,482.42Z" transform="translate(0 0)"/><path class="cls-6" d="M0,302.11v5.77a32.75,32.75,0,0,1,7.45,2,47.31,47.31,0,0,1,18,12.44C20.19,310.92,13.13,302.55,0,302.11Z" transform="translate(0 0)"/><path class="cls-2" d="M550.64,270.13c-.84-1.5-2.5-2.3-3.86-3.35-1.94-1.5-3.37-3.65-5.52-4.84a11.19,11.19,0,0,0-5.11-1.19c-6.53-.19-12.75,2.62-18.66,5.42-3.61,1.72-8.09,3.27-11.27,5.71-1.68,1.29-2.27,4-2,6.49h0a11.27,11.27,0,0,0,.23,1.21c0,.11.07.21.1.32a7.22,7.22,0,0,0,.29.82,4.91,4.91,0,0,0,.56,1,0,0,0,0,0,0,0,8.48,8.48,0,0,0,4,2.57,46.24,46.24,0,0,0,17.69,3c1.1,0,2.21-.11,3.31-.23a30.68,30.68,0,0,0,4.86-.94,24.29,24.29,0,0,0,3.1-1.1c.5-.22,1-.46,1.48-.72s1.21-.67,1.79-1a49,49,0,0,0,4.93-3.8,20.16,20.16,0,0,0,3-2.89,9.9,9.9,0,0,0,.77-1.14h0A5.48,5.48,0,0,0,550.64,270.13Z" transform="translate(0 0)"/><path class="cls-7" d="M517,259.6c5.91-2.8,12.12-5.61,18.66-5.42a11.18,11.18,0,0,1,5.1,1.19c2.15,1.19,3.58,3.34,5.52,4.84,1.36,1.05,3,1.85,3.87,3.34a5.5,5.5,0,0,1-.3,5.27,15.65,15.65,0,0,1-3.72,4,38.5,38.5,0,0,1-6.72,4.85,28.81,28.81,0,0,1-12.74,3,46.26,46.26,0,0,1-17.7-3,8.53,8.53,0,0,1-4-2.57c-1.85-2.51-1.78-7.88.78-9.85C508.92,262.87,513.41,261.31,517,259.6Z" transform="translate(0 0)"/><path class="cls-8" d="M549.35,267.89c-2,.92-4.17,1.56-6,2.83-1.29.9-2.36,2.09-3.7,2.9a9,9,0,0,1-4.88,1.23c-2.95-.06-5.85-1.36-8.76-.89-2.07.34-3.9,1.54-5.92,2.1-2.65.73-5.47.33-8.2-.09a12.18,12.18,0,0,1-3.48-.87,10,10,0,0,1-3.29-2.72c-.51-.6-1-1.23-1.44-1.89a8,8,0,0,0,1.26,4.67,8.53,8.53,0,0,0,4,2.57,46.26,46.26,0,0,0,17.7,3,28.81,28.81,0,0,0,12.74-3,38.5,38.5,0,0,0,6.72-4.85,15.65,15.65,0,0,0,3.72-4,6.64,6.64,0,0,0,.61-1.51C550.11,267.52,549.73,267.72,549.35,267.89Z" transform="translate(0 0)"/><path class="cls-9" d="M537.68,257a26.69,26.69,0,0,0-5.13.24c-1.67.21-4.08.59-5.23,2s.28,2.62,1.85,2.11,3.19-1.2,4.69-.62c.28.11.55.26.83.35a4.13,4.13,0,0,0,2.12-.11,2.74,2.74,0,0,0,1.44-.66,1.8,1.8,0,0,0,.3-1.71A5.14,5.14,0,0,0,537.68,257Z" transform="translate(0 0)"/><path class="cls-9" d="M515.74,265.67a.84.84,0,0,0-.5-.24l-2.36-.54a3.77,3.77,0,0,0-1.05-.12,3.44,3.44,0,0,0-1.08.36c-.78.36-2.54,1.17-2.43,2.28.17,1.62,2,.08,2.58-.18a2.6,2.6,0,0,1,2.21.26,6.65,6.65,0,0,0,1.24.58,1.35,1.35,0,0,0,1.29-.25,1.94,1.94,0,0,0,.26-1.72A.94.94,0,0,0,515.74,265.67Z" transform="translate(0 0)"/><path class="cls-9" d="M544.73,263.17a1.75,1.75,0,0,0-.92-.46,5.48,5.48,0,0,0-1.5-.25,1.89,1.89,0,0,0-1.38.55c-.24.26-1,.9-1,1.26-.06.67,1,.78,1.42.81l2.55.2a1.3,1.3,0,0,0,.59,0,1.12,1.12,0,0,0,.52-.91A1.49,1.49,0,0,0,544.73,263.17Z" transform="translate(0 0)"/><path class="cls-2" d="M671.66,164.57c-1.56-.67-3.49-1.26-5.51-.11-1.23.71-2.8,3-4.07,4.14a9.23,9.23,0,0,0-1.8,3.66h0c-.07.25-.13.49-.19.73l0,.19c0,.18-.08.35-.1.51a5.42,5.42,0,0,0-.07.64,3.37,3.37,0,0,0,.46,1.86,6.15,6.15,0,0,0,3.72,3.24,4.86,4.86,0,0,0,.85.14,4.24,4.24,0,0,0,1.87-.3,5.11,5.11,0,0,0,1-.53,5.61,5.61,0,0,0,.65-.47,23.39,23.39,0,0,0,2-1.82,13.78,13.78,0,0,0,1.37-1.58c.12-.16.25-.3.36-.48h0c.14-.23.28-.49.41-.76a.43.43,0,0,1,0-.07h0a8,8,0,0,0,.7-2.25,11.89,11.89,0,0,0-.63-5.62A1.71,1.71,0,0,0,671.66,164.57Z" transform="translate(0 0)"/><path class="cls-7" d="M665.67,160.31c2-1.15,4-.56,5.51.11a1.73,1.73,0,0,1,1,1.13,12.06,12.06,0,0,1,.62,5.62,8,8,0,0,1-1.15,3.08,11.79,11.79,0,0,1-1.72,2.06,18.37,18.37,0,0,1-2.63,2.29,4.49,4.49,0,0,1-3.73.69,6.15,6.15,0,0,1-3.72-3.24,3.37,3.37,0,0,1-.46-1.86c.06-1.63,1.17-4.79,2.2-5.74C662.88,163.28,664.44,161,665.67,160.31Z" transform="translate(0 0)"/><path class="cls-8" d="M671.73,169.66a9.68,9.68,0,0,0-2,1.16c-.5.42-1,1-1.49,1.4a1.49,1.49,0,0,1-1.45.31c-.7-.29-1.15-1.29-2-1.26-.57,0-1.26.57-1.87.73a2.25,2.25,0,0,1-2-.74,2,2,0,0,1-.67-.81,5.63,5.63,0,0,1-.25-1.88c0-.4,0-.81,0-1.23a10.55,10.55,0,0,0-.65,2.85,3.37,3.37,0,0,0,.46,1.86,6.15,6.15,0,0,0,3.72,3.24,4.49,4.49,0,0,0,3.73-.69,18.37,18.37,0,0,0,2.63-2.29,11.79,11.79,0,0,0,1.72-2.06,8.32,8.32,0,0,0,.46-.84Z" transform="translate(0 0)"/><path class="cls-9" d="M671.86,163.51v0c.34-1.58-.35-3-1.48-3.16a11.89,11.89,0,0,0-1.59-.15,4.7,4.7,0,0,0-4.34,1.88c-1.53,2-1.19,4,.06,3.6s2.63-1.13,3.28.07a6.67,6.67,0,0,0,.34.71c.32.47.86.39,1.39.29a1.82,1.82,0,0,0,1.24-.68A6.35,6.35,0,0,0,671.86,163.51Z" transform="translate(0 0)"/><path class="cls-9" d="M662.87,167.15a.27.27,0,0,0-.07-.18l-.47-.51a.39.39,0,0,0-.23-.16.71.71,0,0,0-.34.11,2,2,0,0,0-1,1.15c-.29,1,.47.21.66.11s.39.07.49.33a1.69,1.69,0,0,0,.18.45c.09.11.22.13.37,0a2.57,2.57,0,0,0,.41-1A.91.91,0,0,0,662.87,167.15Z" transform="translate(0 0)"/><path class="cls-9" d="M671.77,167.9a.52.52,0,0,0-.13-.35.68.68,0,0,0-.32-.27c-.12,0-.29,0-.45.21a3.13,3.13,0,0,0-.51.65.43.43,0,0,0,.18.6l.58.33s.1.06.16,0a1.19,1.19,0,0,0,.31-.5A2.19,2.19,0,0,0,671.77,167.9Z" transform="translate(0 0)"/><path class="cls-2" d="M722.82,49.6a2.42,2.42,0,0,0-.63-1.18A6.45,6.45,0,0,0,718.76,47a2.32,2.32,0,0,0-1.36.22,9.25,9.25,0,0,0-4.27,3.19c-.57.94-.58,2.58-.94,3.71a2.76,2.76,0,0,0,.35,1.84h0c.06.11.13.21.19.31a4.28,4.28,0,0,0,.26.42,2.69,2.69,0,0,0,.56.56,2.24,2.24,0,0,0,1.33.33,9.44,9.44,0,0,0,1.2-.07,9.25,9.25,0,0,0,2.29-.56,11.33,11.33,0,0,0,1.06-.5A6.06,6.06,0,0,0,721.89,54a11,11,0,0,0,.81-2.28,5.35,5.35,0,0,0,.24-1.67,3.29,3.29,0,0,0-.1-.53A.17.17,0,0,1,722.82,49.6Z" transform="translate(0 0)"/><path class="cls-7" d="M712.84,48.18A9.21,9.21,0,0,1,717.11,45a2.29,2.29,0,0,1,1.37-.22,6.32,6.32,0,0,1,3.43,1.44,2.57,2.57,0,0,1,.74,1.66,5.12,5.12,0,0,1-.24,1.67,10.88,10.88,0,0,1-.8,2.27,6,6,0,0,1-2.49,2.4,9.39,9.39,0,0,1-4.55,1.13,2.23,2.23,0,0,1-1.32-.33,3.56,3.56,0,0,1-1.34-3.13C712.27,50.77,712.27,49.13,712.84,48.18Z" transform="translate(0 0)"/><path class="cls-8" d="M722.39,47.65a8.78,8.78,0,0,0-.95,1.56c-.16.43-.22.92-.41,1.33a2,2,0,0,1-.94.94c-.69.32-1.56.26-2.16.74a12.74,12.74,0,0,0-1,1.33,3.93,3.93,0,0,1-1.91.92,2.68,2.68,0,0,1-.94.13,2.8,2.8,0,0,1-1.18-.46c-.21-.12-.42-.27-.62-.41a3.39,3.39,0,0,0,1,1.29,2.23,2.23,0,0,0,1.32.33,9.39,9.39,0,0,0,4.55-1.13,6,6,0,0,0,2.49-2.4,10.88,10.88,0,0,0,.8-2.27,5.12,5.12,0,0,0,.24-1.67,2.54,2.54,0,0,0-.09-.54A3.07,3.07,0,0,1,722.39,47.65Z" transform="translate(0 0)"/><path class="cls-9" d="M719.26,45.6v0a2.22,2.22,0,0,0-2.79-.15c-.44.28-.87.57-1.3.88-.91.66-2.19,1.68-2.32,3.14s1.2,2,1.94,1.12,1.41-1.9,2.54-1.89a4.5,4.5,0,0,0,.63,0,2,2,0,0,0,1.22-.72,1.63,1.63,0,0,0,.59-.94A2,2,0,0,0,719.26,45.6Z" transform="translate(0 0)"/><path class="cls-9" d="M714.3,52a.2.2,0,0,0-.15,0l-.63.11a.57.57,0,0,0-.26.08,1,1,0,0,0-.2.24c-.12.2-.4.65-.21,1,.29.48.48-.2.57-.35a.53.53,0,0,1,.55-.18,1.69,1.69,0,0,0,.38,0,.3.3,0,0,0,.26-.23.85.85,0,0,0-.21-.56A.36.36,0,0,0,714.3,52Z" transform="translate(0 0)"/><path class="cls-9" d="M721.5,47.06a.43.43,0,0,0-.29,0,1,1,0,0,0-.38.09.44.44,0,0,0-.24.33,1.77,1.77,0,0,0-.05.51c.1.22.35.13.46.09l.62-.23a.24.24,0,0,0,.13-.09.45.45,0,0,0,0-.34A.68.68,0,0,0,721.5,47.06Z" transform="translate(0 0)"/><path class="cls-2" d="M551.6,31.3a5.2,5.2,0,0,0-.39-2.3A11.05,11.05,0,0,0,547,24.41a3,3,0,0,0-2-.5c-2.51.18-5.49.61-7.53,2.6-1.25,1.22-2,4-3.06,5.6a5.54,5.54,0,0,0-.39,3.27h0c0,.26.07.53.12.79v0c.05.25.11.49.17.72,0,.07.05.13.07.2s.11.33.17.47a3.48,3.48,0,0,0,.28.58h0a3.59,3.59,0,0,0,1.72,1.4,13.24,13.24,0,0,0,3.49,1,11.59,11.59,0,0,0,3.48,0,7.86,7.86,0,0,0,4.63-2.42,11.62,11.62,0,0,0,1.17-1.53c.36-.56.7-1.16,1-1.75a10.7,10.7,0,0,0,1-2.17c0-.16.13-.3.17-.47h0a6.22,6.22,0,0,0,.11-.88s0-.05,0-.07Z" transform="translate(0 0)"/><path class="cls-7" d="M537,22.36c2-2,5-2.42,7.53-2.6a3,3,0,0,1,2,.5,11.07,11.07,0,0,1,4.18,4.58,5.48,5.48,0,0,1,.28,3.25,9.86,9.86,0,0,1-1.12,2.64,18,18,0,0,1-2.2,3.28,7.86,7.86,0,0,1-4.64,2.42,11.93,11.93,0,0,1-7-1,3.56,3.56,0,0,1-1.73-1.4c-.89-1.45-1.26-4.74-.43-6.07C535,26.31,535.74,23.58,537,22.36Z" transform="translate(0 0)"/><path class="cls-8" d="M550.74,27.54a13.06,13.06,0,0,0-2.07,2c-.42.61-.74,1.39-1.19,1.95a2.58,2.58,0,0,1-1.77,1c-1.13.09-2.33-.57-3.41-.14-.76.3-1.37,1.12-2.1,1.55a4.86,4.86,0,0,1-3.13.33,3.53,3.53,0,0,1-1.39-.38,5.08,5.08,0,0,1-1.46-1.52c-.24-.34-.46-.71-.68-1.09a7.19,7.19,0,0,0,.82,2.8,3.56,3.56,0,0,0,1.73,1.4,11.93,11.93,0,0,0,7,1A7.86,7.86,0,0,0,547.69,34a18,18,0,0,0,2.2-3.28A9.86,9.86,0,0,0,551,28.09a7.25,7.25,0,0,0,.12-.95C551,27.28,550.87,27.42,550.74,27.54Z" transform="translate(0 0)"/><path class="cls-9" d="M547.28,22.13v0a3.26,3.26,0,0,0-3.87-2c-.76.18-1.51.4-2.26.65-1.6.52-3.88,1.4-4.75,3.75s.78,4.09,2.22,3.11,2.89-2.27,4.48-1.53c.29.13.58.34.88.45a2.62,2.62,0,0,0,2.06-.43,2.43,2.43,0,0,0,1.28-1.2A4.36,4.36,0,0,0,547.28,22.13Z" transform="translate(0 0)"/><path class="cls-9" d="M537.26,29.69a.35.35,0,0,0-.21-.12l-.94-.22a1,1,0,0,0-.41,0,1.1,1.1,0,0,0-.39.27c-.26.25-.88.84-.75,1.51.18,1,.77,0,1-.23s.57-.12.86.06a2.49,2.49,0,0,0,.52.3.38.38,0,0,0,.47-.21,1.87,1.87,0,0,0,0-1.07A1,1,0,0,0,537.26,29.69Z" transform="translate(0 0)"/><path class="cls-9" d="M549.75,26a.64.64,0,0,0-.38-.24,1.36,1.36,0,0,0-.59-.08.64.64,0,0,0-.49.4,2.52,2.52,0,0,0-.3.82c0,.42.42.43.6.43h1a.31.31,0,0,0,.22-.06.82.82,0,0,0,.13-.58A1.33,1.33,0,0,0,549.75,26Z" transform="translate(0 0)"/><path class="cls-2" d="M338.58,378.14a11.2,11.2,0,0,0-3.49-5.1,2.83,2.83,0,0,0-1.89-.75c-2.43-.12-5.33-.05-7.53,1.7-1.34,1.07-2.4,3.72-3.58,5.25a5.89,5.89,0,0,0-.76,3.23h0q0,.4,0,.81h0c0,.25,0,.5.08.75,0,.07,0,.14,0,.21a3.52,3.52,0,0,0,.11.49,4.22,4.22,0,0,0,.21.63,3.28,3.28,0,0,0,1.07,1.32l.42.29a11.82,11.82,0,0,0,4.9,1.79,10.36,10.36,0,0,0,1.67.05,7.68,7.68,0,0,0,3.62-1,7.55,7.55,0,0,0,1.11-.82,10.93,10.93,0,0,0,1.3-1.4l.61-.8.59-.83c.26-.37.52-.75.76-1.16a7.28,7.28,0,0,0,.62-1.35,6.13,6.13,0,0,0,.21-.87s0-.05,0-.07h0A5.5,5.5,0,0,0,338.58,378.14Z" transform="translate(0 0)"/><path class="cls-7" d="M325.19,369.84c2.2-1.75,5.1-1.82,7.53-1.7a2.85,2.85,0,0,1,1.9.75,11.2,11.2,0,0,1,3.48,5.1,5.85,5.85,0,0,1-.11,3.29,9.57,9.57,0,0,1-1.38,2.51,17.75,17.75,0,0,1-2.49,3,7.44,7.44,0,0,1-4.74,1.86,11.23,11.23,0,0,1-6.57-1.84,3.62,3.62,0,0,1-1.49-1.61c-.69-1.56-.66-4.91.29-6.14C322.79,373.56,323.85,370.91,325.19,369.84Z" transform="translate(0 0)"/><path class="cls-8" d="M337.8,376.7a12.08,12.08,0,0,0-2.22,1.76c-.48.56-.88,1.31-1.37,1.81a2.44,2.44,0,0,1-1.82.77c-1.09,0-2.17-.85-3.25-.55a16.67,16.67,0,0,0-2.2,1.3,4.42,4.42,0,0,1-3-.05,3.3,3.3,0,0,1-1.29-.54,5,5,0,0,1-1.22-1.7c-.19-.38-.37-.77-.54-1.18a7.71,7.71,0,0,0,.47,2.91,3.62,3.62,0,0,0,1.49,1.61,11.23,11.23,0,0,0,6.57,1.84,7.44,7.44,0,0,0,4.74-1.86,17.75,17.75,0,0,0,2.49-3,9.57,9.57,0,0,0,1.38-2.51,7.17,7.17,0,0,0,.23-.94Z" transform="translate(0 0)"/><path class="cls-9" d="M333.06,369a9.48,9.48,0,0,0-2.95.24,3.93,3.93,0,0,0-3,1.92c-.7,1.43.16,2.53,1.06,2s1.83-1.16,2.69-.6c.17.1.32.25.48.33a1.46,1.46,0,0,0,1.22-.1,1.41,1.41,0,0,0,.82-.63,2.78,2.78,0,0,0,.18-1.66A7.13,7.13,0,0,0,333.06,369Z" transform="translate(0 0)"/><path class="cls-9" d="M325.32,375.31a.31.31,0,0,0-.19-.15l-.87-.33a.78.78,0,0,0-.39-.08.94.94,0,0,0-.4.22c-.29.23-.94.74-.9,1.43.06,1,.74.05.95-.12s.57,0,.82.16a2.32,2.32,0,0,0,.47.37.37.37,0,0,0,.48-.16,2,2,0,0,0,.09-1.07A.72.72,0,0,0,325.32,375.31Z" transform="translate(0 0)"/><path class="cls-9" d="M336.08,373.75a.62.62,0,0,0-.34-.29,1.27,1.27,0,0,0-.56-.15.6.6,0,0,0-.51.34,2.54,2.54,0,0,0-.39.79c0,.42.36.48.53.5l.95.13a.26.26,0,0,0,.21,0,.83.83,0,0,0,.2-.57A1.41,1.41,0,0,0,336.08,373.75Z" transform="translate(0 0)"/><path class="cls-2" d="M716.53,114.89h0l-.41-.21h0a23,23,0,0,0-2.33-.9h0l-.31-.1h0l-.77-.24a7.51,7.51,0,0,0-2.58-.31h0l-.38,0h0a10.55,10.55,0,0,0-2.39.5h0l-.35.13h0c-.79.28-1.49.59-2.07.86h0l-.37.17c-.2.09-.39.18-.56.24a5.46,5.46,0,0,0-1.7,1.35h0l-.29.34h0c-1.4,1.71-2.51,4.34-.8,6.41,2.55,3.12,3.92,2.52,5.63,3.28,1,.44,2.55,1.63,5.1.84s3.56-3.4,5.79-5.31a3.83,3.83,0,0,0,1.12-5.11A4.94,4.94,0,0,0,716.53,114.89Z" transform="translate(0 0)"/><path class="cls-10" d="M706.85,124.41c-1.71-.75-3.08-.16-5.63-3.27s1.2-7.46,2.79-8.1,5-2.76,8.7-1.64,5.51,2.16,6.15,3.43a3.83,3.83,0,0,1-1.12,5.11c-2.23,1.92-3.23,4.51-5.79,5.31S707.84,124.85,706.85,124.41Z" transform="translate(0 0)"/><path class="cls-11" d="M701.63,116.74a11.09,11.09,0,0,1,4-3.73,12.61,12.61,0,0,1,3.94-1,9,9,0,0,1,4.43.21c.51.2,1,.49,1.51.71a11.9,11.9,0,0,1,1.93.87,2.18,2.18,0,0,1,1,1.9.55.55,0,0,1-.1.32.51.51,0,0,1-.29.15c-1,.21-1.94-.65-2.87-1.16a9.42,9.42,0,0,0-3.8-.87,9.06,9.06,0,0,0-4.82.47,8.71,8.71,0,0,0-1.75,1.24,7.44,7.44,0,0,0-1.88,2.14,5.16,5.16,0,0,1-.84,1.4c-.38.34-1.34.4-1.41-.32A4.06,4.06,0,0,1,701.63,116.74Z" transform="translate(0 0)"/><path class="cls-12" d="M705.23,123.44c.39.14.79.21,1.18.31a6.32,6.32,0,0,1,1.46.63,5.24,5.24,0,0,0,.61.34,3.09,3.09,0,0,0,.95.24,5.67,5.67,0,0,0,3.41-.39,4.22,4.22,0,0,0,.87-.6,5.12,5.12,0,0,0,1.24-1.64,9.16,9.16,0,0,0-1.59,1.19c-1.08.81-3-.31-4.33-.58s-1.95.36-3.26.18a3.21,3.21,0,0,1-.7-.13,3.17,3.17,0,0,1-.92-.76,4,4,0,0,0-1.1-.76.3.3,0,0,0-.29,0,4.18,4.18,0,0,0,1.11,1.15A4.58,4.58,0,0,0,705.23,123.44Z" transform="translate(0 0)"/><path class="cls-13" d="M709.84,119.69a14.44,14.44,0,0,1-.6-1.59c-.36-1.07-.7-2.15-1-3.24l-.89-3.22-.35.12c.23,1.08.5,2.16.78,3.23a30.88,30.88,0,0,0,1.1,3.24,14.83,14.83,0,0,0,.74,1.56c.23.49.67,1,.61,1.53C710.38,120.76,710,120.21,709.84,119.69Z" transform="translate(0 0)"/><path class="cls-13" d="M709.41,121.21a3.73,3.73,0,0,1-.58-.73c-.35-.52-.68-1.08-1-1.63a29.25,29.25,0,0,1-1.57-3.46c-.41-.93-.83-1.86-1.33-2.76l-.37.16c.47.9.87,1.84,1.26,2.79a24.11,24.11,0,0,0,1.7,3.46c.36.54.71,1.06,1.11,1.58a4.1,4.1,0,0,0,.7.68.65.65,0,0,0,.9,0A.6.6,0,0,1,709.41,121.21Z" transform="translate(0 0)"/><path class="cls-13" d="M707.81,121.29c0,.32-.4.26-.62.18a4.87,4.87,0,0,1-.71-.3,12,12,0,0,1-1.37-.76,16,16,0,0,1-2.42-1.94c-.63-.57-1.25-1.18-1.89-1.77l-.15.41c.57.57,1.13,1.15,1.72,1.71a13.76,13.76,0,0,0,2.56,1.91,10.5,10.5,0,0,0,1.46.65,5,5,0,0,0,.78.21C707.39,121.64,707.83,121.62,707.81,121.29Z" transform="translate(0 0)"/><path class="cls-13" d="M703.72,116.06c-.49-.54-1-1.11-1.41-1.67-.1.1-.19.22-.29.34.43.56.89,1.11,1.35,1.65.75.82,1.51,1.63,2.28,2.42l1.16,1.2a4,4,0,0,1,1,1.29,9.63,9.63,0,0,0-1.88-2.74Z" transform="translate(0 0)"/><path class="cls-13" d="M711.36,120.49l0-.87-.12-1.74-.33-3.47a12.72,12.72,0,0,0-.76-3.31c-.13,0-.25,0-.38,0a13.76,13.76,0,0,1,.67,3.33l.43,3.46.26,1.73.14.86c0,.26.17.66.51.65C711.43,121.12,711.39,120.76,711.36,120.49Z" transform="translate(0 0)"/><path class="cls-13" d="M716.53,112.86l-.41-.21a8.65,8.65,0,0,1-.35,2.46,38.62,38.62,0,0,1-2.32,6.4,21.12,21.12,0,0,0,2.78-6.29A8.88,8.88,0,0,0,716.53,112.86Z" transform="translate(0 0)"/><path class="cls-13" d="M712.5,119.85c.16-.49.29-1,.41-1.48a28.41,28.41,0,0,0,.51-3l.32-3a5.11,5.11,0,0,0,0-.55l-.31-.1c0,.21-.06.42-.1.62l-.44,3c-.11,1-.21,2-.39,3-.08.51-.16,1-.27,1.5s-.13,1.06-.52,1.37C712.21,120.89,712.3,120.3,712.5,119.85Z" transform="translate(0 0)"/><path class="cls-2" d="M595.51,157.61a4.92,4.92,0,0,0-3-.54h0l-.46,0h0a24.49,24.49,0,0,0-2.46.39h0l-.32.07h0l-.79.17a7.89,7.89,0,0,0-2.38,1h0l-.31.22h0a14.72,14.72,0,0,0-3.41,3.72l-.22.31c-.13.19-.26.37-.37.51a5.45,5.45,0,0,0-.79,2h0c0,.15-.06.29-.08.44h0c-.35,2.18,0,5,2.54,5.95,3.77,1.4,4.65.2,6.51,0,1.08-.12,3,.13,4.83-1.85s1.36-4.72,2.33-7.5A3.83,3.83,0,0,0,595.51,157.61Z" transform="translate(0 0)"/><path class="cls-10" d="M590,169.89c-1.86.21-2.74,1.41-6.51,0s-2.73-7.05-1.67-8.41,3-4.91,6.69-5.79,5.85-.91,7-.13a3.84,3.84,0,0,1,1.61,5c-1,2.78-.52,5.52-2.33,7.5S591,169.77,590,169.89Z" transform="translate(0 0)"/><path class="cls-11" d="M581.59,165.89a11.09,11.09,0,0,1,1.54-5.22,12.45,12.45,0,0,1,2.89-2.86,8.81,8.81,0,0,1,3.93-2.05c.54-.09,1.11-.08,1.66-.15a10.62,10.62,0,0,1,2.1-.22,2.2,2.2,0,0,1,1.85,1.13.64.64,0,0,1,.07.33.5.5,0,0,1-.18.27c-.77.69-2,.41-3.06.44a9.35,9.35,0,0,0-3.72,1.16,9.09,9.09,0,0,0-3.92,2.83,8.32,8.32,0,0,0-.9,2,7.49,7.49,0,0,0-.54,2.79,5,5,0,0,1,0,1.64c-.16.48-1,1-1.38.43A4,4,0,0,1,581.59,165.89Z" transform="translate(0 0)"/><path class="cls-12" d="M588.07,169.86a12.09,12.09,0,0,0,1.18-.32,6,6,0,0,1,1.58-.19,5.3,5.3,0,0,0,.69,0,3.22,3.22,0,0,0,1-.27,5.78,5.78,0,0,0,2.75-2.06,4.6,4.6,0,0,0,.45-.95,5.07,5.07,0,0,0,.24-2,9.33,9.33,0,0,0-.78,1.83c-.52,1.23-2.75,1.25-4,1.68s-1.5,1.29-2.73,1.79a1.9,1.9,0,0,1-1.84.05,4,4,0,0,0-1.33-.11.36.36,0,0,0-.28.12,4.21,4.21,0,0,0,1.55.44A4.3,4.3,0,0,0,588.07,169.86Z" transform="translate(0 0)"/><path class="cls-13" d="M590.16,164.31c-.46-.34-.89-.69-1.31-1.07-.86-.74-1.69-1.5-2.49-2.31L584,158.6l-.24.28c.74.82,1.51,1.61,2.3,2.4s1.67,1.55,2.58,2.25a17,17,0,0,0,1.42,1c.45.31,1.08.51,1.3,1C591.17,165,590.57,164.68,590.16,164.31Z" transform="translate(0 0)"/><path class="cls-13" d="M590.56,165.84a4,4,0,0,1-.87-.34c-.56-.28-1.13-.6-1.67-.91a29,29,0,0,1-3.1-2.2c-.82-.6-1.66-1.19-2.55-1.72l-.23.33c.85.55,1.68,1.15,2.49,1.78a24.81,24.81,0,0,0,3.21,2.13c.58.29,1.15.56,1.75.8a3.9,3.9,0,0,0,.95.24c.32.05.73-.08.79-.43A.61.61,0,0,1,590.56,165.84Z" transform="translate(0 0)"/><path class="cls-13" d="M589.22,166.71c.13.29-.22.43-.45.47a4,4,0,0,1-.77.09,11.51,11.51,0,0,1-1.55,0,16.14,16.14,0,0,1-3.08-.46l-2.52-.57c0,.14,0,.28.08.42.77.22,1.55.43,2.34.62a13.52,13.52,0,0,0,3.17.36,11.72,11.72,0,0,0,1.59-.17,5.32,5.32,0,0,0,.78-.22C589,167.23,589.4,167,589.22,166.71Z" transform="translate(0 0)"/><path class="cls-13" d="M583.05,164.25c-.7-.21-1.38-.48-2.06-.74,0,.15-.06.3-.08.45.66.27,1.33.51,2,.75,1.06.33,2.12.65,3.19.94l1.6.45a4.05,4.05,0,0,1,1.52.61,9.44,9.44,0,0,0-3-1.41Z" transform="translate(0 0)"/><path class="cls-13" d="M591.89,164.24l-.46-.75-1-1.44-2-2.84a12.91,12.91,0,0,0-2.32-2.47l-.31.22A14,14,0,0,1,588,159.5l2.12,2.77,1.09,1.36.56.68c.17.2.48.48.76.3C592.26,164.74,592,164.45,591.89,164.24Z" transform="translate(0 0)"/><path class="cls-13" d="M592.5,155l-.46,0a8.44,8.44,0,0,1,.94,2.3,38.57,38.57,0,0,1,1.22,6.7,21.35,21.35,0,0,0-.76-6.83A9,9,0,0,0,592.5,155Z" transform="translate(0 0)"/><path class="cls-13" d="M592.55,163.1c-.11-.5-.25-1-.4-1.48a29.13,29.13,0,0,0-1.08-2.87L589.82,156c-.07-.17-.16-.34-.24-.5l-.32.07c.08.19.16.39.23.59l1.14,2.82c.41.92.83,1.85,1.17,2.8.19.47.36.94.52,1.42s.42,1,.24,1.45C592.82,164.15,592.6,163.59,592.55,163.1Z" transform="translate(0 0)"/><path class="cls-2" d="M271.06,378.44a2.31,2.31,0,0,0-1.35-.31h-.21v0a8,8,0,0,0-1.09.12h0l-.14,0h0l-.35.06a3,3,0,0,0-1,.43h0l-.14.1h0a4.48,4.48,0,0,0-.77.73h0l-.1.13h0a8.89,8.89,0,0,0-.57.81h0l-.1.15-.15.23a2.24,2.24,0,0,0-.3.93h0l0,.2h0a4,4,0,0,0,0,1.09h0a1.77,1.77,0,0,0,0,.2h0a2.11,2.11,0,0,0,1.18,1.55c1.71.73,2.08.19,2.9.13a2.47,2.47,0,0,0,2.12-.77c.76-.89.51-2.19.88-3.47A2,2,0,0,0,271.06,378.44Z" transform="translate(0 0)"/><path class="cls-10" d="M268.87,383c-.82.06-1.19.6-2.9-.13s-1.35-3.36-.91-4,1.22-2.24,2.87-2.58,2.58-.31,3.13.08a2,2,0,0,1,.81,2.37c-.37,1.28-.12,2.57-.88,3.46A2.47,2.47,0,0,1,268.87,383Z" transform="translate(0 0)"/><path class="cls-11" d="M265.07,381a4.91,4.91,0,0,1,.58-2.41,5,5,0,0,1,1.23-1.28,3.4,3.4,0,0,1,1.7-.88c.25,0,.5,0,.74,0a4.79,4.79,0,0,1,.93-.06,1.11,1.11,0,0,1,.85.57.42.42,0,0,1,0,.15.22.22,0,0,1-.08.13c-.33.31-.88.15-1.35.14a3.75,3.75,0,0,0-1.64.47,3.64,3.64,0,0,0-1.69,1.25,4.23,4.23,0,0,0-.36.9,3.42,3.42,0,0,0-.18,1.29,2.5,2.5,0,0,1,0,.77c-.06.22-.4.45-.6.17A2.08,2.08,0,0,1,265.07,381Z" transform="translate(0 0)"/><path class="cls-12" d="M268,383c.18,0,.35-.09.52-.13a2.72,2.72,0,0,1,.7-.06,1.61,1.61,0,0,0,.31,0,1.19,1.19,0,0,0,.41-.11,2.25,2.25,0,0,0,1.19-.9,1.85,1.85,0,0,0,.18-.44,2.52,2.52,0,0,0,.07-.95,3.82,3.82,0,0,0-.31.84c-.21.57-1.21.53-1.76.7s-.65.58-1.18.79a1.51,1.51,0,0,1-.3.1,1.31,1.31,0,0,1-.53-.12,1.68,1.68,0,0,0-.59-.07.13.13,0,0,0-.12.05,1.93,1.93,0,0,0,.7.23A1.9,1.9,0,0,0,268,383Z" transform="translate(0 0)"/><path class="cls-13" d="M268.85,380.39c-.21-.17-.41-.34-.61-.53-.39-.36-.78-.74-1.15-1.13L266,377.59a.64.64,0,0,0-.1.13c.34.39.7.78,1.07,1.16a14,14,0,0,0,1.2,1.11,5.2,5.2,0,0,0,.65.48c.21.16.49.27.6.51C269.31,380.71,269,380.57,268.85,380.39Z" transform="translate(0 0)"/><path class="cls-13" d="M269.06,381.11a2,2,0,0,1-.4-.17l-.76-.46a16.36,16.36,0,0,1-1.42-1.1c-.38-.29-.77-.59-1.17-.85l-.1.14c.39.28.77.58,1.15.89a11.93,11.93,0,0,0,1.47,1.06,8.62,8.62,0,0,0,.8.41,2.3,2.3,0,0,0,.42.14c.15,0,.33,0,.35-.19A.25.25,0,0,1,269.06,381.11Z" transform="translate(0 0)"/><path class="cls-13" d="M268.48,381.49c.06.14-.09.2-.19.22a1.88,1.88,0,0,1-.34,0,5.3,5.3,0,0,1-.69,0,6.76,6.76,0,0,1-1.38-.28l-1.13-.32a1.18,1.18,0,0,0,0,.2l1,.34a5.84,5.84,0,0,0,1.42.23,4.17,4.17,0,0,0,.71-.05,2.09,2.09,0,0,0,.34-.08C268.41,381.73,268.57,381.63,268.48,381.49Z" transform="translate(0 0)"/><path class="cls-13" d="M265.69,380.22c-.32-.12-.63-.26-.94-.39l0,.21.91.39c.48.17,1,.35,1.44.5l.72.25a1.88,1.88,0,0,1,.69.31,4.62,4.62,0,0,0-1.37-.72Z" transform="translate(0 0)"/><path class="cls-13" d="M269.62,380.39l-.22-.36-.47-.69L268,378a6.54,6.54,0,0,0-1.08-1.21l-.14.1a6.56,6.56,0,0,1,1.05,1.23l1,1.34.52.66.26.33c.08.1.22.24.35.16C269.8,380.63,269.69,380.49,269.62,380.39Z" transform="translate(0 0)"/><path class="cls-13" d="M269.71,376.09h-.21a4.6,4.6,0,0,1,.47,1.09,21.16,21.16,0,0,1,.68,3.16,10.72,10.72,0,0,0-.48-3.21A5.15,5.15,0,0,0,269.71,376.09Z" transform="translate(0 0)"/><path class="cls-13" d="M269.89,379.87c-.06-.24-.13-.47-.21-.7a14.41,14.41,0,0,0-.54-1.37l-.61-1.33-.12-.24-.14,0,.12.28.56,1.34c.2.44.41.88.58,1.34.09.22.18.45.26.68s.21.46.14.68C270,380.37,269.92,380.1,269.89,379.87Z" transform="translate(0 0)"/><path class="cls-2" d="M634.1,295.94a1.62,1.62,0,0,0,0-.2h0a10.35,10.35,0,0,0-.27-1.06h0s0-.09,0-.14h0c0-.12-.06-.22-.1-.34a2.91,2.91,0,0,0-.69-1.09h0a4,4,0,0,0-.83-.67h0a8.35,8.35,0,0,0-1-.53h0l-.15-.08-.25-.12a2.63,2.63,0,0,0-1-.18h-.21a3.67,3.67,0,0,0-1.07.17h0l-.2.06h0a2.1,2.1,0,0,0-1.37,1.38c-.5,1.79.09,2.08.26,2.89a2.43,2.43,0,0,0,1,2c1,.64,2.23.22,3.55.42a2,2,0,0,0,2.23-1.13,2.25,2.25,0,0,0,.13-1.37Z" transform="translate(0 0)"/><path class="cls-10" d="M627.15,294c-.17-.81-.76-1.1-.26-2.89s3.15-1.79,3.81-1.43,2.39.91,2.94,2.49.65,2.52.33,3.12a2,2,0,0,1-2.23,1.12c-1.32-.2-2.57.23-3.55-.41A2.44,2.44,0,0,1,627.15,294Z" transform="translate(0 0)"/><path class="cls-11" d="M628.67,290a5,5,0,0,1,2.46.25,4.86,4.86,0,0,1,1.44,1.05,3.52,3.52,0,0,1,1.1,1.57c.06.24.08.49.13.73a4.55,4.55,0,0,1,.19.92,1.11,1.11,0,0,1-.45.91.47.47,0,0,1-.15.06.2.2,0,0,1-.13-.06c-.35-.29-.27-.85-.33-1.32a3.84,3.84,0,0,0-.68-1.56,3.55,3.55,0,0,0-1.46-1.51,3.6,3.6,0,0,0-.94-.24,3.55,3.55,0,0,0-1.3,0,2.34,2.34,0,0,1-.76.13c-.23,0-.51-.34-.26-.58A2.05,2.05,0,0,1,628.67,290Z" transform="translate(0 0)"/><path class="cls-12" d="M627.09,293.16c0,.17.13.33.19.5a2.67,2.67,0,0,1,.15.68,3,3,0,0,0,0,.31,2,2,0,0,0,.16.4,2.34,2.34,0,0,0,1.06,1.05,1.83,1.83,0,0,0,.46.12,2.35,2.35,0,0,0,1-.06,4.08,4.08,0,0,0-.87-.19c-.59-.13-.69-1.12-.94-1.65s-.65-.56-.93-1.07a.78.78,0,0,1-.09-.82,1.67,1.67,0,0,0,0-.59.17.17,0,0,0-.06-.12,1.82,1.82,0,0,0-.15.72A1.92,1.92,0,0,0,627.09,293.16Z" transform="translate(0 0)"/><path class="cls-13" d="M629.73,293.63c.14-.23.28-.45.44-.67.31-.44.63-.87,1-1.29l1-1.26-.14-.08c-.34.4-.68.8-1,1.22s-.65.87-.94,1.33a7,7,0,0,0-.39.71c-.13.23-.2.52-.42.66C629.47,294.13,629.58,293.84,629.73,293.63Z" transform="translate(0 0)"/><path class="cls-13" d="M629,293.94a2.21,2.21,0,0,1,.12-.42c.11-.27.23-.55.36-.82a15.08,15.08,0,0,1,.89-1.55c.24-.42.49-.84.69-1.28l-.15-.07c-.22.42-.47.84-.73,1.25a13.66,13.66,0,0,0-.86,1.6c-.11.28-.21.56-.3.85a1.62,1.62,0,0,0-.07.44c0,.14.07.31.23.31C629.06,294.23,629,294.07,629,293.94Z" transform="translate(0 0)"/><path class="cls-13" d="M628.59,293.41c-.13.08-.21-.06-.24-.16a1.76,1.76,0,0,1-.07-.33,5.4,5.4,0,0,1-.08-.69,7.37,7.37,0,0,1,.09-1.4c.05-.39.12-.78.17-1.17l-.2.07c-.06.36-.13.72-.19,1.09a6.31,6.31,0,0,0,0,1.44,5,5,0,0,0,.14.69c0,.11.08.22.13.33S628.46,293.52,628.59,293.41Z" transform="translate(0 0)"/><path class="cls-13" d="M629.48,290.47c.07-.33.17-.65.26-1h-.21c-.1.32-.18.64-.27.95-.11.5-.21,1-.31,1.5l-.14.75a2,2,0,0,1-.22.72,4.68,4.68,0,0,0,.53-1.45Z" transform="translate(0 0)"/><path class="cls-13" d="M629.83,294.39l.33-.26.62-.56,1.24-1.13a7.33,7.33,0,0,0,1.05-1.24l-.12-.12a7.26,7.26,0,0,1-1.08,1.21l-1.2,1.17-.58.6-.29.3c-.09.09-.21.25-.11.36C629.61,294.6,629.74,294.48,629.83,294.39Z" transform="translate(0 0)"/><path class="cls-13" d="M634.1,293.91a1.38,1.38,0,0,0,0-.2,4.34,4.34,0,0,1-1,.6,20.42,20.42,0,0,1-3,1.1,11.33,11.33,0,0,0,3.12-.9A5.77,5.77,0,0,0,634.1,293.91Z" transform="translate(0 0)"/><path class="cls-13" d="M630.38,294.59l.67-.29a14.51,14.51,0,0,0,1.28-.72l1.24-.79a1.07,1.07,0,0,0,.22-.15l0-.13-.26.15-1.26.74c-.41.26-.82.52-1.25.75-.21.12-.42.24-.64.35s-.43.27-.65.22C629.91,294.8,630.16,294.66,630.38,294.59Z" transform="translate(0 0)"/><path class="cls-2" d="M71.18,321.94l0-.21h0a7.18,7.18,0,0,0-.27-1.06h0l0-.13h0c0-.12-.06-.21-.1-.34a3.18,3.18,0,0,0-.69-1.09h0a4.28,4.28,0,0,0-.83-.67h0l-.14-.08h0a9.57,9.57,0,0,0-.88-.46h0l-.15-.07-.25-.13a2.48,2.48,0,0,0-1-.17h-.2a3.74,3.74,0,0,0-1.08.17h0l-.19.07h0A2.09,2.09,0,0,0,64,319.14c-.5,1.79.09,2.08.26,2.89a2.45,2.45,0,0,0,1,2c1,.64,2.24.22,3.56.42a2,2,0,0,0,2.23-1.12,2.21,2.21,0,0,0,.12-1.38Z" transform="translate(0 0)"/><path class="cls-10" d="M64.22,321c-.17-.81-.76-1.1-.26-2.89s3.15-1.79,3.82-1.44,2.38.91,2.94,2.5.64,2.52.33,3.12a2,2,0,0,1-2.23,1.12c-1.32-.2-2.57.22-3.56-.42A2.45,2.45,0,0,1,64.22,321Z" transform="translate(0 0)"/><path class="cls-11" d="M65.74,317a5,5,0,0,1,2.47.26,5.15,5.15,0,0,1,1.44,1,3.55,3.55,0,0,1,1.1,1.58c.06.24.08.49.13.73a5.44,5.44,0,0,1,.19.91,1.1,1.1,0,0,1-.45.91.32.32,0,0,1-.15.06.22.22,0,0,1-.14-.05c-.35-.29-.27-.86-.32-1.33a3.74,3.74,0,0,0-.68-1.55A3.55,3.55,0,0,0,67.87,318a4.72,4.72,0,0,0-2.25-.25,2.56,2.56,0,0,1-.76.12c-.23,0-.5-.34-.25-.57A2.06,2.06,0,0,1,65.74,317Z" transform="translate(0 0)"/><path class="cls-12" d="M64.16,320.17a5.21,5.21,0,0,0,.2.5,2.5,2.5,0,0,1,.15.68c0,.1,0,.21,0,.31a1.34,1.34,0,0,0,.16.39,2.27,2.27,0,0,0,1.06,1.06,1.73,1.73,0,0,0,.46.12,2.56,2.56,0,0,0,1-.06,4.18,4.18,0,0,0-.88-.2c-.59-.13-.68-1.12-.93-1.65s-.65-.56-.94-1.06a1,1,0,0,1-.13-.28,1.43,1.43,0,0,1,0-.54,2,2,0,0,0,0-.6s0-.09-.07-.11a2,2,0,0,0-.14.72A1.93,1.93,0,0,0,64.16,320.17Z" transform="translate(0 0)"/><path class="cls-13" d="M66.81,320.64c.14-.23.28-.45.44-.67.31-.44.63-.88,1-1.3l1-1.25-.14-.08c-.35.39-.68.8-1,1.21a15.37,15.37,0,0,0-.94,1.34,7,7,0,0,0-.39.71c-.13.22-.2.52-.43.66C66.55,321.14,66.65,320.85,66.81,320.64Z" transform="translate(0 0)"/><path class="cls-13" d="M66.12,320.94a1.93,1.93,0,0,1,.12-.41c.11-.28.23-.55.35-.82a15.32,15.32,0,0,1,.9-1.56c.24-.41.48-.83.69-1.27L68,316.8c-.22.43-.46.84-.72,1.26a11.7,11.7,0,0,0-.86,1.6c-.11.28-.21.55-.3.84a2.26,2.26,0,0,0-.08.44c0,.15.07.32.23.32C66.14,321.24,66.09,321.08,66.12,320.94Z" transform="translate(0 0)"/><path class="cls-13" d="M65.66,320.42c-.13.08-.2-.06-.23-.16a1.87,1.87,0,0,1-.08-.34,5.23,5.23,0,0,1-.07-.68,6.69,6.69,0,0,1,.09-1.41c0-.38.11-.77.16-1.16l-.19.07c-.07.36-.13.72-.19,1.09a5.78,5.78,0,0,0,0,1.44,4.22,4.22,0,0,0,.14.69,1.27,1.27,0,0,0,.13.32C65.42,320.38,65.54,320.52,65.66,320.42Z" transform="translate(0 0)"/><path class="cls-13" d="M66.56,317.48c.07-.33.16-.66.26-1h-.21c-.1.32-.19.63-.27.95-.11.5-.22,1-.31,1.5l-.14.74a2.08,2.08,0,0,1-.23.73A4.64,4.64,0,0,0,66.2,319Z" transform="translate(0 0)"/><path class="cls-13" d="M66.91,321.4l.32-.27.63-.55,1.23-1.14a6.51,6.51,0,0,0,1-1.23.63.63,0,0,0-.11-.12,7.27,7.27,0,0,1-1.09,1.21l-1.19,1.17-.59.59-.29.3c-.08.1-.2.26-.11.37C66.69,321.61,66.82,321.48,66.91,321.4Z" transform="translate(0 0)"/><path class="cls-13" d="M71.18,320.92l0-.21a4.24,4.24,0,0,1-1,.61,19,19,0,0,1-3,1.09,10.51,10.51,0,0,0,3.12-.9A4.91,4.91,0,0,0,71.18,320.92Z" transform="translate(0 0)"/><path class="cls-13" d="M67.46,321.6c.23-.09.45-.19.67-.3.44-.2.85-.47,1.28-.72l1.24-.78.22-.15,0-.13-.27.14-1.25.74c-.41.26-.83.52-1.25.76l-.64.34c-.21.1-.44.27-.66.23C67,321.81,67.23,321.66,67.46,321.6Z" transform="translate(0 0)"/><path class="cls-2" d="M673,37.49l0-.2h0a10.35,10.35,0,0,0-.27-1.06h0s0-.09-.05-.14h0c0-.12-.06-.22-.11-.34a2.93,2.93,0,0,0-.68-1.09h0A5.71,5.71,0,0,0,670,33.46l-.15-.08-.24-.12a2.45,2.45,0,0,0-1-.18h-.21a3.73,3.73,0,0,0-1.07.17h0l-.19.06h0a2.08,2.08,0,0,0-1.38,1.37c-.5,1.8.09,2.09.26,2.9a2.45,2.45,0,0,0,1,2c1,.64,2.23.22,3.55.42a2,2,0,0,0,2.24-1.13A2.26,2.26,0,0,0,673,37.5Z" transform="translate(0 0)"/><path class="cls-10" d="M666.07,36.22c-.17-.81-.76-1.1-.26-2.89s3.15-1.79,3.82-1.44,2.38.91,2.93,2.5.65,2.52.34,3.12a2,2,0,0,1-2.24,1.12c-1.32-.2-2.57.22-3.55-.42A2.45,2.45,0,0,1,666.07,36.22Z" transform="translate(0 0)"/><path class="cls-11" d="M667.59,32.17a5.06,5.06,0,0,1,2.47.26,5,5,0,0,1,1.43,1,3.47,3.47,0,0,1,1.1,1.58c.07.24.08.49.14.73a4.58,4.58,0,0,1,.18.91,1,1,0,0,1-.45.91.28.28,0,0,1-.15.06.21.21,0,0,1-.13,0c-.35-.29-.27-.86-.32-1.33a3.72,3.72,0,0,0-.69-1.56A2.84,2.84,0,0,0,668.78,33a3.6,3.6,0,0,0-1.31,0,2.61,2.61,0,0,1-.76.12c-.23,0-.51-.34-.25-.57A2,2,0,0,1,667.59,32.17Z" transform="translate(0 0)"/><path class="cls-12" d="M666,35.38c0,.17.13.33.19.49a2.31,2.31,0,0,1,.16.69,1.63,1.63,0,0,0,0,.31,1.11,1.11,0,0,0,.16.39,2.25,2.25,0,0,0,1.05,1.06,1.83,1.83,0,0,0,.46.12,2.61,2.61,0,0,0,1-.06,4.32,4.32,0,0,0-.88-.2c-.59-.13-.69-1.12-.93-1.65s-.66-.56-.94-1.06a1,1,0,0,1-.13-.28,1.25,1.25,0,0,1,0-.54,1.73,1.73,0,0,0,0-.6.11.11,0,0,0-.06-.11,2,2,0,0,0-.14.72A1.75,1.75,0,0,0,666,35.38Z" transform="translate(0 0)"/><path class="cls-13" d="M668.66,35.85a7,7,0,0,1,.44-.67c.31-.44.62-.88,1-1.3l1-1.25-.14-.08c-.35.39-.69.8-1,1.21A15.25,15.25,0,0,0,669,35.1a7.14,7.14,0,0,0-.4.71c-.12.22-.19.52-.42.66C668.39,36.35,668.5,36.06,668.66,35.85Z" transform="translate(0 0)"/><path class="cls-13" d="M668,36.15a1.51,1.51,0,0,1,.13-.41c.1-.28.23-.55.35-.82a17.35,17.35,0,0,1,.89-1.56,14.17,14.17,0,0,0,.7-1.27l-.16-.08c-.22.43-.47.84-.72,1.25a12.44,12.44,0,0,0-.86,1.61c-.11.28-.22.55-.31.84a2.24,2.24,0,0,0-.07.44c0,.15.07.32.23.32C668,36.45,667.94,36.29,668,36.15Z" transform="translate(0 0)"/><path class="cls-13" d="M667.51,35.63c-.13.08-.21-.06-.24-.16a3.4,3.4,0,0,1-.07-.34,5.25,5.25,0,0,1-.08-.68,6.7,6.7,0,0,1,.1-1.41c0-.38.11-.77.16-1.16l-.19.07c-.07.36-.14.72-.19,1.09a5.71,5.71,0,0,0,0,1.43,5.44,5.44,0,0,0,.15.7,1.75,1.75,0,0,0,.12.32C667.26,35.59,667.39,35.73,667.51,35.63Z" transform="translate(0 0)"/><path class="cls-13" d="M668.4,32.69c.08-.33.17-.66.26-1h-.21c-.09.32-.18.63-.26.95-.11.5-.22,1-.31,1.5l-.15.74a1.88,1.88,0,0,1-.22.73,4.38,4.38,0,0,0,.53-1.45Z" transform="translate(0 0)"/><path class="cls-13" d="M668.76,36.61l.32-.27.63-.55,1.23-1.14a6.51,6.51,0,0,0,1-1.23l-.11-.12a8.28,8.28,0,0,1-1.09,1.21l-1.19,1.17-.59.59-.29.3c-.09.1-.2.26-.11.37C668.54,36.82,668.66,36.69,668.76,36.61Z" transform="translate(0 0)"/><path class="cls-13" d="M673,36.13l0-.21a4.44,4.44,0,0,1-1,.61,19.32,19.32,0,0,1-3,1.09,10.59,10.59,0,0,0,3.12-.9A4.91,4.91,0,0,0,673,36.13Z" transform="translate(0 0)"/><path class="cls-13" d="M669.31,36.81l.67-.3a13.32,13.32,0,0,0,1.27-.72l1.24-.78.23-.15s0-.09-.05-.13l-.26.14-1.26.74c-.41.26-.82.52-1.24.76l-.64.34c-.21.1-.44.27-.66.23C668.83,37,669.08,36.87,669.31,36.81Z" transform="translate(0 0)"/><path class="cls-2" d="M361.81,309.18c0-.12-.07-.23-.11-.35a20.51,20.51,0,0,0-1-2.39h0l0-.06c-.15-.31-.3-.62-.47-.95-1.47-2.87-4.44-4-6.29-4.74h0l-.37-.15-.57-.23a5.36,5.36,0,0,0-2.15-.28h0l-.44,0h0c-2.2.18-4.85,1.21-5.16,3.88-.46,4,.91,4.57,1.56,6.32.37,1,.6,3,3,4.26s4.9.19,7.84.47a3.82,3.82,0,0,0,4.44-2.75,4.87,4.87,0,0,0-.2-3.05Z" transform="translate(0 0)"/><path class="cls-10" d="M346.78,308.22c-.65-1.75-2-2.32-1.56-6.32s6.2-4.33,7.76-3.62,5.48,1.7,7.23,5.11,2.28,5.46,1.8,6.81a3.82,3.82,0,0,1-4.45,2.74c-2.93-.27-5.48.82-7.83-.47S347.15,309.24,346.78,308.22Z" transform="translate(0 0)"/><path class="cls-11" d="M348.67,299.14a11,11,0,0,1,5.43.25,12.4,12.4,0,0,1,3.48,2.12,8.93,8.93,0,0,1,2.93,3.33c.21.51.34,1.06.53,1.58a10.92,10.92,0,0,1,.72,2,2.21,2.21,0,0,1-.65,2.07.62.62,0,0,1-.31.14.47.47,0,0,1-.3-.1c-.86-.59-.88-1.84-1.17-2.87a9.36,9.36,0,0,0-2-3.34,9,9,0,0,0-3.69-3.13,8.13,8.13,0,0,0-2.11-.4,7.57,7.57,0,0,0-2.84.13,4.85,4.85,0,0,1-1.59.38c-.51,0-1.22-.69-.75-1.24A4,4,0,0,1,348.67,299.14Z" transform="translate(0 0)"/><path class="cls-12" d="M346.36,306.38a11.15,11.15,0,0,0,.59,1.07,6.12,6.12,0,0,1,.57,1.49,5.48,5.48,0,0,0,.17.67,3.14,3.14,0,0,0,.49.85,5.74,5.74,0,0,0,2.65,2.18,4.49,4.49,0,0,0,1,.21,5.1,5.1,0,0,0,2.05-.25,9.88,9.88,0,0,0-2-.32c-1.32-.21-1.87-2.38-2.59-3.51s-1.61-1.15-2.4-2.23a3.3,3.3,0,0,1-.38-.59,3,3,0,0,1-.1-1.19,4.18,4.18,0,0,0-.21-1.31c0-.1-.08-.2-.19-.24a4.28,4.28,0,0,0-.05,1.6A4.21,4.21,0,0,0,346.36,306.38Z" transform="translate(0 0)"/><path class="cls-13" d="M352.26,307.09c.21-.53.45-1,.71-1.54.52-1,1.06-2,1.65-3l1.7-2.88-.33-.16c-.62.91-1.21,1.85-1.78,2.8a33.73,33.73,0,0,0-1.57,3A13,13,0,0,0,352,307c-.2.51-.25,1.16-.69,1.5C351.86,308.22,352,307.57,352.26,307.09Z" transform="translate(0 0)"/><path class="cls-13" d="M350.86,307.84a3.71,3.71,0,0,1,.12-.93c.14-.61.31-1.24.48-1.84a31.21,31.21,0,0,1,1.4-3.53c.39-.94.76-1.9,1.06-2.89l-.37-.14c-.33,1-.71,1.9-1.13,2.84a24,24,0,0,0-1.31,3.62c-.14.64-.26,1.26-.36,1.9a4.58,4.58,0,0,0,0,1c0,.32.26.68.61.66A.6.6,0,0,1,350.86,307.84Z" transform="translate(0 0)"/><path class="cls-13" d="M349.69,306.74c-.25.2-.46-.11-.56-.31a3.76,3.76,0,0,1-.27-.73,10.11,10.11,0,0,1-.41-1.5,16.11,16.11,0,0,1-.29-3.1c0-.85,0-1.72,0-2.58l-.4.17c0,.8,0,1.61,0,2.42a13.63,13.63,0,0,0,.4,3.17,10.72,10.72,0,0,0,.55,1.5,4.51,4.51,0,0,0,.39.71C349.15,306.69,349.46,307,349.69,306.74Z" transform="translate(0 0)"/><path class="cls-13" d="M350.61,300.17c0-.73.14-1.45.22-2.18l-.45,0c-.1.7-.18,1.41-.25,2.12-.06,1.11-.12,2.22-.15,3.32l-.05,1.66a4.17,4.17,0,0,1-.24,1.62,9.24,9.24,0,0,0,.66-3.25Z" transform="translate(0 0)"/><path class="cls-13" d="M352.73,308.74l.61-.62,1.17-1.3,2.27-2.65a12.5,12.5,0,0,0,1.85-2.84,3.47,3.47,0,0,0-.29-.25,13.77,13.77,0,0,1-1.93,2.79l-2.18,2.72L353.17,308l-.53.7c-.15.22-.35.59-.11.82C352.33,309.23,352.56,308.94,352.73,308.74Z" transform="translate(0 0)"/><path class="cls-13" d="M361.81,307.15c0-.15-.08-.29-.13-.44a8.93,8.93,0,0,1-2,1.46,38.93,38.93,0,0,1-6.21,2.78,21.15,21.15,0,0,0,6.45-2.37A9.37,9.37,0,0,0,361.81,307.15Z" transform="translate(0 0)"/><path class="cls-13" d="M354,309.12c.46-.23.91-.48,1.35-.74a28.92,28.92,0,0,0,2.52-1.74l2.42-1.88c.15-.11.29-.23.43-.35l-.15-.3-.51.37-2.47,1.78c-.8.62-1.6,1.24-2.44,1.81q-.61.44-1.26.84c-.42.23-.85.64-1.35.58C353,309.63,353.53,309.28,354,309.12Z" transform="translate(0 0)"/><path class="cls-14" d="M435.79,369.9s-1.65-6.84-7.54-8.28c0,0-5.21-9.44-12-10.95l-1.24-.27h0c-5.71-1.12-7.13-.24-7.13-.24l-1.61-.21h0l-.1,0-.78-.1-.3,0-.82-.1-.37-.05-.89-.11-.45-.06-1.43-.18h0l-.3,0h0l-2.22-.28h-.06l-1.52-.19H397l-2.51-.3h0l-.94-.11h-.09l-2.33-.27-.29,0-2.35-.26-.17,0h0l-2-.22h0l-.19,0-1.7-.17h-.13l-1.85-.18h0l-.19,0-1.39-.12-.21,0h-.14l.08-.08-.11.07a60.82,60.82,0,0,0-6.48-.31h0l-.21,0-.26,0-.16,0-.18.05-.09,0c-.06,0-.1.06-.11.1-.12.51,3.35,3,7.84,6.06a.45.45,0,0,0,0,.1l0-.07c1,.67,2.05,1.38,3.13,2.09v0c1.41.93,2.86,1.87,4.28,2.79h0c1.81,1.17,3.57,2.3,5.16,3.3h0c3.72,2.37,6.46,4.07,6.46,4.07s5.32,10.67,16.24,11.4,14.45-2.6,16-4.43S436.13,371,435.79,369.9Zm-35.15-3.77.09.1Z" transform="translate(0 0)"/><path class="cls-15" d="M432.45,363.24a64.82,64.82,0,0,0-6.22-6.13s-5.22-9.44-12-10.95-8.37-.51-8.37-.51-34.65-4.64-35-3.23,26.93,18.35,26.93,18.35,6.07,7.25,10.89,7.42S432.45,363.24,432.45,363.24Z" transform="translate(0 0)"/><path class="cls-16" d="M399.13,344.78l5.15.66a10,10,0,0,0-1.39,1.74,9.54,9.54,0,0,1-1.15,1.65,3.39,3.39,0,0,1-2.48,1,1.51,1.51,0,0,1-.81-.21c-.62-.43-.5-1.37-.28-2.09Q398.59,346.13,399.13,344.78Z" transform="translate(0 0)"/><path class="cls-16" d="M406.8,348.23a2.54,2.54,0,0,1,1.63-1.22,23.4,23.4,0,0,1,4.6-1.12l1.23.27c6.75,1.51,12,10.95,12,10.95.89.71,1.84,1.6,2.72,2.46a6.52,6.52,0,0,0-.71,1.11,42.51,42.51,0,0,1-10.91-.82,18,18,0,0,1-3.82-1.18,12.68,12.68,0,0,1-6.73-9.12A2.5,2.5,0,0,1,406.8,348.23Z" transform="translate(0 0)"/><path class="cls-16" d="M392.54,347.35a1.1,1.1,0,0,1-.41-1.07,3.33,3.33,0,0,1,.47-1.1l.65-1.12,3.36.4,0,0c-.86.7-1.53,1.59-2.32,2.36C393.79,347.28,393.08,347.7,392.54,347.35Z" transform="translate(0 0)"/><path class="cls-16" d="M382.48,344.81a2.53,2.53,0,0,1-.25-1.38,2.36,2.36,0,0,0,0-.59l2,.2a3.09,3.09,0,0,1-.09.68,1.85,1.85,0,0,1-1.25,1.31.46.46,0,0,1-.26,0A.38.38,0,0,1,382.48,344.81Z" transform="translate(0 0)"/><path class="cls-16" d="M386.11,345.68a1.74,1.74,0,0,1-.2-1.7,4.36,4.36,0,0,1,.35-.72l5.25.59a10.54,10.54,0,0,1-2.77,1.91C387.89,346.17,386.73,346.4,386.11,345.68Z" transform="translate(0 0)"/><path class="cls-16" d="M380.41,342.66c-.18.12-.35.26-.54.37a1.3,1.3,0,0,1-1.32.17,2.79,2.79,0,0,0,.08-.7Z" transform="translate(0 0)"/><path class="cls-17" d="M398,353.65c1.86.1,3.91-.85,4.44-2.62-.19,3.3,1.87,6.42,4.55,8.37a19.44,19.44,0,0,0,4.54,2.37c.84.32,4.13.9,3.94,1.83-.25,1.18-2.76,2.35-3.73,2.79a25.05,25.05,0,0,1-4.39,1.44l-.26.06c-4.45-1.39-9.25-7.12-9.25-7.12s-27.26-16.95-26.93-18.35c0-.14.41-.22,1.05-.25a179.56,179.56,0,0,1,20.86,9.62A12.93,12.93,0,0,0,398,353.65Z" transform="translate(0 0)"/><path class="cls-18" d="M433.76,365.39s-1.65-6.84-7.53-8.28-11.48,5.4-13.83,6.56-10.33,2.49-14.55-2.9c0,0,5.32,10.67,16.24,11.4s14.45-2.6,16-4.43S434.1,366.45,433.76,365.39Z" transform="translate(0 0)"/><path class="cls-19" d="M432.43,365.59A22.58,22.58,0,0,0,422,364.18c-5.27.77-7.07,2.56-10.26,2.89s-7.67-2.07-7.28-1.15,6,4,9.93,3.44,5.15-1.74,7.66-.93,2.78,2.09,4.77.43A29,29,0,0,1,432.43,365.59Z" transform="translate(0 0)"/><path class="cls-14" d="M405.89,345.65s-6.3,9.58-7.19,16.07A21,21,0,0,1,405.89,345.65Z" transform="translate(0 0)"/><path class="cls-14" d="M391.39,356.7s3.27-8.29,7.45-12C398.84,344.74,391.75,348.87,391.39,356.7Z" transform="translate(0 0)"/><path class="cls-14" d="M386.23,353.4s-.43-4.61,6.22-9.44A27.45,27.45,0,0,0,386.23,353.4Z" transform="translate(0 0)"/><path class="cls-14" d="M381.94,350.64s-.65-4,4.35-7.38A20.65,20.65,0,0,0,381.94,350.64Z" transform="translate(0 0)"/><path class="cls-14" d="M378.77,348.58s-.51-3.1,3.37-5.74A16.14,16.14,0,0,0,378.77,348.58Z" transform="translate(0 0)"/><path class="cls-14" d="M376.07,346.63s-.37-2.29,2.49-4.22A11.8,11.8,0,0,0,376.07,346.63Z" transform="translate(0 0)"/><path class="cls-14" d="M374.5,345.1a2.78,2.78,0,0,1,1.51-2.56A7.15,7.15,0,0,0,374.5,345.1Z" transform="translate(0 0)"/><path class="cls-20" d="M683.66,267.39c.5.59-.22,1.8-2.95,4.5s-4.52,4.26-4.15,5.47c.42,1.37,8.87,8,8.82,9.46s-10.44-3.67-12.3-3.93-2.48,2.52-4.87,6.9c-2,3.59-2.58,4.23-3.52,3s2.1-10.78,1.07-12.38-10.69-1.35-11.57-2.75,9-2.52,10.68-4.26.27-13.09,1.52-13.4,3.79,9.71,6.14,11.07C673.74,271.78,682.25,265.77,683.66,267.39Z" transform="translate(0 0)"/><path class="cls-21" d="M664.75,291.23c.94,1.22,1.56.58,3.51-3,2.39-4.39,3-7.15,4.88-6.9,1.53.21,8.87,3.72,11.42,4.14-2.13-2.47-7.66-7-8-8.1a1.59,1.59,0,0,1,.24-1.24,1.39,1.39,0,0,1-.18-.33c-.37-1.21,1.43-2.77,4.15-5.47a20.4,20.4,0,0,0,2.7-3.07c-1.84-1-9.78,4.5-10.94,3.83-2.35-1.36-4.89-11.38-6.14-11.07-.32.07-.47.87-.54,2,0,1.84,0,4.09-.1,6-.06,2.45-.23,4.68-.88,5.37-1.22,1.3-7.11,2.26-9.61,3.24,2.72.82,9.69.85,10.56,2.2a4.35,4.35,0,0,1,.14,2.35c.16,2.05-1.05,6.74-1.37,9.53A1.13,1.13,0,0,0,664.75,291.23Z" transform="translate(0 0)"/><path class="cls-22" d="M674.58,280.57a.14.14,0,0,0,0,.09.45.45,0,0,0,0,.11.84.84,0,0,0,1,.37.48.48,0,0,0,.27-.75,1.28,1.28,0,0,0-.79-.59C674.72,279.75,674.63,280.3,674.58,280.57Z" transform="translate(0 0)"/><path class="cls-22" d="M679,282.75a.34.34,0,0,0-.09-.15,5.46,5.46,0,0,0-1.14-1.06c-.32-.21-1-.53-1,.15a.81.81,0,0,0,.27.55,3.66,3.66,0,0,0,.5.38,3.19,3.19,0,0,0,.71.51.61.61,0,0,0,.77-.2A.23.23,0,0,0,679,282.75Z" transform="translate(0 0)"/><path class="cls-22" d="M681.6,284.43a.17.17,0,0,0,.07-.13.3.3,0,0,0-.08-.17,2.59,2.59,0,0,0-1-.62c-.17-.08-.52-.3-.62-.08s.1.58.22.72a1.21,1.21,0,0,0,.51.31,1.51,1.51,0,0,0,.46.13A.59.59,0,0,0,681.6,284.43Z" transform="translate(0 0)"/><path class="cls-22" d="M675.94,273.85a.55.55,0,0,0-.27-.48.51.51,0,0,0-.34,0,1.34,1.34,0,0,0-.83.54c-.17.33.32.6.55.74l.08,0h.11A.83.83,0,0,0,675.94,273.85Z" transform="translate(0 0)"/><path class="cls-22" d="M676.83,273a.81.81,0,0,0,.61-.07,3.67,3.67,0,0,0,.53-.34,3,3,0,0,0,.72-.49.61.61,0,0,0,.08-.79.24.24,0,0,0-.16-.09.27.27,0,0,0-.17,0,5.47,5.47,0,0,0-1.39.69C676.75,272.2,676.2,272.78,676.83,273Z" transform="translate(0 0)"/><path class="cls-22" d="M680.35,270.58a1.29,1.29,0,0,0,.47-.37,1.56,1.56,0,0,0,.27-.4.57.57,0,0,0,0-.46.18.18,0,0,0-.1-.11.25.25,0,0,0-.19,0,2.6,2.6,0,0,0-.93.72c-.13.13-.46.39-.29.56S680.18,270.64,680.35,270.58Z" transform="translate(0 0)"/><path class="cls-22" d="M668.32,273.4c.23.29.68,0,.9-.19a.13.13,0,0,0,.07-.06.19.19,0,0,0,.05-.1.8.8,0,0,0-.44-1,.52.52,0,0,0-.55,0,.54.54,0,0,0-.17.29A1.28,1.28,0,0,0,668.32,273.4Z" transform="translate(0 0)"/><path class="cls-22" d="M668.52,270.92a.79.79,0,0,0,.2-.58c0-.21-.06-.41-.08-.62a3.1,3.1,0,0,0-.15-.86.63.63,0,0,0-.68-.41.28.28,0,0,0-.15.11.33.33,0,0,0,0,.17,5.1,5.1,0,0,0,0,1.56C667.75,270.66,668,271.4,668.52,270.92Z" transform="translate(0 0)"/><path class="cls-22" d="M667.79,266.71a1.3,1.3,0,0,0-.14-.58,1.64,1.64,0,0,0-.24-.41.59.59,0,0,0-.42-.21.17.17,0,0,0-.14.05.27.27,0,0,0-.07.18,2.72,2.72,0,0,0,.27,1.14c.06.17.15.58.38.5S667.77,266.89,667.79,266.71Z" transform="translate(0 0)"/><path class="cls-22" d="M667.19,288.15a.55.55,0,0,0-.5-.24.6.6,0,0,0-.3.17,1.3,1.3,0,0,0-.37.91c.05.37.61.31.88.3l.09,0,.09-.06A.82.82,0,0,0,667.19,288.15Z" transform="translate(0 0)"/><path class="cls-22" d="M668.15,286a2.93,2.93,0,0,0,.3-.81.62.62,0,0,0-.38-.7.31.31,0,0,0-.19,0,.35.35,0,0,0-.11.13A5.54,5.54,0,0,0,667,286c-.11.36-.23,1.15.42,1a.84.84,0,0,0,.47-.4A6.07,6.07,0,0,0,668.15,286Z" transform="translate(0 0)"/><path class="cls-22" d="M669.1,282.37a1.55,1.55,0,0,0,0-.48.55.55,0,0,0-.26-.38.2.2,0,0,0-.15,0,.29.29,0,0,0-.14.13,2.68,2.68,0,0,0-.35,1.12c0,.18-.15.58.08.62s.54-.25.65-.4A1.35,1.35,0,0,0,669.1,282.37Z" transform="translate(0 0)"/><path class="cls-22" d="M660,276.77a.64.64,0,0,0-.24-.25,1.27,1.27,0,0,0-1-.13c-.35.13-.16.65-.08.91a.36.36,0,0,0,0,.09.27.27,0,0,0,.08.07.81.81,0,0,0,1.05-.15A.54.54,0,0,0,660,276.77Z" transform="translate(0 0)"/><path class="cls-22" d="M663.56,277.11a.38.38,0,0,0-.15-.09,5.88,5.88,0,0,0-1.51-.39c-.37,0-1.17.05-.85.64a.8.8,0,0,0,.5.36c.21.05.42.06.63.09a3.12,3.12,0,0,0,.86.11c.29,0,.59-.25.58-.54A.22.22,0,0,0,663.56,277.11Z" transform="translate(0 0)"/><path class="cls-22" d="M666.68,277.17a.38.38,0,0,0-.16-.11,2.88,2.88,0,0,0-1.17-.07c-.18,0-.6,0-.59.23s.38.47.55.53a1.17,1.17,0,0,0,.59,0,1.53,1.53,0,0,0,.47-.11.57.57,0,0,0,.31-.35A.26.26,0,0,0,666.68,277.17Z" transform="translate(0 0)"/><path class="cls-20" d="M611.29,85.29c.8-1.9,4.54-1.6,14.19,1.7s15.47,5.76,17.91,3.46c2.78-2.63,8.7-30.59,12.17-32.18s3.55,29.23,5.13,33.95,8.91,3,22.17,3.49c10.87.43,13.12,1.15,11.32,4.83s-28.17,7.7-30.77,12,9.4,27.07,7.08,30.81-16.66-18.6-22.72-20.43-31.52,14.8-33.73,12.18,21.59-19.77,22.06-27C636.34,104.48,609.09,90.54,611.29,85.29Z" transform="translate(0 0)"/><path class="cls-21" d="M682.86,95.71c-13.26-.53-20.59,1.23-22.17-3.49S659,56.69,655.56,58.27s-9.39,29.55-12.17,32.18c-2.44,2.3-8.26-.16-17.91-3.46-7.26-2.48-11.17-3.27-13-2.7,4.93,6.35,24,16.62,23.78,19.7a7,7,0,0,1-.94,2.69,2.46,2.46,0,0,1,.79,1.49c-.36,5.46-14.13,16.65-19.8,22.87,6.7-1.67,26.39-13.85,31.62-12.26,5.91,1.79,19.73,23.12,22.53,20.64-1.7-7.8-9.14-23.33-7-26.84l0,0c-.35-1.86-.37-3.32.11-4.13,2.42-4.05,25.57-7.82,30.1-11.3C692.1,96.27,688.76,95.94,682.86,95.71Z" transform="translate(0 0)"/><path class="cls-22" d="M653.38,91.4a1,1,0,0,0,.24-.09.84.84,0,0,0,.21-.21,2.2,2.2,0,0,0-.29-2.81,1.43,1.43,0,0,0-1.42-.37,1.63,1.63,0,0,0-.7.6A3.44,3.44,0,0,0,651,91.1C651.28,92,652.69,91.58,653.38,91.4Z" transform="translate(0 0)"/><path class="cls-22" d="M653.41,78.36a1,1,0,0,0-.24.39,14.52,14.52,0,0,0-1.21,4c-.11,1,0,3.12,1.61,2.33a2.07,2.07,0,0,0,1-1.29,15.32,15.32,0,0,0,.32-1.64,8.54,8.54,0,0,0,.36-2.28,1.64,1.64,0,0,0-1.36-1.62A.74.74,0,0,0,653.41,78.36Z" transform="translate(0 0)"/><path class="cls-22" d="M654.32,70.1a.53.53,0,0,0-.39,0,.69.69,0,0,0-.32.39,7.23,7.23,0,0,0-.31,3.11c0,.49-.09,1.6.55,1.59s1.27-1,1.46-1.39a3.24,3.24,0,0,0,.14-1.58A3.76,3.76,0,0,0,655.2,71,1.51,1.51,0,0,0,654.32,70.1Z" transform="translate(0 0)"/><path class="cls-22" d="M635.77,96.08a1.39,1.39,0,0,0-.83,1.2,1.52,1.52,0,0,0,.32.86,3.47,3.47,0,0,0,2.26,1.33c1,0,1.05-1.46,1.12-2.18a1,1,0,0,0,0-.25.55.55,0,0,0-.12-.27A2.2,2.2,0,0,0,635.77,96.08Z" transform="translate(0 0)"/><path class="cls-22" d="M632.73,94.92a2.11,2.11,0,0,0-.87-1.38c-.44-.34-1-.57-1.43-.87a8.65,8.65,0,0,0-2-1.12,1.66,1.66,0,0,0-2,.72.72.72,0,0,0,0,.5.93.93,0,0,0,.29.36,14.29,14.29,0,0,0,3.3,2.5C630.89,96.08,632.91,96.71,632.73,94.92Z" transform="translate(0 0)"/><path class="cls-22" d="M622.78,89.42a3.26,3.26,0,0,0-1.44-.68,3.59,3.59,0,0,0-1.25-.19,1.47,1.47,0,0,0-1.12.52.54.54,0,0,0-.14.37.68.68,0,0,0,.26.43,7.3,7.3,0,0,0,2.81,1.37c.46.14,1.47.63,1.68,0S623.13,89.75,622.78,89.42Z" transform="translate(0 0)"/><path class="cls-22" d="M643.68,114.75c.42-.88-.89-1.56-1.51-1.92a1,1,0,0,0-.23-.11.94.94,0,0,0-.29,0,2.21,2.21,0,0,0-1.79,2.2,1.46,1.46,0,0,0,.74,1.26,1.61,1.61,0,0,0,.92.07A3.47,3.47,0,0,0,643.68,114.75Z" transform="translate(0 0)"/><path class="cls-22" d="M637.54,117.19a2.07,2.07,0,0,0-1.61.21,14.63,14.63,0,0,0-1.39.93,8.23,8.23,0,0,0-1.87,1.36,1.62,1.62,0,0,0-.18,2.1.67.67,0,0,0,.44.24,1,1,0,0,0,.45-.11A14.38,14.38,0,0,0,637,120C637.82,119.34,639.24,117.78,637.54,117.19Z" transform="translate(0 0)"/><path class="cls-22" d="M628.37,123.91a3.35,3.35,0,0,0-1.23,1,4.1,4.1,0,0,0-.7,1,1.49,1.49,0,0,0,0,1.24.59.59,0,0,0,.27.29.73.73,0,0,0,.5-.06,7.13,7.13,0,0,0,2.43-2c.32-.36,1.19-1.06.73-1.51S628.81,123.73,628.37,123.91Z" transform="translate(0 0)"/><path class="cls-22" d="M680.16,100.08a1.44,1.44,0,0,0,0,1.46,1.62,1.62,0,0,0,.76.52,3.43,3.43,0,0,0,2.61-.21c.81-.55,0-1.8-.33-2.42a1,1,0,0,0-.14-.21.73.73,0,0,0-.26-.14A2.19,2.19,0,0,0,680.16,100.08Z" transform="translate(0 0)"/><path class="cls-22" d="M673.84,100.35a8.33,8.33,0,0,0-2.29.22,1.65,1.65,0,0,0-1.21,1.74.67.67,0,0,0,.26.43,1,1,0,0,0,.44.13,14.67,14.67,0,0,0,4.13.15c1-.15,3-.79,1.85-2.15a2.14,2.14,0,0,0-1.51-.63A13.51,13.51,0,0,0,673.84,100.35Z" transform="translate(0 0)"/><path class="cls-22" d="M664.14,102.33a3.91,3.91,0,0,0-1.14.56,1.49,1.49,0,0,0-.62,1.07.55.55,0,0,0,.1.39.72.72,0,0,0,.46.2,7.35,7.35,0,0,0,3.09-.49c.46-.15,1.56-.32,1.39-.94s-1.24-1-1.72-1.06A3.37,3.37,0,0,0,664.14,102.33Z" transform="translate(0 0)"/><path class="cls-22" d="M661.58,130.73a1.53,1.53,0,0,0-.32.86,3.39,3.39,0,0,0,.82,2.48c.73.66,1.76-.4,2.28-.9a1,1,0,0,0,.16-.19.65.65,0,0,0,.08-.28,2.19,2.19,0,0,0-1.6-2.33A1.43,1.43,0,0,0,661.58,130.73Z" transform="translate(0 0)"/><path class="cls-22" d="M658.12,121.72a.89.89,0,0,0,0,.46,14.33,14.33,0,0,0,.84,4c.39.93,1.49,2.74,2.53,1.27a2,2,0,0,0,.25-1.61,12.74,12.74,0,0,0-.5-1.59,8.21,8.21,0,0,0-.78-2.18,1.65,1.65,0,0,0-2-.76A.72.72,0,0,0,658.12,121.72Z" transform="translate(0 0)"/><path class="cls-22" d="M654.61,114.22a.67.67,0,0,0-.09.5,7.41,7.41,0,0,0,1.22,2.88c.25.41.69,1.45,1.24,1.13s.67-1.45.62-1.92a3.39,3.39,0,0,0-.63-1.46,4.06,4.06,0,0,0-.82-1A1.53,1.53,0,0,0,655,114,.57.57,0,0,0,654.61,114.22Z" transform="translate(0 0)"/><path class="cls-23" d="M656.06,62.2a1.74,1.74,0,0,1,1.49-.23c-.51-2.56-1.15-4.08-2-3.7-3.47,1.59-9.39,29.55-12.17,32.18-2.44,2.3-8.26-.16-17.91-3.46-6.05-2.07-9.78-2.95-11.91-2.86,1.77.77,4.84,2.1,8.75,3.72,6.3,2.62,19.78,7.27,22.39,5.94S654.16,63.28,656.06,62.2Z" transform="translate(0 0)"/><path class="cls-23" d="M660.69,92.22a53.15,53.15,0,0,1-1.08-8.85c-.32,4.22-.65,10.83.32,12.48,1.45,2.47,13,1.28,19.33.79a77.12,77.12,0,0,1,14.09.67l.31-.21c-1.56-.83-4.9-1.16-10.8-1.39C669.6,95.18,662.27,96.94,660.69,92.22Z" transform="translate(0 0)"/><path class="cls-20" d="M117.67,319.67c.12-1.28,2.4-1.78,8.75-1.59s10.25.57,11.28-1.25c1.17-2.07-.46-19.77,1.31-21.35s7.48,16.71,9.29,19.23,5.84.11,13.82-2c6.54-1.74,8-1.73,7.61.79s-15.32,9.76-16.07,12.81,10.56,14.36,9.87,17-13.32-8-17.25-8-16,14.6-17.81,13.45,9.2-15.72,8.15-20.08C136.08,326.47,117.33,323.2,117.67,319.67Z" transform="translate(0 0)"/><path class="cls-21" d="M162.12,312.7c-8,2.12-12,4.52-13.82,2s-7.51-20.81-9.29-19.23-.14,19.28-1.31,21.35c-1,1.82-4.94,1.43-11.28,1.24-4.77-.13-7.24.12-8.23.79,4.1,2.87,17.3,5.47,17.75,7.34a4.32,4.32,0,0,1-.06,1.77c.41.25.68.5.74.74.79,3.31-5.34,12.49-7.56,17.23,3.68-2.23,13.14-13.09,16.54-13.11,3.84,0,16,10.12,17.18,8.13-2.44-4.32-9.72-12.19-9.12-14.66l0,0a4.09,4.09,0,0,1-.7-2.48c.7-2.85,13.76-9.35,15.81-12.25C167.71,311.33,165.66,311.76,162.12,312.7Z" transform="translate(0 0)"/><path class="cls-22" d="M143.81,315.56a.58.58,0,0,0,.12-.1.42.42,0,0,0,.09-.16,1.38,1.38,0,0,0-.69-1.62.9.9,0,0,0-.91.05,1,1,0,0,0-.31.48,2.18,2.18,0,0,0,.2,1.62C142.67,316.32,143.43,315.8,143.81,315.56Z" transform="translate(0 0)"/><path class="cls-22" d="M141.42,307.81a.64.64,0,0,0-.07.27,9.29,9.29,0,0,0,0,2.58c.13.62.57,1.85,1.39,1.09a1.3,1.3,0,0,0,.35-.95,7.34,7.34,0,0,0-.11-1,5.18,5.18,0,0,0-.2-1.42,1,1,0,0,0-1.11-.71A.48.48,0,0,0,141.42,307.81Z" transform="translate(0 0)"/><path class="cls-22" d="M140.45,302.73a.42.42,0,0,0-.24.07.44.44,0,0,0-.11.29,4.5,4.5,0,0,0,.38,1.91c.11.28.24,1,.62.84s.59-.79.61-1.09a2.06,2.06,0,0,0-.2-1,2.58,2.58,0,0,0-.38-.69A1,1,0,0,0,140.45,302.73Z" transform="translate(0 0)"/><path class="cls-22" d="M134.2,321.58a.87.87,0,0,0-.27.87,1,1,0,0,0,.35.45,2.11,2.11,0,0,0,1.58.37c.59-.17.36-1.06.27-1.5a.44.44,0,0,0,0-.15.49.49,0,0,0-.12-.13A1.38,1.38,0,0,0,134.2,321.58Z" transform="translate(0 0)"/><path class="cls-22" d="M132.18,321.45a1.3,1.3,0,0,0-.77-.66,8.28,8.28,0,0,0-1-.25,5.23,5.23,0,0,0-1.4-.3,1,1,0,0,0-1,.8.41.41,0,0,0,.08.3.6.6,0,0,0,.23.16,9.25,9.25,0,0,0,2.42.88C131.3,322.48,132.62,322.48,132.18,321.45Z" transform="translate(0 0)"/><path class="cls-22" d="M125.26,320a2.17,2.17,0,0,0-1-.14,2.5,2.5,0,0,0-.78.12.92.92,0,0,0-.57.52.33.33,0,0,0,0,.24.45.45,0,0,0,.24.21,4.45,4.45,0,0,0,1.92.29c.3,0,1,.11,1-.28S125.52,320.14,125.26,320Z" transform="translate(0 0)"/><path class="cls-22" d="M142.33,331.22c.1-.6-.81-.76-1.24-.86a.47.47,0,0,0-.16,0,.34.34,0,0,0-.17.05,1.36,1.36,0,0,0-.66,1.63.9.9,0,0,0,.67.62,1,1,0,0,0,.56-.13A2.13,2.13,0,0,0,142.33,331.22Z" transform="translate(0 0)"/><path class="cls-22" d="M139.14,333.8a1.3,1.3,0,0,0-.92.42,10.15,10.15,0,0,0-.66.81,5.56,5.56,0,0,0-.86,1.15,1,1,0,0,0,.28,1.28.43.43,0,0,0,.31.07.75.75,0,0,0,.24-.15,9.28,9.28,0,0,0,1.82-1.83C139.7,335,140.26,333.84,139.14,333.8Z" transform="translate(0 0)"/><path class="cls-22" d="M134.92,339.48a2,2,0,0,0-.54.83,2.47,2.47,0,0,0-.22.76.92.92,0,0,0,.23.73.37.37,0,0,0,.22.12.41.41,0,0,0,.28-.13,4.39,4.39,0,0,0,1.08-1.62c.13-.27.51-.85.16-1S135.15,339.29,134.92,339.48Z" transform="translate(0 0)"/><path class="cls-22" d="M161.32,315.79a.9.9,0,0,0,.27.87.94.94,0,0,0,.55.17,2.11,2.11,0,0,0,1.51-.61c.38-.47-.32-1.07-.64-1.37a.41.41,0,0,0-.13-.1.33.33,0,0,0-.17,0A1.37,1.37,0,0,0,161.32,315.79Z" transform="translate(0 0)"/><path class="cls-22" d="M157.61,317.11a5.76,5.76,0,0,0-1.32.56,1,1,0,0,0-.4,1.26.41.41,0,0,0,.23.2.57.57,0,0,0,.29,0,8.85,8.85,0,0,0,2.48-.67c.57-.27,1.65-1,.7-1.62a1.35,1.35,0,0,0-1-.1C158.25,316.83,157.94,317,157.61,317.11Z" transform="translate(0 0)"/><path class="cls-22" d="M152.21,320.08a2.3,2.3,0,0,0-.58.54,1,1,0,0,0-.17.75.36.36,0,0,0,.13.21.47.47,0,0,0,.31,0,4.55,4.55,0,0,0,1.75-.86c.25-.17.87-.48.65-.81s-.92-.37-1.21-.32A2,2,0,0,0,152.21,320.08Z" transform="translate(0 0)"/><path class="cls-22" d="M155.91,337.42a1,1,0,0,0,0,.58,2.12,2.12,0,0,0,1,1.32c.55.26,1-.56,1.18-.95a.47.47,0,0,0,.06-.15.37.37,0,0,0,0-.18,1.37,1.37,0,0,0-1.38-1.09A.9.9,0,0,0,155.91,337.42Z" transform="translate(0 0)"/><path class="cls-22" d="M152.2,332.71a.52.52,0,0,0,.07.27,9.2,9.2,0,0,0,1.24,2.26c.41.48,1.39,1.35,1.74.29a1.33,1.33,0,0,0-.14-1,10,10,0,0,0-.6-.85,5.16,5.16,0,0,0-.86-1.15,1,1,0,0,0-1.31-.09A.38.38,0,0,0,152.2,332.71Z" transform="translate(0 0)"/><path class="cls-22" d="M148.73,328.9a.48.48,0,0,0,0,.31A4.6,4.6,0,0,0,150,330.7c.22.2.67.73.94.44s.13-1,0-1.25a2.15,2.15,0,0,0-.65-.76,2.55,2.55,0,0,0-.66-.42.94.94,0,0,0-.77,0A.35.35,0,0,0,148.73,328.9Z" transform="translate(0 0)"/><path class="cls-23" d="M140,297.71a1.07,1.07,0,0,1,.84-.4c-.77-1.43-1.43-2.22-1.86-1.83-1.77,1.58-.14,19.28-1.31,21.35-1,1.82-4.94,1.43-11.28,1.24-4-.11-6.36.05-7.61.49,1.2.14,3.26.36,5.89.61,4.22.39,13.09.68,14.39-.59S139.1,298.71,140,297.71Z" transform="translate(0 0)"/><path class="cls-23" d="M148.3,314.71a33.46,33.46,0,0,1-2.27-5.06c.58,2.56,1.61,6.55,2.49,7.35,1.31,1.2,7.94-1.62,11.63-3.08a48.4,48.4,0,0,1,8.49-2.2c.05-.06.11-.12.15-.18-1.08-.21-3.13.22-6.67,1.16C154.14,314.82,150.11,317.22,148.3,314.71Z" transform="translate(0 0)"/></g></svg>