<svg id="Слой_1" data-name="Слой 1" xmlns="http://www.w3.org/2000/svg" viewBox="0 0 129.55 121.76"><defs><style>.cls-1{fill:none;stroke:#ca8888;stroke-miterlimit:10;stroke-width:1.96px;}.cls-2{fill:#f8ca08;}.cls-3{fill:#ae397b;}.cls-4{fill:#010101;opacity:0.15;}.cls-5{opacity:0.35;}.cls-6{fill:#fff;}</style></defs><path class="cls-1" d="M469.46,316.46s21.78-10.69,20.86-27.85-17.66-24.35-35.68-23.9-18.21,7.53-25.41-4.06S384.13,230,369,254c-18.61,29.49,10.3,38.61,11.68,54.9s-10.09,32.73,6.16,47.65c9.34,8.58,35.68,9.59,50.46-12S469.46,316.46,469.46,316.46Z" transform="translate(-361.78 -241.48)"/><path class="cls-2" d="M447.56,255.69a53.36,53.36,0,1,0,22.19,72.13A53.36,53.36,0,0,0,447.56,255.69ZM408.76,329a29.55,29.55,0,1,1,39.94-12.28A29.56,29.56,0,0,1,408.76,329Z" transform="translate(-361.78 -241.48)"/><path class="cls-3" d="M466.32,272.27l-19.69,13.4A29.58,29.58,0,0,1,452,299.92l23.95,1.78A53.63,53.63,0,0,0,466.32,272.27Z" transform="translate(-361.78 -241.48)"/><path class="cls-3" d="M378,332.11l19.69-13.41a29.71,29.71,0,0,1-4.55-14L369.22,303A53.59,53.59,0,0,0,378,332.11Z" transform="translate(-361.78 -241.48)"/><path class="cls-3" d="M452.37,347.14,439,327.45a29.71,29.71,0,0,1-14.6,4.9l-1.77,23.86A53.63,53.63,0,0,0,452.37,347.14Z" transform="translate(-361.78 -241.48)"/><path class="cls-3" d="M392.52,258.77l13.4,19.68a29.68,29.68,0,0,1,13.61-5l1.78-23.95A53.63,53.63,0,0,0,392.52,258.77Z" transform="translate(-361.78 -241.48)"/><path class="cls-4" d="M475.93,304.83c-2.63,17.2-15.11,44-45.35,46.08-40.52,2.74-56.93-30-60.07-36.47a53.37,53.37,0,0,0,105.42-9.61Z" transform="translate(-361.78 -241.48)"/><path class="cls-4" d="M396.47,289a29.55,29.55,0,0,1,55.42,10,29.69,29.69,0,1,0-58.62,7.47A29.48,29.48,0,0,1,396.47,289Z" transform="translate(-361.78 -241.48)"/><g class="cls-5"><path class="cls-6" d="M396.78,266a2.56,2.56,0,0,0-2.53-2.44,6.25,6.25,0,0,0-2.92.88,4.56,4.56,0,0,0-1,.77,21,21,0,0,0-2.53,1.7,31.45,31.45,0,0,0-6.58,6.9c-4.13,5.77-6.39,12.64-8.37,19.39a1.86,1.86,0,0,0-.06.45,7.08,7.08,0,0,0-.29,2.86,14.91,14.91,0,0,0-.15,3.34,11.66,11.66,0,0,0,.94,5.65c1.13,2.17,3.94,2.76,5.39.53a9.62,9.62,0,0,0,1-3.14c.34-1.48.68-2.95,1-4.43a74.85,74.85,0,0,1,5.27-16,35.35,35.35,0,0,1,5.16-7.75c2-2.3,4.26-4.49,5.58-7.31A1.58,1.58,0,0,0,396.78,266Z" transform="translate(-361.78 -241.48)"/><path class="cls-6" d="M420.77,254.62c-2.29-1.68-5.79-1.2-8.41-.77a15.15,15.15,0,0,0-6.55,2.59,3.51,3.51,0,0,0-2.13,2.26,1,1,0,0,0,0,.18,2.22,2.22,0,0,0,1.89,3.25,5.87,5.87,0,0,0,2.07-.45c.89-.3,1.77-.57,2.67-.83,1.6-.46,3.21-.87,4.84-1.21a25.18,25.18,0,0,0,4.86-1.19,2.71,2.71,0,0,0,1.7-1.49A2,2,0,0,0,420.77,254.62Z" transform="translate(-361.78 -241.48)"/><path class="cls-6" d="M460.36,270.8a7.33,7.33,0,0,0-1.77-3.15c-.86-1.15-1.69-2.33-2.64-3.41a27.45,27.45,0,0,0-6.44-4.75,38.67,38.67,0,0,0-8.19-4c-2.09-.68-5.47-1.61-7.76-.68a2.36,2.36,0,0,0-2.18,1.75c-.67,2.3,1.39,4.18,3.28,5,2.33,1.05,4.9,1.62,7.31,2.47a36.2,36.2,0,0,1,7.36,3.42,48.29,48.29,0,0,1,6.49,5.55,2.71,2.71,0,0,0,3,.77A2.8,2.8,0,0,0,460.36,270.8Z" transform="translate(-361.78 -241.48)"/><path class="cls-6" d="M386.57,325l-1.83-2.62c-.61-.87-1.22-1.74-1.82-2.62a7.66,7.66,0,0,0-2.14-2.42,2.71,2.71,0,0,0-1.7-.45,1.93,1.93,0,0,0-1.56,1.36,4.47,4.47,0,0,0,0,3.06,17.09,17.09,0,0,0,3,5c1.16,1.43,3.06,3,5,2.92a4.6,4.6,0,0,0,.84.14A1.54,1.54,0,0,0,388,328C388.09,326.85,387.15,325.87,386.57,325Z" transform="translate(-361.78 -241.48)"/><path class="cls-6" d="M472.31,298.81a42.38,42.38,0,0,0-4.49-15.43c-1-2.45-2.91-6.57-5.15-4-1,1.17-.43,2.47.15,3.66a36.45,36.45,0,0,1,2,5,49.57,49.57,0,0,1,1.5,20.24c-.21,1.8-.49,3.58-.82,5.35-.29,1.51-1.09,3.4-.64,4.93a2.33,2.33,0,0,0,3.19,1.5c1.26-.61,1.67-2.5,2.09-3.69A41.27,41.27,0,0,0,472.31,298.81Z" transform="translate(-361.78 -241.48)"/><path class="cls-6" d="M422.6,335.48a1.8,1.8,0,0,0-1.19-.6l-6.65-.8a6.46,6.46,0,0,1-2.61-.55c-1-.61-1.94-1.61-3.17-.87a1.73,1.73,0,0,0-.66.76l0,0a1.61,1.61,0,0,0,0,1.6,2.63,2.63,0,0,0,.77.93,15.33,15.33,0,0,0,2.5,1.63,16.08,16.08,0,0,0,5.76,1.64,12.1,12.1,0,0,0,3.29-.11,3.33,3.33,0,0,0,2.54-2.06A1.34,1.34,0,0,0,422.6,335.48Z" transform="translate(-361.78 -241.48)"/><path class="cls-6" d="M451.12,320.61a1.42,1.42,0,0,0-1.08.13c-1.42.18-2.23,1.19-3.12,2.24a34.2,34.2,0,0,1-2.94,3.08,32.93,32.93,0,0,1-6.83,4.82c-1.23.65-3.66,1.2-3.21,3a2,2,0,0,0,1.89,1.47,6.15,6.15,0,0,0,2.39-.83c2.92-1.3,5.95-2.46,8.47-4.46a17.67,17.67,0,0,0,5.48-7.64A1.52,1.52,0,0,0,451.12,320.61Z" transform="translate(-361.78 -241.48)"/></g></svg>