<svg id="Слой_1" data-name="Слой 1" xmlns="http://www.w3.org/2000/svg" viewBox="0 0 172.78 224.6"><defs><style>.cls-1,.cls-8{fill:#010101;}.cls-2{fill:#322a2d;}.cls-3{fill:#ffeb89;}.cls-4{fill:#59b571;}.cls-5{fill:#dc4040;}.cls-6{fill:#de5456;}.cls-12,.cls-7{fill:#fff;}.cls-11,.cls-7{opacity:0.31;}.cls-8{opacity:0.15;}.cls-9{fill:#2b6c67;}.cls-10{fill:#621313;}.cls-11{fill:#00865f;}</style></defs><path class="cls-1" d="M370.78,270.55l2.5-2.36-.13.27-.73,1.58c-.19.4.19,1,.66.71a5.28,5.28,0,0,0,1.73-2.25,5,5,0,0,1,2.44-2.36,20.55,20.55,0,0,1,6.57-1.51c2.3-.25,4.59-.44,6.88-.76,1.2-.17,2.4-.36,3.59-.55a7.26,7.26,0,0,0,3-.79,2.42,2.42,0,0,0,.67-2.72,1.16,1.16,0,0,0-1.32-.84.41.41,0,0,0-.41-.08,93.36,93.36,0,0,1-14.11,3,19.88,19.88,0,0,1-6.62-.23,13.66,13.66,0,0,1-3-1.06,3.17,3.17,0,0,0-2.4-.5.51.51,0,0,0,0,1,16.92,16.92,0,0,1,3.36,1.91,3.78,3.78,0,0,1-1.35.41,15.52,15.52,0,0,0-1.8.37,14.52,14.52,0,0,0-3.22,1.31.51.51,0,0,0-.14.79c.63.66,1.45.36,2.2.1,1.07-.38,2.17-.87,3.27-1.14.14,0,.5-.17.61,0s-.29.53-.43.6c-.45.24-1,.36-1.45.56a13.09,13.09,0,0,0-2.82,1.65c-.47.36.09,1,.58.82,1.18-.54,2.38-1,3.6-1.43-1,.92-2.14,1.69-2.61,3.05A.51.51,0,0,0,370.78,270.55Z" transform="translate(-343.54 -171.79)"/><path class="cls-1" d="M513,271.35c-.41-1.38-1.54-2.19-2.48-3.16,1.2.49,2.38,1,3.54,1.59.48.24,1.07-.42.61-.79a13.08,13.08,0,0,0-2.75-1.78c-.46-.22-1-.36-1.42-.62-.13-.08-.58-.38-.4-.62s.47,0,.61,0c1.09.32,2.16.86,3.21,1.28.74.29,1.55.63,2.21,0a.51.51,0,0,0-.1-.79A14.92,14.92,0,0,0,512.9,265c-.58-.19-1.18-.32-1.77-.45a3.76,3.76,0,0,1-1.34-.47,17.18,17.18,0,0,1,3.44-1.76.51.51,0,0,0,0-1,3.19,3.19,0,0,0-2.42.4,13.28,13.28,0,0,1-3,.93,19.88,19.88,0,0,1-6.62-.05,93.55,93.55,0,0,1-14-3.58.46.46,0,0,0-.42.06,1.16,1.16,0,0,0-1.35.78,2.41,2.41,0,0,0,.55,2.75,7.15,7.15,0,0,0,3,.92c1.19.25,2.37.49,3.56.71,2.28.42,4.56.7,6.84,1.06a20.66,20.66,0,0,1,6.51,1.79,5,5,0,0,1,2.33,2.47,5.26,5.26,0,0,0,1.63,2.32c.46.32.86-.27.69-.68l-.66-1.61-.12-.28,2.4,2.47A.51.51,0,0,0,513,271.35Z" transform="translate(-343.54 -171.79)"/><path class="cls-2" d="M450.94,389.14c0-1.32-.05-2.65-.09-4q-.28-8.82-1.2-17.59a.53.53,0,0,0-.5-.5c-1.47-.19-3.15-.37-4.45.5a3,3,0,0,0-1.37,3.17.5.5,0,0,0,.78.26,69.4,69.4,0,0,1,1.8,14.57c0,1.89.35,4.71-1.5,5.92-1.33.86-3,.86-4.41,1.65a3,3,0,0,0-1.44,1.62,1.18,1.18,0,0,0,1.07,1.62,10,10,0,0,0,1.64-.18l2-.25,3.93-.5c.94-.12,2.13-.08,2.87-.77a3.3,3.3,0,0,0,.88-2.16A27.38,27.38,0,0,0,450.94,389.14Z" transform="translate(-343.54 -171.79)"/><path class="cls-2" d="M343.56,357.44a12.79,12.79,0,0,0,4.36,6.79,7.36,7.36,0,0,0,6.73,1.2,33.19,33.19,0,0,0,7.26-3.6,59.05,59.05,0,0,0,12.68-10.31.4.4,0,0,0,.29.09.57.57,0,0,0,.56-.56,13.67,13.67,0,0,0-4.13-8.32.58.58,0,0,0-1,.43.57.57,0,0,0-.22.26,32.59,32.59,0,0,1-4.43,7.78c-1.54,2.08-3.26,4-5,6s-3.28,3.89-5.66,4.63a4.65,4.65,0,0,1-3.46-.13,8.06,8.06,0,0,1-2.5-2.5c-1.2-1.53-3.05-3.19-5.15-2.43A.57.57,0,0,0,343.56,357.44Z" transform="translate(-343.54 -171.79)"/><path class="cls-3" d="M359.14,338.86a2.57,2.57,0,0,0,1.1,1.75c.6.51,1.21,1,1.82,1.5q1.9,1.56,3.89,3a131,131,0,0,0,16.77,10.67,136.74,136.74,0,0,0,37.22,13.38,134.48,134.48,0,0,0,39.48,2.12c14-1.36,28.4-4.78,40.65-12a60.63,60.63,0,0,0,8.84-6.26,9.71,9.71,0,0,0,2.83-3.47,7.5,7.5,0,0,0-.14-5c-2.28-8.08-4.66-16.13-7-24.2a.51.51,0,0,0-.17-.25.54.54,0,0,0-.83-.37,13.09,13.09,0,0,1-3.05,1.61c-4.4,1.62-9.17.35-13.67-.1a117.28,117.28,0,0,0-13.39-.53A247,247,0,0,0,446.76,323c-9,1.12-18,2.38-27,3.06a129.31,129.31,0,0,1-27.11-.5c-4.66-.63-9.27-1.54-13.87-2.51-3.35-.71-7.24-1.83-10.52-.5a.43.43,0,0,0-.22.1c-.43.19,2.22-3.11,1.81-2.82a33.87,33.87,0,0,0-2.91,4.38c-.94,1.38-1.89,2.76-2.78,4.18a19.61,19.61,0,0,0-1.49,2.78c-1.36,2.07-2.82,4.19-3.27,6.67A2.22,2.22,0,0,0,359.14,338.86Z" transform="translate(-343.54 -171.79)"/><path class="cls-4" d="M359.39,337.82c.45-2.48,1.91-4.6,3.27-6.67.2-.46.42-.91.66-1.36a92.27,92.27,0,0,0,15.25,8.84,151.22,151.22,0,0,0,29.24,9.68,157.67,157.67,0,0,0,34.8,4.42,142.69,142.69,0,0,0,33.95-3.94,141.17,141.17,0,0,0,32-11.93c.24-.12.47-.25.7-.38.78,2.71,1.57,5.41,2.33,8.12a7.5,7.5,0,0,1,.14,5,9.71,9.71,0,0,1-2.83,3.47,60.63,60.63,0,0,1-8.84,6.26c-12.25,7.2-26.61,10.62-40.65,12a134.48,134.48,0,0,1-39.48-2.12,136.74,136.74,0,0,1-37.22-13.38A131,131,0,0,1,366,345.15q-2-1.48-3.89-3c-.61-.5-1.22-1-1.82-1.5a2.57,2.57,0,0,1-1.1-1.75A2.22,2.22,0,0,1,359.39,337.82Z" transform="translate(-343.54 -171.79)"/><path class="cls-5" d="M422.93,229.19a25.16,25.16,0,0,0-.57-9.89c-.83-3.12-3.09-6.4-6.71-6.15a.52.52,0,0,0-.29.89,6.56,6.56,0,0,1,.1,9,.5.5,0,0,0,.16.78,3.35,3.35,0,0,1-1.46,6.4c-.25,0-1.45.07-1.26,1.13.31,1.72,1.34,2.93.88,4.64a6.2,6.2,0,0,1-2.19,3.26,6.13,6.13,0,0,1-3.81,1.22,5.76,5.76,0,0,0-1.18-.11c-.5,0-.41,0-.61.1a3.67,3.67,0,0,0-1.78,2s.22-.29.21-.26h0l-.11.12a.54.54,0,0,0,.39.85,3.84,3.84,0,0,0,2.37,1.7,5.46,5.46,0,0,0,3.83-.58,18.52,18.52,0,0,0,3.84-2.82c1.29-1.13,2.52-2.34,3.73-3.56a15.25,15.25,0,0,0,3-3.74A15.83,15.83,0,0,0,422.93,229.19Z" transform="translate(-343.54 -171.79)"/><path class="cls-6" d="M367.74,324.2c.86.64,1.73,1.26,2.61,1.87a90.4,90.4,0,0,0,23.41,11.56A118.4,118.4,0,0,0,420,342.88c11.19.94,24.63,1.31,34.54-.06a162.41,162.41,0,0,0,28.67-6.35,117.88,117.88,0,0,0,12.95-4.61c4.1-1.83,7.08-2.06,10.14-5.46.09-.1-1.75-5.57-1.76-5.67a.41.41,0,0,0,.16-.46c-.72-2.68-1.43-5.37-2.15-8-2.94-10.93-5.93-21.84-9.1-32.71s-6.49-21.55-10.13-32.2-7.59-21.26-12-31.67q-3.29-7.8-6.88-15.46c-2.43-5.14-4.91-10.27-7.73-15.2a71.15,71.15,0,0,0-4.26-6.72,19.59,19.59,0,0,0-4.54-4.68,9.51,9.51,0,0,0-5.84-1.78,10.47,10.47,0,0,0-5.82,2.32c-3.86,3-6.2,7.44-8.45,11.64-2.61,4.87-5,9.83-7.31,14.86-2,4.34-3.8,8.72-5.57,13.13a5.38,5.38,0,0,1,1.94.62,5,5,0,0,1,2.3,2.82,5,5,0,0,1-2,5.61,4.52,4.52,0,0,1-1.4,8.77,6.6,6.6,0,0,1-.72,7.75,10.93,10.93,0,0,1-8.67,3.4,6.45,6.45,0,0,1-2.16-.48q-.93,2.4-1.93,4.77a151.11,151.11,0,0,1-7.67,15.26c-2.73,4.8-5.47,9.6-8,14.53s-4.82,9.95-7,15c-4.42,10.15-8.5,21.63-12.44,32" transform="translate(-343.54 -171.79)"/><path class="cls-7" d="M434.82,185c.7,0,1.31-.55,1.84-.93s1.32-.93,2-1.41q2.07-1.49,4.08-3a4.77,4.77,0,0,0,2.16-2.74,2.53,2.53,0,0,0-1.72-2.69,3.35,3.35,0,0,0-2.38,0,4.42,4.42,0,0,0-1.48.51,10.84,10.84,0,0,0-3.35,3.58,19.64,19.64,0,0,0-2.27,4.05C433.31,183.38,433.52,184.89,434.82,185Z" transform="translate(-343.54 -171.79)"/><path class="cls-7" d="M419.27,213a2.21,2.21,0,0,0,1.94.88c2.12-.07,3-2.42,3.84-4,1.15-2.29,2.23-4.6,3.29-6.92s2.08-4.67,3.1-7c.22-.51.56-1.15.86-1.83v0c1-1.82,2-4.37.06-6s-4,.65-4.95,2.3a31.5,31.5,0,0,0-2.27,6.1c-.73,2.38-1.58,4.73-2.53,7s-2,4.46-3.12,6.64A2.75,2.75,0,0,0,419.27,213Z" transform="translate(-343.54 -171.79)"/><path class="cls-8" d="M457.67,371.37c17.57-5.32,46.31-28.68,30.53-86.12-14.85-54-35-103.32-37.36-109a25.44,25.44,0,0,1,1.62,2,71.15,71.15,0,0,1,4.26,6.72c2.82,4.93,5.3,10.06,7.73,15.2s4.69,10.26,6.88,15.46c4.37,10.41,8.32,21,12,31.67s7,21.4,10.13,32.2,6.16,21.78,9.1,32.71c.72,2.68,1.43,5.37,2.15,8a.38.38,0,0,1,0,.28c2.32,8,4.68,16,7,24.05a7.5,7.5,0,0,1,.14,5,9.71,9.71,0,0,1-2.83,3.47,60.63,60.63,0,0,1-8.84,6.26c-12.25,7.2-26.61,10.62-40.65,12l-2.07.15Z" transform="translate(-343.54 -171.79)"/><path class="cls-2" d="M435.73,250.87a7.75,7.75,0,0,0-2.47-3.78,5.84,5.84,0,0,0-3.67-1.91c-.46,0-.86.89-.28.92a5.19,5.19,0,0,1,3.28,1.78,10.22,10.22,0,0,1,1.51,1.71,8.13,8.13,0,0,0-7.18-.39c-.48.21-.45,1.08.16.81a7.36,7.36,0,0,1,7.89,1.47C435.29,251.79,435.8,251.2,435.73,250.87Z" transform="translate(-343.54 -171.79)"/><path class="cls-2" d="M454.7,268c.77-1.45,2.49-3.94,1-5.51a1.26,1.26,0,0,0-2.19.46.72.72,0,0,0-.4.06,1.37,1.37,0,0,0-.5,1.44c.61,3.25-1.54,6.87-3.7,9.13a10.94,10.94,0,0,1-8.5,3.54,9.22,9.22,0,0,1-7-4.37.83.83,0,0,0-.14-.38c-.49-.74-.93-1.5-1.35-2.28-1-2-1.61-4.29-1-6.41a2,2,0,0,0,.41-1.9,1.37,1.37,0,0,0-.66-.83,1.23,1.23,0,0,0-1.07.1c-1.5.7-1.8,2.6-1.54,4.05a19.83,19.83,0,0,0,1.52,4.43c.33.75.7,1.47,1.09,2.18a13.91,13.91,0,0,0,5.26,6.31,10,10,0,0,0,8.93.46.49.49,0,0,0,.54.09C450.16,276.81,452.47,272.21,454.7,268Z" transform="translate(-343.54 -171.79)"/><path class="cls-2" d="M429.31,258.8a5.22,5.22,0,0,0-2.31,1.79,4.79,4.79,0,0,0-.37.58,2.37,2.37,0,0,0-.29.72.83.83,0,0,0,.48.92.46.46,0,0,0,.6-.48.79.79,0,0,0-.13-.39c.07-.13.14-.26.22-.38a4.29,4.29,0,0,1,.6-.75,4.54,4.54,0,0,1,1.6-1.05C430.18,259.58,429.78,258.61,429.31,258.8Z" transform="translate(-343.54 -171.79)"/><path class="cls-2" d="M456.74,260.85a2.08,2.08,0,0,0-2.18-.59c-.24.08-.24.44-.16.63s.31.42.56.34l.11,0c.06,0,0,0,0,0l.22,0h.25l.11,0,.19.06,0,0,.09,0,.17.11,0,0,.09.08.05.05,0,.05.05.08h0s0,.05,0,0l.07.16h0l0,.11s0,.06,0,.09h0c0,.06,0,.16,0,.23h0s0,.06,0,.1l0,.11a.31.31,0,1,0,0,0,.65.65,0,0,0,.15.71c.14.13.45.22.55,0A2.35,2.35,0,0,0,456.74,260.85Z" transform="translate(-343.54 -171.79)"/><path class="cls-9" d="M456.41,261.71a0,0,0,0,0,0,0s0,0,0,0Z" transform="translate(-343.54 -171.79)"/><path class="cls-2" d="M450.81,277.52A13.56,13.56,0,0,1,440,281.34c-.53,0-.29,1,.2,1a14.07,14.07,0,0,0,11.15-4C451.73,278,451.2,277.14,450.81,277.52Z" transform="translate(-343.54 -171.79)"/><path class="cls-10" d="M408,272.83a7.86,7.86,0,0,0-.15-2.78.4.4,0,0,0-.18-.26.51.51,0,0,0-.57-.21,7.1,7.1,0,0,0-5,6.15,2.24,2.24,0,0,0,.65,1.89,2.53,2.53,0,0,0,1.74.65,3.48,3.48,0,0,0,3-2.57A12.15,12.15,0,0,0,408,272.83Z" transform="translate(-343.54 -171.79)"/><path class="cls-10" d="M411.37,297.94a18,18,0,0,0-.06-5,.52.52,0,0,0-.59-.47.55.55,0,0,0-.57.11,12.74,12.74,0,0,0-2.75,3.36c-.68,1.12-1.61,2.47-1.11,3.84a2.26,2.26,0,0,0,2.87,1.25A3.76,3.76,0,0,0,411.37,297.94Z" transform="translate(-343.54 -171.79)"/><path class="cls-10" d="M435.51,302.61a18.71,18.71,0,0,0-.92-5.4.51.51,0,0,0-.76-.24,2.67,2.67,0,0,0-.61.5l0,0c-.05.05-.09.12-.14.17l-.12.14a0,0,0,0,1,0,0,14.21,14.21,0,0,0-2.17,3.63c-.54,1.33-1.08,3-.25,4.3a2.45,2.45,0,0,0,3.42.6A4.27,4.27,0,0,0,435.51,302.61Z" transform="translate(-343.54 -171.79)"/><path class="cls-10" d="M389,307.28c0-.45.17-1.19-.27-1.5s-.9,0-1.28.11a5.79,5.79,0,0,0-2.16,1.46,5.51,5.51,0,0,0-1.34,2.52,2.26,2.26,0,0,0,.1,1.62,1.13,1.13,0,0,0,.12.18,1.27,1.27,0,0,0,.17.35,1.8,1.8,0,0,0,2.18.35C388.47,311.47,389,309.19,389,307.28Z" transform="translate(-343.54 -171.79)"/><path class="cls-10" d="M411.86,331.5a14.73,14.73,0,0,0-.92-4.91.48.48,0,0,0-.72-.25.49.49,0,0,0-.4.06,7.4,7.4,0,0,0-2.28,3.09,4.2,4.2,0,0,0-.31,3.83,2.27,2.27,0,0,0,2.85,1.19A3.2,3.2,0,0,0,411.86,331.5Z" transform="translate(-343.54 -171.79)"/><path class="cls-10" d="M448.73,329.28a14.46,14.46,0,0,0-1-2.19c-.42-.81-.85-1.62-1.27-2.44a.4.4,0,0,0-.58-.17.43.43,0,0,0-.57.25,15.06,15.06,0,0,0-1.13,4.42,4.08,4.08,0,0,0,1,3.63,2.14,2.14,0,0,0,3-.16A3.35,3.35,0,0,0,448.73,329.28Z" transform="translate(-343.54 -171.79)"/><path class="cls-10" d="M459.28,298.82a11.28,11.28,0,0,0-2.75-3.76.41.41,0,0,0-.61,0,.5.5,0,0,0-.41.38c-.19.75-.39,1.5-.59,2.25a20.41,20.41,0,0,0-.55,2.31c-.17,1.24.14,2.76,1.43,3.29a2.78,2.78,0,0,0,3-.83A3.72,3.72,0,0,0,459.28,298.82Z" transform="translate(-343.54 -171.79)"/><path class="cls-10" d="M472.18,275.78a7.69,7.69,0,0,0-2.43-3.15.54.54,0,0,0-.85.39.5.5,0,0,0-.18.29c-.27,1.42-.58,2.84-.81,4.27a2.52,2.52,0,0,0,.25,1.79,2.83,2.83,0,0,0,1.28,1.09,2.41,2.41,0,0,0,1.78.21,2.24,2.24,0,0,0,1.18-1.24A4.68,4.68,0,0,0,472.18,275.78Z" transform="translate(-343.54 -171.79)"/><path class="cls-10" d="M485.68,317.76a2,2,0,0,0-.65-1.5c-.9-1-1.84-2-2.83-2.94a.51.51,0,0,0-.83.29,8.43,8.43,0,0,0-.28,3,6.61,6.61,0,0,0,.8,2.77,2,2,0,0,0,1.35,1,1.26,1.26,0,0,0,1,.12,1.76,1.76,0,0,0,1.1-1A4.73,4.73,0,0,0,485.68,317.76Z" transform="translate(-343.54 -171.79)"/><path class="cls-10" d="M491,293.23a12.51,12.51,0,0,0-1.89-3.46.57.57,0,0,0-.46-.21.48.48,0,0,0-.71.34,19.75,19.75,0,0,0-.47,3.51,5.3,5.3,0,0,0,.76,3.22,1.67,1.67,0,0,0,1.36.75,1.76,1.76,0,0,0,1.34-.86A3.63,3.63,0,0,0,491,293.23Z" transform="translate(-343.54 -171.79)"/><path class="cls-10" d="M485.23,263a8.81,8.81,0,0,0-1.06-1.52l-1.41-1.79a.59.59,0,0,0-.17-.15.5.5,0,0,0-.33-.23.5.5,0,0,0-.59.4c-.11,1.29-.29,2.6-.31,3.9a3.16,3.16,0,0,0,1.33,2.87,1.87,1.87,0,0,0,2.59-.62A2.84,2.84,0,0,0,485.23,263Z" transform="translate(-343.54 -171.79)"/><path class="cls-10" d="M414.11,247.1a18.68,18.68,0,0,0,.18-2.48,2.22,2.22,0,0,0-.16-1.2.56.56,0,0,0-.91,0s0,0,0,.06a.6.6,0,0,0-.21.13,25.69,25.69,0,0,0-2.83,3.49c-.65,1-1.43,2.23-.77,3.39a2.14,2.14,0,0,0,3.12.43C413.67,250,413.92,248.48,414.11,247.1Z" transform="translate(-343.54 -171.79)"/><path class="cls-10" d="M470.26,237.46a18.07,18.07,0,0,0-1.6-1.9c-.25-.26-.57-.69-1-.75a.55.55,0,0,0-.67.61l0,.07a.41.41,0,0,0-.06.23,24.1,24.1,0,0,0,.39,4.49c.2,1.14.52,2.59,1.8,3a2.13,2.13,0,0,0,2.54-1.85C472,239.86,471.08,238.58,470.26,237.46Z" transform="translate(-343.54 -171.79)"/><path class="cls-10" d="M441,226.38a10.22,10.22,0,0,0-.23-4.4.47.47,0,0,0-.79-.19.54.54,0,0,0-.38.15,10.56,10.56,0,0,0-2.27,3c-.53,1.07-1.13,2.48-.71,3.67a1.85,1.85,0,0,0,2.76,1C440.45,229,440.81,227.53,441,226.38Z" transform="translate(-343.54 -171.79)"/><path class="cls-10" d="M459.32,207.73a10.46,10.46,0,0,0-2.29-3c-.43-.44-1,.22-.71.68a.49.49,0,0,0-.06.17c-.11,1.21-.18,2.43-.2,3.65a2.69,2.69,0,0,0,1.16,2.68,1.71,1.71,0,0,0,2.3-1.15A4.09,4.09,0,0,0,459.32,207.73Z" transform="translate(-343.54 -171.79)"/><path class="cls-10" d="M435.58,201.8a6.81,6.81,0,0,0-.18-1.2c-.08-.36-.16-.93-.54-1.1s-.82.18-1.13.45a5.94,5.94,0,0,0-2.71,3.27,4,4,0,0,0-.39,2.76,2.21,2.21,0,0,0,1.56,1.53c1.73.37,2.71-1.74,3.1-3.06A7.43,7.43,0,0,0,435.58,201.8Z" transform="translate(-343.54 -171.79)"/><path class="cls-10" d="M450.75,186.62a18.93,18.93,0,0,0-2.13-3.87.52.52,0,0,0-.92.19c-.07.24-.13.48-.2.72,0,0,0,0,0,.06l-.62,2.06a14.33,14.33,0,0,0-.45,1.71,2.7,2.7,0,0,0,1.12,2.89,2.36,2.36,0,0,0,3-.46A3.12,3.12,0,0,0,450.75,186.62Z" transform="translate(-343.54 -171.79)"/><path class="cls-10" d="M389.81,284.16a.77.77,0,0,0-.58-.83.82.82,0,0,0-.64.17s0,0-.07,0l-.1.09-.25.21A14,14,0,0,0,386,286a7.47,7.47,0,0,0-.91,1.26,2.28,2.28,0,0,0-.18,2.09,1.7,1.7,0,0,0,1.81.91c1.66-.26,2.26-2.14,2.65-3.53A11,11,0,0,0,389.81,284.16Z" transform="translate(-343.54 -171.79)"/><path class="cls-10" d="M374,318.43a5.92,5.92,0,0,0-.06-1.26.66.66,0,0,0-1.05-.45,7.11,7.11,0,0,0-1.83,1.67,6.15,6.15,0,0,0-1.29,2.48,2.33,2.33,0,0,0,0,1.05,1.83,1.83,0,0,0,.4,1.61,1.5,1.5,0,0,0,2.13-.2,6.11,6.11,0,0,0,1.22-2.34A9.25,9.25,0,0,0,374,318.43Z" transform="translate(-343.54 -171.79)"/><path class="cls-7" d="M414.13,252.22s3.39-3.9-1.82-6.59-12.26,10-15.41,18.56-14.46,30.95-16.19,36.24-9.46,16.39-10,19.94,3.43,8.36,11.21,1.68,14.72-31.1,20.19-44.26S414.13,252.22,414.13,252.22Z" transform="translate(-343.54 -171.79)"/><path class="cls-11" d="M369.13,346.83a3.62,3.62,0,0,1,2.24-1.07,22.07,22.07,0,0,0,2.44-.18,2.66,2.66,0,0,0,1.8-1.16,4.84,4.84,0,0,0,.4-2.79,3.84,3.84,0,0,1,1.11-3.07,4.49,4.49,0,0,1,.46-.41,96.19,96.19,0,0,1-8.71-4.71l-.35.39a5.54,5.54,0,0,0-1,2.1,12.65,12.65,0,0,0-.14,2.82,2.73,2.73,0,0,1-.46,1.62,3.34,3.34,0,0,1-1.15.81,9.77,9.77,0,0,0-2.2,1.51c-.11.1-.2.22-.3.33.91.72,1.81,1.44,2.73,2.13s1.9,1.38,2.86,2.06C368.92,347.09,369,347,369.13,346.83Z" transform="translate(-343.54 -171.79)"/><path class="cls-11" d="M391.05,358.06a6.36,6.36,0,0,1,1.53-.85,10.47,10.47,0,0,0,1.58-.53c1.12-.68.91-2.37.82-3.48-.18-2.45-1-5.75,1.09-7.67a1.57,1.57,0,0,1,.32-.24q-4.49-1.35-8.88-3a3.06,3.06,0,0,0-.39,1.25c-.16,1.8,1,3.35,1.05,5.11,0,1.17-.88,1.67-1.73,2.27a6.87,6.87,0,0,0-2,2.2,9.63,9.63,0,0,0-1.11,3c2.11,1.12,4.27,2.17,6.44,3.18h0A6.89,6.89,0,0,1,391.05,358.06Z" transform="translate(-343.54 -171.79)"/><path class="cls-11" d="M420.31,351.87a7.27,7.27,0,0,0,1-.93c-3.67-.57-7.33-1.27-11-2.07a4,4,0,0,0-.95.46,4.29,4.29,0,0,0-1.79,2.73c-.39,2.08.72,4.05,1.3,6a4.11,4.11,0,0,1,0,3c-.52,1.12-1.68,1.79-2.29,2.86a4.68,4.68,0,0,0-.56,1.74h0q3.8,1.19,7.67,2.16a5.91,5.91,0,0,1,2-2.67,5.37,5.37,0,0,0,2.24-2.76,7.63,7.63,0,0,0-.26-3.58,6.62,6.62,0,0,1,.06-4.15A6.94,6.94,0,0,1,420.31,351.87Z" transform="translate(-343.54 -171.79)"/><path class="cls-11" d="M442,365.84a12.24,12.24,0,0,0,1.42-3.59,4.4,4.4,0,0,0-1-3.54c-.91-1.11-2.9-2.58-2.18-4.24.29-.66.87-1.14,1.21-1.77q-3.69,0-7.37-.3a3,3,0,0,0-1.15,1.49c-.68,2.13,1,3.84,1.36,5.83a4.76,4.76,0,0,1-.52,3.07,15.16,15.16,0,0,1-2.09,2.37,3.5,3.5,0,0,0-.91,2.33c.06,1,.8,1.51,1.36,2.23a3.82,3.82,0,0,1,.67,1.43h0c1.48.16,3,.29,4.45.4h.09c1.49.11,3,.19,4.47.25a4.32,4.32,0,0,1-1-2.5A8.65,8.65,0,0,1,442,365.84Z" transform="translate(-343.54 -171.79)"/><path class="cls-11" d="M463.12,370.91c1.08-.14,2.16-.28,3.24-.44h0a4.85,4.85,0,0,1,.36-2.27c.72-1.94,2-4.19.66-6.17a19.1,19.1,0,0,0-2.55-2.37c-1.08-1.11-.91-2.53-.4-3.87s1.57-3.25,1.63-4.91c-3.4.55-6.81,1-10.24,1.29a6.86,6.86,0,0,1,.09.9,3.89,3.89,0,0,1-.53,2.08,17.93,17.93,0,0,0-1.22,1.77c-1.23,2.69,1.82,4.36,3.16,6.14,1.9,2.51-1.21,4.86-1.81,7.25a4.44,4.44,0,0,0-.11,1.31q2-.12,4-.3c1.1-.11,2.21-.23,3.31-.37Z" transform="translate(-343.54 -171.79)"/><path class="cls-11" d="M487.48,345.68q-4.78,1.56-9.66,2.78a2.81,2.81,0,0,0,0,.87c.31,1.87,2.61,2.4,2.83,4.32a4.58,4.58,0,0,1-.51,2.54,19.85,19.85,0,0,0-1.47,2.47c-.55,1.68.6,3.15,1.53,4.43a7.34,7.34,0,0,1,1.5,4.06c2.89-.85,5.73-1.83,8.52-3a7.17,7.17,0,0,0-.87-.94c-1-.9-2.59-2.09-1.55-3.55a9.32,9.32,0,0,0,2-3.85,4.9,4.9,0,0,0-.77-3.76c-.73-1-2.09-1.81-2.33-3.11a5,5,0,0,1,.55-2.46A7.46,7.46,0,0,0,487.48,345.68Z" transform="translate(-343.54 -171.79)"/><path class="cls-11" d="M510.54,349.11a3.48,3.48,0,0,0-1.54-.45c-.62-.07-1.44,0-1.92-.49-.75-.74-.39-2.44-.36-3.38a18.17,18.17,0,0,0-.1-3.38,6.74,6.74,0,0,0-1.15-3c-2.92,1.42-5.88,2.75-8.88,4a3.9,3.9,0,0,0,.79,3c.67.84,1.71,1.21,2.46,2,1.09,1.09.25,2.53-.18,3.72a4,4,0,0,0-.12,2.84,2.06,2.06,0,0,0,.71.91,5.32,5.32,0,0,0,1.7.47,2.32,2.32,0,0,1,1.5,1.9h0c.88-.59,1.74-1.2,2.59-1.84l.3-.22c.88-.66,1.74-1.34,2.57-2.06a10.55,10.55,0,0,0,2.56-3A2.62,2.62,0,0,0,510.54,349.11Z" transform="translate(-343.54 -171.79)"/><path class="cls-12" d="M459.9,249.15c.31-1.88.49-4.41-2.28-5.43-1.43-.52-3.36-.85-4.57-.07a5.38,5.38,0,0,0-2.16,3.51.25.25,0,0,0,0,.19,7.79,7.79,0,0,0-.4,2.53,4.8,4.8,0,0,0,5.07,4.48C458.69,254.13,459.56,251.19,459.9,249.15Z" transform="translate(-343.54 -171.79)"/><path class="cls-2" d="M456.9,247.79c0-.06-.1-.1-.15-.15a.63.63,0,0,0-.21-.37,1.94,1.94,0,0,0-.9-.37,2.1,2.1,0,0,0-1,.11,1.88,1.88,0,0,0-1.18,1.47,1.86,1.86,0,0,0,.6,1.72,2,2,0,0,0,1.6.45,1.8,1.8,0,0,0,1.36-1.11A1.9,1.9,0,0,0,456.9,247.79Z" transform="translate(-343.54 -171.79)"/></svg>