<svg xmlns="http://www.w3.org/2000/svg" viewBox="0 0 84.5 125.59"><defs><style>.cls-1{isolation:isolate;}.cls-2{mix-blend-mode:multiply;opacity:0.8;}.cls-3{fill:#17202d;}.cls-4{fill:#35ae73;}.cls-5{fill:#f9b03d;}.cls-6{fill:#1b8152;}</style></defs><g class="cls-1"><g id="Слой_1" data-name="Слой 1"><g class="cls-2"><path class="cls-3" d="M442.26,355.17c.56-8,4.41-17.93,5.58-26l.1,0s12.06-25.34,7.47-36c-2.54-5.92-37.89-33.32-36-1.55,1.79,29.3.8,16.74,1.49,28.28,0,.89.08,1.8.17,2.73,0,.25,0,.51,0,.77h0c.08.68.17,1.36.29,2.06,2.61,15.55.32,24.64-1.37,33.16s1.64,13.65,5.14,14.24C432.9,374.11,440.91,374.22,442.26,355.17Z" transform="translate(-371.95 -273.95)"/><path class="cls-3" d="M419.72,383.15c-3.08-8.12-6.86-16.7-6.87-32.47,0-.71,0-1.4-.05-2.09h0c0-.21-.05-.42-.07-.62-.07-1-.18-2.08-.33-3.07-1.2-11.13-.12,1.08-3.21-27.92-3.38-31.66-33.67,1.24-35.19,7.5-2.75,11.32,13.37,34.29,13.37,34.29l.08,0c2.51,7.8,8,17,9.85,24.75C401.83,402,409.71,400.59,417,398,420.38,396.88,422.8,391.27,419.72,383.15Z" transform="translate(-371.95 -273.95)"/></g><path class="cls-4" d="M446.17,326.6s12.06-25.34,7.47-36c-2.54-5.92-37.89-33.32-35.95-1.55s.62,14.3,1.71,31.78Z" transform="translate(-371.95 -273.95)"/><path class="cls-5" d="M418.36,356c1.69-8.52,4-17.61,1.36-33.16-1.52-9.06,0-17.15,5.23-20.28l-.52-16.2a2.22,2.22,0,1,1,4.44-.14l.5,15.42c.21,2.32,4.5,4.47,4.68,1.11l.69-12.63a2.22,2.22,0,1,1,4.43.24l-.8,14.81c-.12,2.66,3.13,5.78,3.89,4,1-2.3,3.09-11.27,3.09-11.27a2.22,2.22,0,1,1,4.28,1.17l-4.3,15.71a2.18,2.18,0,0,1-.11.27,25.57,25.57,0,0,1,1.13,5.76c.75,8.66-5.15,21.83-5.86,31.82-1.35,19.05-9.35,18.94-17,17.65C420,369.68,416.67,364.55,418.36,356Z" transform="translate(-371.95 -273.95)"/><path class="cls-6" d="M421.91,352.51c-1,6.84,1.5,12.84,5.5,13.4s8-4.52,9-11.36-1.51-12.83-5.51-13.39S422.87,345.68,421.91,352.51Z" transform="translate(-371.95 -273.95)"/><path class="cls-4" d="M385.63,356.21s-16.11-23-13.37-34.29c1.52-6.26,31.82-39.16,35.19-7.5s1.78,14.2,3.61,31.61Z" transform="translate(-371.95 -273.95)"/><path class="cls-5" d="M418,380.6c-3.08-8.12-6.85-16.7-6.86-32.47,0-9.19-2.9-16.91-8.54-19.13L400.37,313a2.22,2.22,0,1,0-4.4.59l2.08,15.29c.17,2.32-3.7,5.16-4.44,1.87l-2.78-12.34a2.22,2.22,0,1,0-4.33,1l3.26,14.47c.56,2.6-2.12,6.22-3.18,4.55-1.33-2.11-4.92-10.6-4.92-10.6a2.22,2.22,0,0,0-4,1.87l6.86,14.78c0,.09.1.16.15.25a26.17,26.17,0,0,0-.15,5.86c.7,8.66,8.71,20.66,11.07,30.4,4.5,18.56,12.38,17.12,19.7,14.57C418.61,394.33,421,388.72,418,380.6Z" transform="translate(-371.95 -273.95)"/><path class="cls-6" d="M413.87,377.72c2.09,6.58.65,12.9-3.2,14.13s-8.67-3.12-10.76-9.7-.65-12.91,3.2-14.13S411.78,371.14,413.87,377.72Z" transform="translate(-371.95 -273.95)"/></g></g></svg>