<svg xmlns="http://www.w3.org/2000/svg" viewBox="0 0 99.12 90.29"><defs><style>.cls-1{isolation:isolate;}.cls-2{fill:#17202d;mix-blend-mode:multiply;opacity:0.81;}.cls-3{fill:#f9b03d;}.cls-4{fill:#35ae73;}.cls-5{fill:#a1d3cc;}.cls-6{fill:#89b3ac;}.cls-7{fill:#b8d9d4;}</style></defs><g class="cls-1"><g id="Слой_1" data-name="Слой 1"><path class="cls-2" d="M460,314.18l0-.05a5.3,5.3,0,0,0-2.47-1.75,19.57,19.57,0,0,0-7.32-1.45l-4.6-.25c-1.54-.08-3.12-.11-4.71-.19s-3.1-.12-4.74-.2c-4.72-.14-14.21-.56-14.21-.56l-4.86-.09c-1.31,0-2.58.1-3.78.08s-2.58,0-3.85.08c-5.43-.05-10.8,0-16.07.09-4.94.07-7.86.79-9.88,2.89s-2.73,5-3.59,9.75c-.19,1.15-.21,1.31-.21,1.31-.05.24-.09.49-.14.74l-3.21-.06.56-30.62-7.5-.13-.56,30.62-.94,0a1.88,1.88,0,0,0-1.91,1.84l-.11,6.25a1.88,1.88,0,0,0,1.84,1.91h.94l-.41,22.1c1.44,24,25.18,24.54,25.18,24.54l0-.78c14.31,3.67,18.27-2.2,19.08-3.84a4.06,4.06,0,0,0,.62-1.33,3.28,3.28,0,0,0-2.39-3.94,3.12,3.12,0,0,0-3.29,1.9v0a3.24,3.24,0,0,1-2.09,2,5.79,5.79,0,0,1-1.76-.05,1,1,0,0,1-.85-1.15h0a2.65,2.65,0,0,0,.06-.72,3.57,3.57,0,0,0-3.22-3.88,3.63,3.63,0,0,0-3.37,3.8,4,4,0,0,0,.09,1.16l-2.77-.13,0-1.08c-16.86-1.08-17.83-16.3-17.83-16.3l.41-22.1,2.18,0,0,1.38c.54,4.56,1.26,8.85,4.55,11.44a18.61,18.61,0,0,0,2.77,1.69,22.48,22.48,0,0,0,3.59,1.55,5.25,5.25,0,0,0,.81.29,7.82,7.82,0,0,0,.93.29,39.77,39.77,0,0,0,5.08,1.3c3.61.67,6.19.5,8.41-.61a12.15,12.15,0,0,0,5.58-5.53c.46-.81.92-1.63,1.32-2.5.85-1.63,1.88-3.53,3.47-6.08a12.38,12.38,0,0,1,3.93-4.09,4.38,4.38,0,0,1,2.75-.78,5.58,5.58,0,0,1,2.57.87,12.09,12.09,0,0,1,3.77,4.24c1.49,2.61,2.39,4.54,3.18,6.2.42.89.79,1.72,1.27,2.55a11.74,11.74,0,0,0,5.32,5.72c2.18,1.2,4.75,1.46,8.38.93.38-.05.76-.15,1-.2l1-.15a42.62,42.62,0,0,0,4.89-1.28,21.93,21.93,0,0,0,3.57-1.42c.11-.05.34-.1.34-.16a8.86,8.86,0,0,0,2.53-1.43v-.23h0c3.39-2.44,4.48-6.49,4.57-11l0-2.74a65.72,65.72,0,0,0-.72-9.39s.11-.17,0-1.32C462.58,319.28,461.87,316.3,460,314.18Z" transform="translate(-364.84 -291.13)"/><path class="cls-3" d="M375.87,291.27,374.72,354s1,15.22,17.82,16.3l-.14,8.09s-23.75-.51-25.18-24.53l1.15-62.72Z" transform="translate(-364.84 -291.13)"/><path class="cls-4" d="M395.29,371.5a4.48,4.48,0,0,1-.09-1.17,3.62,3.62,0,0,1,3.38-3.79,3.57,3.57,0,0,1,3.22,3.88,3.15,3.15,0,0,1-.06.72h0a1,1,0,0,0,.85,1.15,5.72,5.72,0,0,0,1.75,0,3.21,3.21,0,0,0,2.09-2v0a3.1,3.1,0,0,1,3.28-1.9,3.28,3.28,0,0,1,2.4,3.93,4,4,0,0,1-.63,1.34c-.81,1.64-4.77,7.51-19.08,3.84l.11-6.25Z" transform="translate(-364.84 -291.13)"/><path class="cls-5" d="M401.8,307.38h0l39.08.71v.22c11.87.48,21,6.73,20.88,14.2-.14,7.64,2.94,27.7-20.06,25.52-8.08-.76-13.67-18.53-21.24-18.67s-12.68,19.31-20.79,19.07c-26.23-.77-20.31-19.89-20.17-27.53s10.13-13.75,22.3-13.52" transform="translate(-364.84 -291.13)"/><polygon class="cls-6" points="39.45 54.02 55.63 18.98 70.62 54.59 55.38 35.72 39.45 54.02"/><path class="cls-4" d="M369.59,319h6.25a1.87,1.87,0,0,1,1.87,1.87v11.88a1.88,1.88,0,0,1-1.88,1.88h-6.25a1.87,1.87,0,0,1-1.87-1.87V320.91A1.88,1.88,0,0,1,369.59,319Z" transform="translate(-325.76 402.37) rotate(-88.95)"/><path class="cls-7" d="M448.23,308.56l-7,39.49c.76.06,1.48.09,2.18.1l7-39.28C449.7,308.75,449,308.64,448.23,308.56Z" transform="translate(-364.84 -291.13)"/><path class="cls-7" d="M452.46,309.3l-7,38.8a21.87,21.87,0,0,0,4-.61l7-36.92A28.54,28.54,0,0,0,452.46,309.3Z" transform="translate(-364.84 -291.13)"/><path class="cls-7" d="M397.51,308.57l-7,38.86c.69.16,1.41.31,2.17.43l7-39.81C399,308.2,398.22,308.37,397.51,308.57Z" transform="translate(-364.84 -291.13)"/><path class="cls-7" d="M401.77,307.72l-7,40.42c1.13.12,2.34.21,3.62.24.12,0,.23,0,.35,0l7-40.92A34.38,34.38,0,0,0,401.77,307.72Z" transform="translate(-364.84 -291.13)"/><path class="cls-4" d="M462.23,322.75s.1-.17,0-1.32c-.63-4.79-1.33-7.76-3.21-9.88l0-.05a5.35,5.35,0,0,0-2.47-1.75,19.59,19.59,0,0,0-7.33-1.45l-4.6-.25c-1.53-.08-3.11-.11-4.7-.2s-3.1-.11-4.75-.19c-4.71-.14-14.2-.56-14.2-.56L416,307c-1.32,0-2.58.1-3.79.08s-2.58.05-3.84.08c-5.43-.05-10.81,0-16.08.09-4.93.07-7.86.78-9.87,2.89s-2.74,5-3.6,9.75c-.18,1.15-.21,1.31-.21,1.31a57.32,57.32,0,0,0-1.32,9.36l-.05,2.74c.54,4.56,1.26,8.85,4.56,11.43a18.18,18.18,0,0,0,2.76,1.7,22.88,22.88,0,0,0,3.59,1.55,5.36,5.36,0,0,0,.82.29,9.4,9.4,0,0,0,.93.29,39.34,39.34,0,0,0,5.08,1.3c3.6.67,6.18.49,8.4-.62a12.13,12.13,0,0,0,5.59-5.52c.45-.82.91-1.63,1.31-2.5.85-1.63,1.89-3.53,3.47-6.08a12.45,12.45,0,0,1,3.94-4.1,4.39,4.39,0,0,1,2.74-.77,5.51,5.51,0,0,1,2.57.87,11.92,11.92,0,0,1,3.78,4.24c1.48,2.61,2.38,4.54,3.17,6.2.43.89.79,1.72,1.27,2.55a11.8,11.8,0,0,0,5.33,5.72c2.17,1.19,4.74,1.46,8.37.92.38,0,.77-.15,1-.2s.71-.09,1-.14a44.78,44.78,0,0,0,4.89-1.28,21.93,21.93,0,0,0,3.57-1.42c.11-.05.33-.1.33-.16a8.72,8.72,0,0,0,2.53-1.43v-.23h0c3.39-2.44,4.48-6.49,4.56-11l.05-2.74A67.3,67.3,0,0,0,462.23,322.75Zm-3.79,16.6a7.68,7.68,0,0,1-2.57,3.57,13,13,0,0,1-2.11,1.23,19,19,0,0,1-3.1,1.21,45.21,45.21,0,0,1-4.41,1.19l-.94.17a7.55,7.55,0,0,1-.88.19h-.05c-2.7.58-4.51.26-5.86-.48a8.54,8.54,0,0,1-3.77-4.09c-.37-.72-.74-1.55-1.16-2.44-.84-1.82-1.85-3.87-3.34-6.48a16,16,0,0,0-5.06-5.63,9.91,9.91,0,0,0-4.65-1.51,8.69,8.69,0,0,0-4.84,1.34,15.44,15.44,0,0,0-5.29,5.44,68.79,68.79,0,0,0-3.63,6.35c-.46.87-.86,1.69-1.25,2.39a8.19,8.19,0,0,1-3.91,3.91c-1.33.69-3.14.71-5.88.22-1.58-.3-3.16-.71-4.64-1.12-.11-.06-.38-.12-.81-.29a4.83,4.83,0,0,1-.77-.29,21.54,21.54,0,0,1-3.1-1.32,10.61,10.61,0,0,1-2.06-1.3c-4.6-3.59-2.82-13.65-1.72-19.77.19-1.2-.06.12.19-1.25.67-4,1.27-6.38,2.5-7.67s3.26-1.55,7-1.59c5.33-.12,10.7-.18,16-.08l3.79.07,3.78.07,4.86.09s9.44,0,14.15.18c1.59,0,3.08.11,4.67.19s3.12.12,4.71.2l4.64.25c3.78.18,5.83.66,7,1.88.16.22.44.4.43.67,1.23,1.39,1.37,3.7,1.8,7.11.19,1.37.06.05.25,1.26a10.88,10.88,0,0,1,.27,2C459.24,329.66,459.76,335.37,458.44,339.35Z" transform="translate(-364.84 -291.13)"/></g></g></svg>