<svg xmlns="http://www.w3.org/2000/svg" xmlns:xlink="http://www.w3.org/1999/xlink" viewBox="0 0 113.66 133.83"><defs><style>.cls-1,.cls-15,.cls-16,.cls-2{fill:none;}.cls-2{clip-rule:evenodd;}.cls-3{isolation:isolate;}.cls-4{fill:#828a2d;}.cls-5{fill:#d2db60;}.cls-11,.cls-18,.cls-6{fill:#612c26;}.cls-7{clip-path:url(#clip-path);}.cls-14,.cls-8{fill:#f7e9d0;}.cls-9{clip-path:url(#clip-path-2);}.cls-10{fill:#d7de63;}.cls-11{stroke:#612c26;stroke-width:0.25px;}.cls-11,.cls-15,.cls-16{stroke-miterlimit:10;}.cls-12{fill:#ffef97;}.cls-13{fill:#e0673e;}.cls-14{mix-blend-mode:soft-light;opacity:0.6;}.cls-15,.cls-16{stroke:#e9445a;stroke-width:3px;}.cls-15{stroke-linecap:round;}.cls-17{fill:#e9445a;}.cls-17,.cls-18{fill-rule:evenodd;}.cls-19{clip-path:url(#clip-path-3);}.cls-20{clip-path:url(#clip-path-4);}</style><clipPath id="clip-path" transform="translate(-362.42 -225.32)"><path class="cls-1" d="M419.34,351.06c-27.79-.19-50.33-17.56-50.16-42.87a16.34,16.34,0,0,1,.46-4.12l.28-1.44.72-3.74c1.22-4.54,4.61-13.43,13.84-24.22,5.83-6.81,9-14.73,12-22.39,5.74-14.36,9.63-22.51,23-23l.62,0,.48,0c13.36.65,17.15,8.85,22.7,23.29,3,7.69,6,15.65,11.76,22.54,9.17,11,12.42,20,13.56,24.53l.63,3.61.27,1.46a17.16,17.16,0,0,1,.41,4.12C469.8,334.16,447.13,351.24,419.34,351.06Z"/></clipPath><clipPath id="clip-path-2" transform="translate(-362.42 -225.32)"><path class="cls-1" d="M418.08,351c27.77.94,50.59-16.1,51.86-40.8a15,15,0,0,0-.3-4.13l-.22-1.46-.56-3.76c-1-4.58-4.07-13.61-12.86-24.76-5.55-7-8.39-15.08-11.13-22.86-5.15-14.58-8.71-22.88-22.06-23.91l-.61,0h-.49c-13.38.11-17.5,8.15-23.63,22.35-3.26,7.57-6.64,15.4-12.66,22.05-9.61,10.63-13.22,19.49-14.54,24l-.77,3.59-.33,1.44a16.94,16.94,0,0,0-.58,4.1C368.34,332.1,390.31,350.09,418.08,351Z"/></clipPath><clipPath id="clip-path-3" transform="translate(-362.42 -225.32)"><path class="cls-2" d="M393.12,319.45c-12.62-7.71-15.85-15.31-14.56-20a6.1,6.1,0,0,1,5.87-4.65,8.36,8.36,0,0,1,6.47,4.23l2.52,4.44,2.64-4.59c2.12-3.06,4.45-3.77,6.69-3.72a6.1,6.1,0,0,1,5.69,4.86C409.55,304.77,406,312.23,393.12,319.45Z"/></clipPath><clipPath id="clip-path-4" transform="translate(-362.42 -225.32)"><path class="cls-2" d="M445.69,320.46c-12.62-7.7-15.84-15.3-14.55-20a6.09,6.09,0,0,1,5.87-4.64,8.33,8.33,0,0,1,6.47,4.23l2.52,4.43,2.64-4.59c2.12-3.05,4.45-3.76,6.69-3.72a6.1,6.1,0,0,1,5.69,4.87C462.13,305.78,458.61,313.25,445.69,320.46Z"/></clipPath></defs><g class="cls-3"><g id="Слой_1" data-name="Слой 1"><path class="cls-4" d="M459.83,274.2c-15.29-18.34-11.63-47.47-38.93-48.81v-.06l-.79,0c-.26,0-.51,0-.78,0v.06c-27.32,1-24,30.16-39.57,48.3-15.07,17.61-16.6,30.95-16.73,37.07-.57,28.43,25,48.19,56.26,48.4s56.21-19.23,56.79-47.66C476.18,306.15,474.67,292,459.83,274.2Z" transform="translate(-362.42 -225.32)"/><path class="cls-5" d="M419.34,351.06c-27.79-.19-50.33-17.56-50.16-42.87a16.34,16.34,0,0,1,.46-4.12l.28-1.44.72-3.74c1.22-4.54,4.61-13.43,13.84-24.22,5.83-6.81,9-14.73,12-22.39,5.74-14.36,9.63-22.51,23-23l.62,0,.48,0c13.36.65,17.15,8.85,22.7,23.29,3,7.69,6,15.65,11.76,22.54,9.17,11,12.42,20,13.56,24.53l.63,3.61.27,1.46a17.16,17.16,0,0,1,.41,4.12C469.8,334.16,447.13,351.24,419.34,351.06Z" transform="translate(-362.42 -225.32)"/><path class="cls-6" d="M415.72,308a4.15,4.15,0,0,0,2.72,3.82,3.51,3.51,0,0,0,4.18-1.4,4.35,4.35,0,0,0,.74-2.28.38.38,0,0,0-.75,0,3.17,3.17,0,0,1-2.76,3.16,3.36,3.36,0,0,1-3.38-3.3.38.38,0,0,0-.75,0Z" transform="translate(-362.42 -225.32)"/><path class="cls-6" d="M416.31,305.9a2.29,2.29,0,0,1-1.86,2.52.38.38,0,0,0-.26.46.38.38,0,0,0,.46.27,3,3,0,0,0,2.41-3.25.38.38,0,0,0-.37-.37.38.38,0,0,0-.38.37Z" transform="translate(-362.42 -225.32)"/><path class="cls-6" d="M422.26,305.92a3.05,3.05,0,0,0,2.28,3.43.4.4,0,0,0,.47-.26.38.38,0,0,0-.27-.46,2.24,2.24,0,0,1-1.36-.92,2.18,2.18,0,0,1-.35-.78,1.86,1.86,0,0,1-.06-.38,1,1,0,0,1,0-.24.49.49,0,0,1,0-.12c0-.08,0,0,0-.07a.37.37,0,1,0-.72-.2Z" transform="translate(-362.42 -225.32)"/><g class="cls-7"><circle class="cls-8" cx="375.3" cy="325.99" r="12.89" transform="translate(-328.83 461.71) rotate(-87.55)"/></g><g class="cls-9"><path class="cls-8" d="M450.21,327.51a12.89,12.89,0,1,1,12.62,13.14A12.89,12.89,0,0,1,450.21,327.51Z" transform="translate(-362.42 -225.32)"/></g><path class="cls-6" d="M402.2,306.66a9.37,9.37,0,1,0-9.58,9.16A9.37,9.37,0,0,0,402.2,306.66Z" transform="translate(-362.42 -225.32)"/><path class="cls-6" d="M400.24,298a8.35,8.35,0,0,1,2.92,5.27.55.55,0,0,0,.67.38.57.57,0,0,0,.38-.67,9.23,9.23,0,0,0-3.21-5.75.55.55,0,0,0-.76,0,.54.54,0,0,0,0,.77Z" transform="translate(-362.42 -225.32)"/><path class="cls-6" d="M383.43,296.09a6.59,6.59,0,0,0,1.3,4.79,3.9,3.9,0,0,0,4.14,1.26.56.56,0,0,0,.37-.67.54.54,0,0,0-.66-.38,2.85,2.85,0,0,1-3.13-1,5.68,5.68,0,0,1-.93-4c0-.7-1-.7-1.09,0Z" transform="translate(-362.42 -225.32)"/><path class="cls-6" d="M380.93,298.6a5.44,5.44,0,0,0,5.12,5.84.55.55,0,0,0,0-1.09,4.35,4.35,0,0,1-4-4.75.55.55,0,0,0-1.09,0Z" transform="translate(-362.42 -225.32)"/><path class="cls-8" d="M399.19,303.75a3.5,3.5,0,1,0-3.56,3.42A3.5,3.5,0,0,0,399.19,303.75Z" transform="translate(-362.42 -225.32)"/><path class="cls-8" d="M391.87,309.15a1.67,1.67,0,1,0-.05,2.36A1.66,1.66,0,0,0,391.87,309.15Z" transform="translate(-362.42 -225.32)"/><path class="cls-10" d="M392.65,318.25a15,15,0,0,0-9.32-8.53l3.22,5.31Z" transform="translate(-362.42 -225.32)"/><path class="cls-6" d="M383.19,310.24a14.48,14.48,0,0,1,7.62,5.72,14.24,14.24,0,0,1,1.31,2.43.56.56,0,0,0,.67.38.54.54,0,0,0,.38-.67,15.7,15.7,0,0,0-6.93-7.74,14.81,14.81,0,0,0-2.76-1.16c-.67-.21-1,.83-.29,1Z" transform="translate(-362.42 -225.32)"/><path class="cls-11" d="M436.69,307.36a9.37,9.37,0,1,1,9.21,9.54A9.37,9.37,0,0,1,436.69,307.36Z" transform="translate(-362.42 -225.32)"/><path class="cls-6" d="M438.37,297.93a9.35,9.35,0,0,0-3.54,5.71.56.56,0,0,0,.38.67.55.55,0,0,0,.67-.38,8.27,8.27,0,0,1,3-5.06.55.55,0,0,0,.2-.74.54.54,0,0,0-.74-.2Z" transform="translate(-362.42 -225.32)"/><path class="cls-6" d="M454.79,297.54a5.63,5.63,0,0,1-1.1,3.9,2.86,2.86,0,0,1-3.18.9.55.55,0,0,0-.67.38.56.56,0,0,0,.38.66,3.9,3.9,0,0,0,4.19-1.11,6.66,6.66,0,0,0,1.47-4.73.55.55,0,0,0-1.09,0Z" transform="translate(-362.42 -225.32)"/><path class="cls-6" d="M457.19,300.15a4.35,4.35,0,0,1-4.25,4.55.55.55,0,0,0,0,1.09,5.44,5.44,0,0,0,5.34-5.64.57.57,0,0,0-.55-.55.55.55,0,0,0-.54.55Z" transform="translate(-362.42 -225.32)"/><path class="cls-8" d="M439.82,304.57a3.5,3.5,0,1,1,3.42,3.57A3.49,3.49,0,0,1,439.82,304.57Z" transform="translate(-362.42 -225.32)"/><path class="cls-8" d="M446.91,310.27a1.67,1.67,0,1,1,0,2.35A1.66,1.66,0,0,1,446.91,310.27Z" transform="translate(-362.42 -225.32)"/><path class="cls-10" d="M445.77,319.32a15,15,0,0,1,9.65-8.14L452,316.35Z" transform="translate(-362.42 -225.32)"/><path class="cls-6" d="M455.28,310.65a15.69,15.69,0,0,0-8.48,5.86,13.79,13.79,0,0,0-1.5,2.54.56.56,0,0,0,.2.74.54.54,0,0,0,.74-.19,14.62,14.62,0,0,1,6.74-6.93,14.18,14.18,0,0,1,2.59-1,.55.55,0,0,0-.29-1.05Z" transform="translate(-362.42 -225.32)"/><path class="cls-6" d="M471.77,304.7a35.44,35.44,0,0,1,.66,9,33.33,33.33,0,0,1-1.5,7.65c-.48,1.53-1,3-1.58,4.53-.17.45.56.65.72.2a55.73,55.73,0,0,0,2.49-8,30.5,30.5,0,0,0,.63-8.14,41.14,41.14,0,0,0-.7-5.43c-.09-.47-.81-.27-.72.2Z" transform="translate(-362.42 -225.32)"/><path class="cls-6" d="M466.77,331.21l-1.43,2.28a.38.38,0,0,0,.65.38l1.43-2.29a.37.37,0,1,0-.65-.37Z" transform="translate(-362.42 -225.32)"/><path class="cls-6" d="M367,306.65a33.26,33.26,0,0,1,3.84-14.84,33.62,33.62,0,0,1,2.29-3.71c.28-.39-.37-.77-.65-.38a34,34,0,0,0-5.85,14.49,34.69,34.69,0,0,0-.38,4.44.38.38,0,0,0,.75,0Z" transform="translate(-362.42 -225.32)"/><path class="cls-6" d="M375.05,284.18l1.16-1.85a.38.38,0,0,0-.14-.51.38.38,0,0,0-.51.13l-1.15,1.85a.37.37,0,0,0,.64.38Z" transform="translate(-362.42 -225.32)"/><path class="cls-6" d="M425.49,228.49a17.55,17.55,0,0,1,6.46,2.07c.43.23.8-.42.38-.65a18.39,18.39,0,0,0-6.84-2.17c-.48-.05-.48.7,0,.75Z" transform="translate(-362.42 -225.32)"/><path class="cls-6" d="M387.34,346.49a32.7,32.7,0,0,0,11.27,5.85.38.38,0,0,0,.2-.73A31.69,31.69,0,0,1,387.87,346c-.38-.3-.91.23-.53.53Z" transform="translate(-362.42 -225.32)"/><path class="cls-6" d="M450.7,264.62a23.6,23.6,0,0,0,6.06,10.07c.35.34.88-.19.53-.53a22.86,22.86,0,0,1-5.87-9.74.37.37,0,0,0-.72.2Z" transform="translate(-362.42 -225.32)"/><path class="cls-12" d="M438.88,270.11a18.53,18.53,0,1,0-18.65,18.41A18.54,18.54,0,0,0,438.88,270.11Z" transform="translate(-362.42 -225.32)"/><path class="cls-13" d="M435.59,268.56a15.23,15.23,0,1,0-15.33,15.13A15.24,15.24,0,0,0,435.59,268.56Z" transform="translate(-362.42 -225.32)"/><path class="cls-14" d="M421.84,257.65c2.22,2.31-1.18,3.34-4.6,6.62s-5.57,7.58-7.78,5.27-1.23-6.83,2.19-10.11S419.63,255.35,421.84,257.65Z" transform="translate(-362.42 -225.32)"/><path class="cls-6" d="M426.61,279a9.63,9.63,0,0,0,5.62-7.75c0-.47-.7-.47-.75,0a8.87,8.87,0,0,1-5.25,7.1c-.44.2-.06.84.38.65Z" transform="translate(-362.42 -225.32)"/><path class="cls-6" d="M431.86,266.38c0,.37,0,.75,0,1.12a.38.38,0,0,0,.38.37.37.37,0,0,0,.37-.37c0-.37,0-.75,0-1.12a.37.37,0,0,0-.37-.38.39.39,0,0,0-.38.38Z" transform="translate(-362.42 -225.32)"/><path class="cls-6" d="M408.94,274.23a5.86,5.86,0,0,0,2.35,2.89.37.37,0,0,0,.51-.13.39.39,0,0,0-.14-.52,5.14,5.14,0,0,1-2-2.44.38.38,0,0,0-.46-.26.37.37,0,0,0-.26.46Z" transform="translate(-362.42 -225.32)"/><path class="cls-6" d="M422.17,265a1.72,1.72,0,0,0-1.46,2.17,1.42,1.42,0,0,0,.45.7.37.37,0,1,0,.53-.53.86.86,0,0,1-.14-.13l0,0s0,.05,0,0a.43.43,0,0,0,0-.07l-.05-.08c0-.06,0,.08,0,0a.75.75,0,0,1,0-.16v0s0,0,0,0,0-.05,0-.07a.54.54,0,0,1,0-.18s0-.05,0-.07,0,0,0,0a1.09,1.09,0,0,1,.05-.17.19.19,0,0,0,0-.08c0-.06,0,.08,0,0l.08-.15a.35.35,0,0,0,.05-.08c0-.05-.05.07,0,0l.12-.12,0,0,0,0,.05,0a.83.83,0,0,0,.16-.09c-.07.06-.05,0,0,0l.09,0h.11a.38.38,0,0,0,0-.75Z" transform="translate(-362.42 -225.32)"/><path class="cls-6" d="M416.76,269.47a1.41,1.41,0,0,0-.72,2.16,1.1,1.1,0,0,0,.66.46.38.38,0,0,0,.46-.26.39.39,0,0,0-.26-.46l-.11,0s.09,0,0,0l-.05,0,0,0s.06.06,0,0l-.08-.08s0,0,0,0l0,0,0,0-.06-.1s0,.09,0,0l0-.05a.61.61,0,0,1,0-.13.07.07,0,0,1,0-.05s0,.1,0,0v-.24c0-.07,0,.05,0,0a.13.13,0,0,1,0-.06l0-.11a.14.14,0,0,1,0-.06v0s0,0,0,0,0-.07,0-.1l0,0s.06-.07,0,0,0,0,0,0l.05,0s.07-.06,0,0,0,0,0,0l.05,0c.07,0-.08,0,0,0l.14,0a.37.37,0,0,0,.26-.46.39.39,0,0,0-.46-.26Z" transform="translate(-362.42 -225.32)"/><path class="cls-6" d="M441.3,290.29a3.16,3.16,0,0,1,4,.72.37.37,0,0,0,.53,0,.39.39,0,0,0,0-.53,3.92,3.92,0,0,0-4.89-.84.38.38,0,0,0,.38.65Z" transform="translate(-362.42 -225.32)"/><path class="cls-6" d="M399.06,288.78a3.92,3.92,0,0,0-4.92.67c-.32.36.21.89.54.53a3.17,3.17,0,0,1,4-.55c.4.26.78-.39.37-.65Z" transform="translate(-362.42 -225.32)"/><line class="cls-15" x1="100.59" y1="74.55" x2="107.6" y2="62.31"/><line class="cls-15" x1="13.99" y1="72.88" x2="7.46" y2="60.38"/><path class="cls-16" d="M411.37,300.62a12.42,12.42,0,0,1,8.37-2.93,14.62,14.62,0,0,1,8.64,3.06" transform="translate(-362.42 -225.32)"/><path class="cls-17" d="M393,323.89c-36.75-21-9.43-44.11.52-26.94,10.61-16.77,37,7.39-.52,26.94Zm0,0" transform="translate(-362.42 -225.32)"/><path class="cls-18" d="M393.12,319.45c-12.62-7.71-15.85-15.31-14.56-20a6.1,6.1,0,0,1,5.87-4.65,8.36,8.36,0,0,1,6.47,4.23l2.52,4.44,2.64-4.59c2.12-3.06,4.45-3.77,6.69-3.72a6.1,6.1,0,0,1,5.69,4.86C409.55,304.77,406,312.23,393.12,319.45Z" transform="translate(-362.42 -225.32)"/><path class="cls-8" d="M382.19,292.25a9,9,0,0,0-4.3,2.48,8.64,8.64,0,0,0-2.18,4.69.52.52,0,0,0,.35.62.5.5,0,0,0,.61-.35,7.73,7.73,0,0,1,1.93-4.25,8,8,0,0,1,3.86-2.22.5.5,0,0,0-.27-1Z" transform="translate(-362.42 -225.32)"/><path class="cls-8" d="M401.31,292.47a8.43,8.43,0,0,0-3.93,1.43,9.74,9.74,0,0,0-2.76,3.19.5.5,0,0,0,.87.5,8.62,8.62,0,0,1,2.4-2.83,7.4,7.4,0,0,1,3.42-1.29.5.5,0,0,0,0-1Z" transform="translate(-362.42 -225.32)"/><path class="cls-8" d="M402.88,293.35h.77a.45.45,0,0,0,.35-.14.49.49,0,0,0,.15-.36.47.47,0,0,0-.15-.35.54.54,0,0,0-.35-.15h-.77a.53.53,0,0,0-.36.15.48.48,0,0,0-.14.35.5.5,0,0,0,.14.35.53.53,0,0,0,.36.15Z" transform="translate(-362.42 -225.32)"/><path class="cls-8" d="M383.74,293l.77,0a.53.53,0,0,0,.36-.15.52.52,0,0,0,.14-.35.48.48,0,0,0-.5-.5l-.77,0a.51.51,0,0,0-.35.15.47.47,0,0,0-.15.35.51.51,0,0,0,.5.5Z" transform="translate(-362.42 -225.32)"/><g class="cls-19"><path class="cls-8" d="M373.14,291.15c1.45,4.07,4.63,7.74,7.34,11,3.44,4.19,7,8.29,10.58,12.35,3.25,3.67,6.52,7.33,9.92,10.88,2.39,2.49,5.65,6,9,7.21a2.47,2.47,0,0,0,3-3.33c-1.06-3.05-4.22-6.23-6.37-8.57-3.49-3.79-7-7.53-10.53-11.31L385.53,298c-2.92-3.17-6-6.85-9.69-9.1a1.84,1.84,0,0,0-2.7,2.27Z" transform="translate(-362.42 -225.32)"/><path class="cls-8" d="M384.46,289.05c4.29,6.21,9.37,11.55,14.61,17,4.92,5.1,9.67,10.87,15.24,15.22a.73.73,0,0,0,1.07-.91c-3.14-6.27-8.73-11.56-13.53-16.63-5.17-5.46-10.46-10.71-16-15.85a.94.94,0,0,0-1.44,1.2Z" transform="translate(-362.42 -225.32)"/></g><path class="cls-17" d="M445.61,324.9c-36.75-21-9.43-44.1.52-26.94,10.61-16.76,37,7.4-.52,26.94Zm0,0" transform="translate(-362.42 -225.32)"/><path class="cls-18" d="M445.69,320.46c-12.62-7.7-15.84-15.3-14.55-20a6.09,6.09,0,0,1,5.87-4.64,8.33,8.33,0,0,1,6.47,4.23l2.52,4.43,2.64-4.59c2.12-3.05,4.45-3.76,6.69-3.72a6.1,6.1,0,0,1,5.69,4.87C462.13,305.78,458.61,313.25,445.69,320.46Z" transform="translate(-362.42 -225.32)"/><path class="cls-8" d="M434.77,293.27a9,9,0,0,0-4.3,2.48,8.58,8.58,0,0,0-2.18,4.69.5.5,0,1,0,1,.26,7.73,7.73,0,0,1,1.93-4.24,8,8,0,0,1,3.86-2.23.5.5,0,0,0-.27-1Z" transform="translate(-362.42 -225.32)"/><path class="cls-8" d="M453.89,293.49a8.53,8.53,0,0,0-3.93,1.42,9.74,9.74,0,0,0-2.76,3.19c-.31.56.55,1.07.87.51a8.31,8.31,0,0,1,2.4-2.83,7.4,7.4,0,0,1,3.42-1.29.51.51,0,0,0,.5-.5.5.5,0,0,0-.5-.5Z" transform="translate(-362.42 -225.32)"/><path class="cls-8" d="M455.46,294.36l.77,0a.49.49,0,0,0,.35-.15.47.47,0,0,0,.15-.35.53.53,0,0,0-.15-.36.48.48,0,0,0-.35-.14l-.77,0a.53.53,0,0,0-.36.15.52.52,0,0,0-.14.35.48.48,0,0,0,.5.5Z" transform="translate(-362.42 -225.32)"/><path class="cls-8" d="M436.32,294l.77,0a.53.53,0,0,0,.36-.15.51.51,0,0,0,0-.7.49.49,0,0,0-.36-.15l-.77,0a.49.49,0,0,0-.35.15.49.49,0,0,0-.15.35.53.53,0,0,0,.15.36.48.48,0,0,0,.35.14Z" transform="translate(-362.42 -225.32)"/><g class="cls-20"><path class="cls-8" d="M425.72,292.16c1.45,4.08,4.63,7.75,7.34,11,3.44,4.2,7,8.29,10.58,12.35,3.25,3.67,6.52,7.34,9.92,10.88,2.39,2.5,5.65,6.05,9,7.21a2.47,2.47,0,0,0,3-3.32c-1.06-3.05-4.22-6.24-6.37-8.58-3.49-3.79-7-7.53-10.53-11.31L438.11,299c-2.92-3.17-6-6.85-9.69-9.1a1.84,1.84,0,0,0-2.7,2.27Z" transform="translate(-362.42 -225.32)"/><path class="cls-8" d="M437,290.07c4.29,6.21,9.37,11.54,14.61,17,4.92,5.09,9.66,10.86,15.24,15.21a.73.73,0,0,0,1.07-.9c-3.14-6.27-8.73-11.56-13.53-16.63-5.17-5.47-10.46-10.72-15.95-15.85a.94.94,0,0,0-1.44,1.2Z" transform="translate(-362.42 -225.32)"/></g></g></g></svg>