<svg id="Слой_1" data-name="Слой 1" xmlns="http://www.w3.org/2000/svg" viewBox="0 0 561.68 203.89"><defs><style>.cls-1{fill:#010101;opacity:0.08;}.cls-2{fill:#314057;}.cls-3{fill:#e2824e;}</style></defs><path class="cls-1" d="M723.11,276.93c2.64,0,2.65-3,0-3a188.28,188.28,0,0,1-19.74-.79V264.5l17.28.25c2.64,0,2.64-3,0-3l-17.28-.25V251q7.92,1.45,16,2.16c2.62.22,2.6-2.78,0-3a154.76,154.76,0,0,1-16-2.26v-8.1l16.86-.83c2.62-.13,2.64-3.14,0-3l-16.86.83V226.63c5.2.36,10.41.5,15.64.39,2.63-.05,2.64-3.05,0-3-5.23.11-10.44,0-15.64-.39v-9.08a196.68,196.68,0,0,0,19.74.79c2.64,0,2.65-3,0-3a191,191,0,0,1-19.74-.78V206s-106.06,12.93-259,0-259,0-259,0v6.33c-5.08-.1-10.15-.38-15.2-.89-2.58-.26-3.7,2.63-1.09,2.89,5.42.55,10.84.88,16.29,1V224c-5.55.05-11.06-.14-16.58-.61-2.62-.22-2.6,2.79,0,3,5.52.47,11,.66,16.58.61v9.08l-17.39.86c-2.62.13-2.64,3.13,0,3l17.39-.86v10.8a152.24,152.24,0,0,1-16-2.46c-2.54-.52-3.63,2.37-1.09,2.9a164.63,164.63,0,0,0,17.12,2.57v8.76l-16.57-.23c-2.65,0-2.65,3,0,3l16.57.23v9.21c-5.08-.09-10.15-.37-15.2-.88-2.58-.26-3.7,2.63-1.09,2.89,5.42.55,10.84.88,16.29,1v8.72c-5.55.06-11.06-.14-16.58-.6-2.62-.22-2.6,2.78,0,3,5.52.46,11,.66,16.58.6v9.09l-17.39.86c-2.62.13-2.64,3.13,0,3l17.39-.86v10.8a157.64,157.64,0,0,1-16-2.46c-2.54-.53-3.63,2.37-1.09,2.89a164.65,164.65,0,0,0,17.12,2.58v8.76l-16.57-.23c-2.65,0-2.65,3,0,3l16.57.23v9.85c-5.08-.09-10.15-.37-15.2-.88-2.58-.26-3.7,2.63-1.09,2.89,5.42.55,10.84.88,16.29,1v8.72c-5.55,0-11.06-.14-16.58-.6-2.62-.22-2.6,2.78,0,3,5.52.46,11,.65,16.58.6v9.09l-17.39.86c-2.62.13-2.64,3.13,0,3l17.39-.86v10.8a157.64,157.64,0,0,1-16-2.46c-2.54-.53-3.63,2.37-1.09,2.89a164.65,164.65,0,0,0,17.12,2.58v8.76l-16.57-.23c-2.65,0-2.65,3,0,3l16.57.23v6.74s83.6-11.57,259,0,259,0,259,0v-6.93l17.28.24c2.64,0,2.64-3,0-3l-17.28-.24v-10.5q7.92,1.46,16,2.15c2.62.23,2.6-2.77,0-3a152.08,152.08,0,0,1-16-2.25v-8.1l16.86-.84c2.62-.13,2.64-3.13,0-3l-16.86.84V350.45q7.8.54,15.64.39c2.63,0,2.64-3,0-3q-7.85.15-15.64-.39v-9.09a193.77,193.77,0,0,0,19.74.8c2.64,0,2.65-3,0-3a188.28,188.28,0,0,1-19.74-.79v-9.28l17.28.24c2.64,0,2.64-3,0-3l-17.28-.24v-10.5q7.92,1.46,16,2.16c2.62.22,2.6-2.78,0-3a154.76,154.76,0,0,1-16-2.26v-8.1l16.86-.84c2.62-.13,2.64-3.13,0-3l-16.86.84V288.22q7.8.54,15.64.39c2.63-.05,2.64-3.05,0-3q-7.85.15-15.64-.39v-9.09A193.77,193.77,0,0,0,723.11,276.93Z" transform="translate(-165.96 -196.51)"/><path class="cls-2" d="M725.66,273.2c2.64,0,2.65-3,0-3a190.93,190.93,0,0,1-19.74-.79v-8.64l17.28.24c2.64,0,2.64-3,0-3l-17.28-.24v-10.5c5.28,1,10.61,1.69,16,2.15,2.62.23,2.59-2.77,0-3a151.72,151.72,0,0,1-16-2.25v-8.1l16.86-.84c2.62-.13,2.64-3.13,0-3l-16.86.84V222.9c5.2.35,10.4.49,15.63.39,2.64,0,2.65-3,0-3-5.23.1-10.43,0-15.63-.39v-9.09a196.69,196.69,0,0,0,19.74.8c2.64,0,2.65-3,0-3a190.93,190.93,0,0,1-19.74-.79v-5.57s-106.07,12.94-259,0-259,0-259,0v6.33c-5.08-.09-10.14-.37-15.19-.88-2.59-.26-3.7,2.63-1.09,2.89q8.13.82,16.28,1v8.72c-5.54,0-11.06-.14-16.57-.6-2.62-.22-2.6,2.78,0,3,5.51.46,11,.65,16.57.6v9.09l-17.38.86c-2.63.13-2.65,3.13,0,3l17.38-.86v10.8a157.88,157.88,0,0,1-16-2.46c-2.55-.53-3.63,2.37-1.09,2.89a162.2,162.2,0,0,0,17.11,2.57V258l-16.57-.24c-2.64,0-2.64,3,0,3l16.57.24v9.21q-7.62-.14-15.19-.89c-2.59-.26-3.7,2.63-1.09,2.9,5.42.54,10.84.88,16.28,1v8.72c-5.54.05-11.06-.14-16.57-.6-2.62-.22-2.6,2.78,0,3,5.51.46,11,.65,16.57.6V294l-17.38.87c-2.63.13-2.65,3.13,0,3l17.38-.87v10.81a157.88,157.88,0,0,1-16-2.46c-2.55-.53-3.63,2.36-1.09,2.89a162.2,162.2,0,0,0,17.11,2.57v8.77l-16.57-.24c-2.64,0-2.64,3,0,3l16.57.24v9.85q-7.62-.13-15.19-.89c-2.59-.26-3.7,2.63-1.09,2.9,5.42.54,10.84.88,16.28,1v8.72c-5.54.05-11.06-.14-16.57-.6-2.62-.22-2.6,2.78,0,3,5.51.46,11,.65,16.57.6v9.08l-17.38.87c-2.63.13-2.65,3.13,0,3l17.38-.87V370a157.88,157.88,0,0,1-16-2.46c-2.55-.53-3.63,2.36-1.09,2.89A162.2,162.2,0,0,0,187.87,373v8.77l-16.57-.24c-2.64,0-2.64,3,0,3l16.57.24v6.74s83.61-11.58,259,0,259,0,259,0v-6.94l17.28.25c2.64,0,2.64-3,0-3l-17.28-.25v-10.5c5.28,1,10.61,1.7,16,2.16,2.62.23,2.59-2.78,0-3a154.36,154.36,0,0,1-16-2.25v-8.11l16.86-.83c2.62-.13,2.64-3.13,0-3l-16.86.83V346.72c5.2.35,10.4.49,15.63.39,2.64-.06,2.65-3.06,0-3-5.23.1-10.43,0-15.63-.39v-9.09c6.56.58,13.12.87,19.74.8,2.64,0,2.65-3,0-3a190.93,190.93,0,0,1-19.74-.79v-9.29l17.28.25c2.64,0,2.64-3,0-3l-17.28-.25V308.86c5.28,1,10.61,1.69,16,2.15,2.62.23,2.59-2.78,0-3a154.36,154.36,0,0,1-16-2.25v-8.11l16.86-.83c2.62-.13,2.64-3.13,0-3l-16.86.83V284.49c5.2.35,10.4.49,15.63.39,2.64-.06,2.65-3.06,0-3-5.23.1-10.43,0-15.63-.39V272.4C712.48,273,719,273.27,725.66,273.2Z" transform="translate(-165.96 -196.51)"/><polygon class="cls-3" points="54.11 192.18 42.19 193.02 42.19 3.82 54.11 2.94 54.11 192.18"/><polygon class="cls-3" points="518.97 197.03 507.05 197.89 507.05 8.61 518.97 7.73 518.97 197.03"/></svg>