<svg id="Слой_1" data-name="Слой 1" xmlns="http://www.w3.org/2000/svg" viewBox="0 0 128.65 168.94"><defs><style>.cls-1{fill:#151b32;}.cls-2{fill:#3ca0d4;}.cls-3{fill:#46b69f;}.cls-4{fill:#7ac6bb;}.cls-5{fill:#fff;}</style></defs><path class="cls-1" d="M478.43,225.78l-117,.13a2,2,0,0,0-2,1.91l.17,145.89c0,1.05,7.74,10.58,8.84,10.58l110.19-8.81a2,2,0,0,0,2-1.91l-.17-145.89A2,2,0,0,0,478.43,225.78Z" transform="translate(-359.41 -216.02)"/><path class="cls-1" d="M483.46,225.84,361.79,226a2,2,0,0,0-2.08,1.9l.17,145.77c0,1.05,8.05,10.58,9.2,10.58l114.56-8.82a2,2,0,0,0,2.07-1.9l-.17-145.77A2,2,0,0,0,483.46,225.84Z" transform="translate(-359.41 -216.02)"/><rect class="cls-1" x="367.73" y="233.78" width="120.24" height="151.12" rx="1.95" transform="matrix(1, 0, 0, 1, -359.75, -215.54)"/><path class="cls-1" d="M483,234.72l-5.38-6.21-109.9-.6a1.45,1.45,0,0,0-1.13,2.4l2.39,2.76a4.29,4.29,0,0,0,3.25,1.48Z" transform="translate(-359.41 -216.02)"/><path class="cls-2" d="M475.38,376.94l-114-.13a1.94,1.94,0,0,1-1.94-1.93l.17-147.4c0-1.06,7.54-10.69,8.62-10.69l107.33,8.9a1.94,1.94,0,0,1,1.95,1.93L477.33,375A1.94,1.94,0,0,1,475.38,376.94Z" transform="translate(-359.41 -216.02)"/><path class="cls-3" d="M475.38,376.94l-114-.13a1.94,1.94,0,0,1-1.94-1.93l.17-147.4c0-1.06,7.54-10.69,8.62-10.69l107.33,8.9a1.94,1.94,0,0,1,1.95,1.93L477.33,375A1.94,1.94,0,0,1,475.38,376.94Z" transform="translate(-359.41 -216.02)"/><rect class="cls-4" x="367.75" y="216.09" width="117.9" height="151.24" rx="1.95" transform="translate(-359.08 -216.5) rotate(0.06)"/><path class="cls-5" d="M479.78,367.39l-5.24,6.07-107,.58a1.42,1.42,0,0,1-1.11-2.35l2.33-2.69a4.16,4.16,0,0,1,3.16-1.45Z" transform="translate(-359.41 -216.02)"/></svg>