<svg xmlns="http://www.w3.org/2000/svg" xmlns:xlink="http://www.w3.org/1999/xlink" viewBox="0 0 224.87 168.03"><defs><style>.cls-1{isolation:isolate;}.cls-2,.cls-3,.cls-4{fill:#17202d;}.cls-3,.cls-8{mix-blend-mode:multiply;}.cls-4,.cls-9{stroke:#bddef6;stroke-linecap:round;stroke-linejoin:round;stroke-width:2px;}.cls-5{fill:#0e5081;}.cls-6{fill:#bddef6;}.cls-7{fill:#fff;}.cls-8{fill:url(#linear-gradient);}.cls-9{fill:none;}</style><linearGradient id="linear-gradient" x1="704.9" y1="781.17" x2="586.52" y2="781.17" gradientTransform="translate(-221.1 -499.85) rotate(0.32)" gradientUnits="userSpaceOnUse"><stop offset="0" stop-color="#fff" stop-opacity="0"/><stop offset="1" stop-color="#8fd3f3"/></linearGradient></defs><g class="cls-1"><g id="Слой_1" data-name="Слой 1"><path class="cls-2" d="M475.4,228.18a145.5,145.5,0,0,0-56.08,10.6,149.15,149.15,0,0,0-112-.62l-.79,140.74a145.17,145.17,0,0,1,56.08-10.62,146.92,146.92,0,0,1,48,8.16,24.42,24.42,0,0,0,15.95.08,147.51,147.51,0,0,1,48.09-7.62,145.49,145.49,0,0,1,56,11.25l.79-140.74A145.33,145.33,0,0,0,475.4,228.18Z" transform="translate(-306.49 -212.12)"/><path class="cls-2" d="M473.13,228.17a139.58,139.58,0,0,0-53.81,10.17,143.21,143.21,0,0,0-107.5-.6l-.75,135a139.36,139.36,0,0,1,53.81-10.19,141.1,141.1,0,0,1,46.05,7.83,23.46,23.46,0,0,0,15.3.09,141.34,141.34,0,0,1,46.14-7.32A139.37,139.37,0,0,1,526.06,374l.76-135A139.63,139.63,0,0,0,473.13,228.17Z" transform="translate(-306.49 -212.12)"/><path class="cls-2" d="M311.11,364.88a143,143,0,0,1,107.5.6l.75-135a143.05,143.05,0,0,0-107.49-.6Z" transform="translate(-306.49 -212.12)"/><path class="cls-2" d="M418.61,365.48a143,143,0,0,1,107.5.6l.75-135a143.08,143.08,0,0,0-107.5-.6Z" transform="translate(-306.49 -212.12)"/><path class="cls-3" d="M418.61,365.48a143,143,0,0,1,107.5.6l.75-135a143.08,143.08,0,0,0-107.5-.6Z" transform="translate(-306.49 -212.12)"/><path class="cls-4" d="M515,237.1a145.38,145.38,0,0,0-80.58-1.41" transform="translate(-306.49 -212.12)"/><path class="cls-4" d="M515,245.78a145.14,145.14,0,0,0-80.58-1.41" transform="translate(-306.49 -212.12)"/><path class="cls-4" d="M514.91,254.46a145.14,145.14,0,0,0-80.58-1.41" transform="translate(-306.49 -212.12)"/><path class="cls-4" d="M514.86,263.14a145.14,145.14,0,0,0-80.58-1.41" transform="translate(-306.49 -212.12)"/><path class="cls-4" d="M514.81,271.82a145.27,145.27,0,0,0-80.58-1.42" transform="translate(-306.49 -212.12)"/><path class="cls-4" d="M514.76,280.49a145.14,145.14,0,0,0-80.58-1.41" transform="translate(-306.49 -212.12)"/><path class="cls-4" d="M514.71,289.17a145.14,145.14,0,0,0-80.58-1.41" transform="translate(-306.49 -212.12)"/><path class="cls-4" d="M405.57,291.66A145.17,145.17,0,0,0,325,290.25" transform="translate(-306.49 -212.12)"/><path class="cls-4" d="M405.52,300.34a145.27,145.27,0,0,0-80.58-1.42" transform="translate(-306.49 -212.12)"/><path class="cls-4" d="M405.47,309a145.38,145.38,0,0,0-80.58-1.41" transform="translate(-306.49 -212.12)"/><path class="cls-4" d="M405.42,317.69a145.14,145.14,0,0,0-80.58-1.41" transform="translate(-306.49 -212.12)"/><path class="cls-4" d="M405.37,326.37A145.14,145.14,0,0,0,324.79,325" transform="translate(-306.49 -212.12)"/><path class="cls-4" d="M405.32,335.05a145.14,145.14,0,0,0-80.58-1.41" transform="translate(-306.49 -212.12)"/><path class="cls-4" d="M405.27,343.73a145.27,145.27,0,0,0-80.58-1.42" transform="translate(-306.49 -212.12)"/><path class="cls-2" d="M433.82,343.29a145.14,145.14,0,0,1,80.58,1.41l.27-47.25A145.27,145.27,0,0,0,434.09,296Z" transform="translate(-306.49 -212.12)"/><path class="cls-2" d="M325,280.63a145.27,145.27,0,0,1,80.58,1.42l.26-47.26a145.14,145.14,0,0,0-80.58-1.41Z" transform="translate(-306.49 -212.12)"/><path class="cls-5" d="M473,220.58a136.27,136.27,0,0,0-54.07,10.57,139.45,139.45,0,0,0-108-.6l-.79,140.23a136.24,136.24,0,0,1,54.07-10.59,137.8,137.8,0,0,1,46.27,8.12,22.82,22.82,0,0,0,15.38.09,137.65,137.65,0,0,1,46.35-7.61A136.06,136.06,0,0,1,526.12,372l.78-140.23A136.22,136.22,0,0,0,473,220.58Z" transform="translate(-306.49 -212.12)"/><path class="cls-6" d="M470.77,220.56a130.8,130.8,0,0,0-51.87,10.15,133.92,133.92,0,0,0-103.63-.58l-.75,134.55a130.46,130.46,0,0,1,51.87-10.16,131.81,131.81,0,0,1,44.39,7.79,21.94,21.94,0,0,0,14.76.08,132.51,132.51,0,0,1,44.48-7.3,130.66,130.66,0,0,1,51.75,10.75l.75-134.55A130.87,130.87,0,0,0,470.77,220.56Z" transform="translate(-306.49 -212.12)"/><path class="cls-7" d="M314.56,356.81a133.69,133.69,0,0,1,103.63.58l.75-134.54a133.8,133.8,0,0,0-103.63-.58Z" transform="translate(-306.49 -212.12)"/><path class="cls-7" d="M418.19,357.39a133.69,133.69,0,0,1,103.63.58l.75-134.55a133.86,133.86,0,0,0-103.63-.57Z" transform="translate(-306.49 -212.12)"/><path class="cls-8" d="M418.19,357.39a133.69,133.69,0,0,1,103.63.58l.75-134.55a133.86,133.86,0,0,0-103.63-.57Z" transform="translate(-306.49 -212.12)"/><path class="cls-9" d="M511.14,229.46a135.53,135.53,0,0,0-77.68-1.39" transform="translate(-306.49 -212.12)"/><path class="cls-9" d="M511.09,238.11a135.53,135.53,0,0,0-77.68-1.39" transform="translate(-306.49 -212.12)"/><path class="cls-9" d="M511,246.76a135.65,135.65,0,0,0-77.68-1.4" transform="translate(-306.49 -212.12)"/><path class="cls-9" d="M511,255.4A135.53,135.53,0,0,0,433.31,254" transform="translate(-306.49 -212.12)"/><path class="cls-9" d="M510.94,264.05a135.53,135.53,0,0,0-77.68-1.39" transform="translate(-306.49 -212.12)"/><path class="cls-9" d="M510.9,272.7a135.65,135.65,0,0,0-77.68-1.4" transform="translate(-306.49 -212.12)"/><path class="cls-9" d="M510.85,281.34A135.53,135.53,0,0,0,433.17,280" transform="translate(-306.49 -212.12)"/><path class="cls-9" d="M405.63,283.84A135.53,135.53,0,0,0,328,282.45" transform="translate(-306.49 -212.12)"/><path class="cls-9" d="M405.58,292.49a135.65,135.65,0,0,0-77.68-1.4" transform="translate(-306.49 -212.12)"/><path class="cls-9" d="M405.53,301.13a135.53,135.53,0,0,0-77.68-1.39" transform="translate(-306.49 -212.12)"/><path class="cls-9" d="M405.48,309.78a135.53,135.53,0,0,0-77.68-1.39" transform="translate(-306.49 -212.12)"/><path class="cls-9" d="M405.43,318.43a135.65,135.65,0,0,0-77.68-1.4" transform="translate(-306.49 -212.12)"/><path class="cls-9" d="M405.39,327.07a135.53,135.53,0,0,0-77.68-1.39" transform="translate(-306.49 -212.12)"/><path class="cls-9" d="M405.34,335.72a135.53,135.53,0,0,0-77.68-1.39" transform="translate(-306.49 -212.12)"/><path class="cls-6" d="M432.86,335.28a135.53,135.53,0,0,1,77.68,1.39l.26-47.08a135.65,135.65,0,0,0-77.68-1.4Z" transform="translate(-306.49 -212.12)"/><path class="cls-6" d="M328,272.87a135.53,135.53,0,0,1,77.68,1.39l.26-47.08a135.65,135.65,0,0,0-77.68-1.4Z" transform="translate(-306.49 -212.12)"/></g></g></svg>