<svg id="Слой_1" data-name="Слой 1" xmlns="http://www.w3.org/2000/svg" viewBox="0 0 126.41 154.03"><defs><style>.cls-1{fill:#17202d;}.cls-2{fill:#d2db60;}.cls-3{fill:#828a2d;}</style></defs><path class="cls-1" d="M480.19,280.22a3.84,3.84,0,0,0-3.64.79c-9.62,8.14-16.52,17.57-27.6,21.49a10.19,10.19,0,0,1-6.62.4c-2.13-.73-3.91-2.81-3.71-5.06.25-2.83,3.19-4.52,5.76-5.72l14.88-6.94c6.54-3.05,13.81-7,15.51-14,1.29-5.28-1-10.38-3.41-15.26-1-2.08-7.55-8.41-9-6.7s-3.85,7.55-4.89,9.57a31,31,0,0,1-18,15.2,4.67,4.67,0,0,1-3.77,0c-1.41-.85-1.61-2.92-.88-4.39a10.17,10.17,0,0,1,3.45-3.45c4.53-3.27,9-6.7,12.51-11s7.68-8.23,7.61-13.81c-.05-3.5-5.84-9.3-9.22-10.2-4.21-1.11-3.62,2-6.39,6.47-2.27,3.71-7.94,11.91-11.62,6.78s9.79-8.27,10.34-14.33c.26-2.79-1.67-5.37-4-7s-5-2.54-7.4-4-4.11-2.52-4.18-4.73c-.72,4.73-5.62,8.8-10.84,10.73-3.49,1.29-7.84,2-9.41,5.35-1.91,4.1,1.87,8.42,5,11.68,3.91,4.09,7.45,9,7.73,14.7a4.74,4.74,0,0,1-1.24,3.93,7.52,7.52,0,0,1-5.4,1.37c-7.93-2-13.32-10.1-14.42-18.21-.36-2.64-1.11-6.27-3.78-6.18a4.65,4.65,0,0,0-2.49,1.15A47.7,47.7,0,0,0,380.43,250c-2,2.89-3.7,6.24-3.37,9.73.47,5,4.84,11.91,8.7,15.09,6.07,5,12.73,5.14,18,11,1.1,1.22,1.4,4.78,1.12,5.85a7.26,7.26,0,0,1-7.49,5.23,19.51,19.51,0,0,1-13.84-6.62c-3.46-4-5.12-9.2-7.36-14a5.67,5.67,0,0,0-2.58-3.09c-1.83-.76-4.1.28-5.24,1.89-3.82,5.38-6.14,13.14-6.4,20.45-.16,4.76.08,10,3.36,13.48,2.87,3,7.29,3.83,11.33,4.89a62.08,62.08,0,0,1,13.91,5.52c2.81,1.53,5.89,4.58,4.38,7.4-1.14,2.13-4.06,2.3-6.47,2.2-3.07-.12-6.26-.28-8.94-1.77-3.9-2.17-6.44-5.17-9.79-7.91-1.16-.94-3.78-5.14-4-1.64-.68,10.4,4.95,15.83,16.7,21a2.54,2.54,0,0,1,1.65,2,4.32,4.32,0,0,1-.6,1.79c-1.49,3.56,3,8.87,6.69,10.07,10,3.29,21.3-.15,24.65-13a36.43,36.43,0,0,1,2.55-7c5.59-9.7,9,6.27,10,10,1.56,5.57,4.65,11.15,9.88,13.63,5,2.37,13.18,1.31,18.24-.94,19-8.44,27.35-27.43,25.91-29.36s-9.87,6.3-28.36,3.21a8.14,8.14,0,0,1-4.34-1.63c-1.16-1.07-1.56-3.1-.44-4.2a4.27,4.27,0,0,1,2.92-.9c5.81-.26,11.65.51,17.44,0s11.82-2.6,15.29-7.27c2.07-2.79,3-6.23,3.75-9.63C489.35,297.58,484.55,282,480.19,280.22Zm-66.1-.23c-1.37,2.25-5.76,2.08-9.82-.37s-6.23-6.28-4.86-8.53,4.94-.75,9,1.71S415.45,277.74,414.09,280Zm7.32-43.77c-.74.69-2.48.47-3.72-.85s-1.49-3.24-.75-3.93,2,.26,3.26,1.58S422.15,235.53,421.41,236.22Zm24.8,76c-3.1.82-6.39-.16-6.91-1.69s2-2.68,5.15-3.49,5.58-1,6.1.54S449.32,311.4,446.21,312.21Z" transform="translate(-361.61 -212.71)"/><path class="cls-1" d="M426.58,228.14a1317.74,1317.74,0,0,0-4.53,138.24" transform="translate(-361.61 -212.71)"/><path class="cls-2" d="M426.21,228.14q-2.31,27-3.51,54.08-1.18,26.92-1.28,53.9,0,15.13.25,30.26a.38.38,0,0,0,.75,0q-.53-27.09.05-54.19t2.25-53.87q.94-15.1,2.24-30.18c0-.48-.71-.48-.75,0Z" transform="translate(-361.61 -212.71)"/><path class="cls-1" d="M448.29,246.46a75.94,75.94,0,0,1-24.18,20.11" transform="translate(-361.61 -212.71)"/><path class="cls-2" d="M448,246.19a80.13,80.13,0,0,1-8.43,9,73.58,73.58,0,0,1-9.6,7.45c-2,1.28-4,2.46-6.06,3.56-.43.23-.05.88.37.65a75.52,75.52,0,0,0,19.59-14.82q2.44-2.58,4.66-5.35c.3-.37-.23-.9-.53-.53Z" transform="translate(-361.61 -212.71)"/><path class="cls-1" d="M413.7,236.17a57.65,57.65,0,0,0,10.75,12" transform="translate(-361.61 -212.71)"/><path class="cls-2" d="M413.38,236.36a57.88,57.88,0,0,0,8.13,9.67c.86.83,1.76,1.63,2.67,2.4.37.31.9-.21.53-.53a57.17,57.17,0,0,1-8.62-9c-.72-.93-1.41-1.9-2.07-2.88-.26-.39-.91,0-.64.38Z" transform="translate(-361.61 -212.71)"/><path class="cls-1" d="M422.79,289a73.85,73.85,0,0,0,43.09-22.52" transform="translate(-361.61 -212.71)"/><path class="cls-2" d="M422.89,289.4a73.52,73.52,0,0,0,18.65-5.32,75.29,75.29,0,0,0,16.56-9.9,73.24,73.24,0,0,0,8-7.41c.33-.35-.2-.88-.53-.53a72.37,72.37,0,0,1-14.85,12.17,74,74,0,0,1-17.5,7.91,72.31,72.31,0,0,1-10.57,2.35c-.48.07-.28.79.2.73Z" transform="translate(-361.61 -212.71)"/><path class="cls-1" d="M422.56,313.75A52.37,52.37,0,0,0,474.76,302" transform="translate(-361.61 -212.71)"/><path class="cls-2" d="M422.46,314.11a49.8,49.8,0,0,0,10.8,2.34,52.43,52.43,0,0,0,11,0A54.31,54.31,0,0,0,455,314.13a52.5,52.5,0,0,0,10.12-4.46A49.82,49.82,0,0,0,474,303.2c.34-.31.67-.63,1-.95s-.19-.86-.53-.53a48.37,48.37,0,0,1-8.59,6.63,51.33,51.33,0,0,1-9.86,4.65,53.51,53.51,0,0,1-10.57,2.52,52.58,52.58,0,0,1-10.86.3,48.26,48.26,0,0,1-10.65-2l-1.31-.43c-.46-.15-.65.57-.2.73Z" transform="translate(-361.61 -212.71)"/><path class="cls-1" d="M422.17,323a32.31,32.31,0,0,1,13.27,17.25" transform="translate(-361.61 -212.71)"/><path class="cls-2" d="M422,323.29a32.09,32.09,0,0,1,11.3,12.58,31.73,31.73,0,0,1,1.8,4.44c.15.45.87.26.72-.2a32.67,32.67,0,0,0-9.47-14.47,32.29,32.29,0,0,0-4-3c-.41-.26-.79.39-.38.65Z" transform="translate(-361.61 -212.71)"/><path class="cls-1" d="M390.52,245c.05,7.69,5.14,14.64,11.51,19s13.92,6.45,21.32,8.52" transform="translate(-361.61 -212.71)"/><path class="cls-2" d="M390.15,245c.05,5.73,2.83,11,6.73,15.11,4.32,4.51,10,7.38,15.79,9.48,3.47,1.26,7,2.26,10.58,3.25a.37.37,0,0,0,.2-.72c-6.14-1.72-12.36-3.46-18-6.52a29.42,29.42,0,0,1-12.22-11.74A19.35,19.35,0,0,1,390.9,245a.38.38,0,0,0-.75,0Z" transform="translate(-361.61 -212.71)"/><path class="cls-1" d="M370.34,294.3c4.77,8.33,13.83,13.77,23.32,15.19s19.85-1.13,28.33-5.62" transform="translate(-361.61 -212.71)"/><path class="cls-2" d="M370,294.49a29.16,29.16,0,0,0,6.92,8.08,34.15,34.15,0,0,0,9.29,5.35,35.57,35.57,0,0,0,10.83,2.29A44,44,0,0,0,409.27,309a53.57,53.57,0,0,0,11.58-4.17c.45-.22.89-.45,1.33-.68s.05-.87-.38-.65a53.57,53.57,0,0,1-11.19,4.4,45,45,0,0,1-11.94,1.57,35.4,35.4,0,0,1-10.9-1.83,33.84,33.84,0,0,1-9.3-4.86,29.14,29.14,0,0,1-7.12-7.57c-.23-.38-.46-.75-.68-1.14a.38.38,0,0,0-.65.38Z" transform="translate(-361.61 -212.71)"/><path class="cls-1" d="M402.1,340a37.75,37.75,0,0,1,19.16-17.41" transform="translate(-361.61 -212.71)"/><path class="cls-2" d="M402.42,340.18a37,37,0,0,1,5.91-8.28,37.77,37.77,0,0,1,7.91-6.39,36.57,36.57,0,0,1,5.12-2.57c.44-.17.25-.9-.2-.72a38.2,38.2,0,0,0-16.26,12.61,36.64,36.64,0,0,0-3.12,5c-.23.43.42.81.64.38Z" transform="translate(-361.61 -212.71)"/><path class="cls-1" d="M380.2,331.38a20.54,20.54,0,0,0,9,2.05" transform="translate(-361.61 -212.71)"/><path class="cls-2" d="M380,331.7a21.13,21.13,0,0,0,9.17,2.11.38.38,0,0,0,0-.75,20.26,20.26,0,0,1-8.79-2c-.43-.21-.82.43-.38.64Z" transform="translate(-361.61 -212.71)"/><path class="cls-1" d="M393.89,332.42a3.07,3.07,0,0,0,2.31-.56" transform="translate(-361.61 -212.71)"/><path class="cls-2" d="M393.79,332.78a3.52,3.52,0,0,0,2.6-.59.4.4,0,0,0,.14-.52.39.39,0,0,0-.52-.13,3,3,0,0,1-.49.29s-.14.06-.08,0l-.15.05L395,332l-.28.05h-.68l-.07,0a.38.38,0,0,0-.46.27.38.38,0,0,0,.26.46Z" transform="translate(-361.61 -212.71)"/><path class="cls-1" d="M405.11,346.82a30.16,30.16,0,0,1,5.49-7.71" transform="translate(-361.61 -212.71)"/><path class="cls-2" d="M405.44,347a29.89,29.89,0,0,1,5.42-7.64.38.38,0,0,0-.53-.53,30.51,30.51,0,0,0-5.54,7.79c-.22.43.43.81.65.38Z" transform="translate(-361.61 -212.71)"/><path class="cls-1" d="M410.5,334.46l.63-.84" transform="translate(-361.61 -212.71)"/><path class="cls-2" d="M410.83,334.65l.62-.85a.35.35,0,0,0,0-.28.36.36,0,0,0-.17-.23.42.42,0,0,0-.29,0l-.09,0a.38.38,0,0,0-.14.14l-.62.84a.38.38,0,0,0,0,.29.44.44,0,0,0,.17.23.42.42,0,0,0,.29,0l.09,0a.47.47,0,0,0,.14-.14Z" transform="translate(-361.61 -212.71)"/><path class="cls-1" d="M432.44,324.87a20.47,20.47,0,0,1,6.89,9.38" transform="translate(-361.61 -212.71)"/><path class="cls-2" d="M432.25,325.19a20.08,20.08,0,0,1,6.71,9.16c.17.45.89.25.73-.2a21,21,0,0,0-7.06-9.6c-.38-.3-.76.36-.38.64Z" transform="translate(-361.61 -212.71)"/><path class="cls-1" d="M434.24,321.59a4.77,4.77,0,0,1,2.66,1.4" transform="translate(-361.61 -212.71)"/><path class="cls-2" d="M434.14,322a4.37,4.37,0,0,1,2.49,1.3.37.37,0,0,0,.53-.53,5.05,5.05,0,0,0-2.82-1.49.39.39,0,0,0-.46.26.37.37,0,0,0,.26.46Z" transform="translate(-361.61 -212.71)"/><path class="cls-1" d="M448.42,343.54a20.94,20.94,0,0,0,12.22-.24" transform="translate(-361.61 -212.71)"/><path class="cls-2" d="M448.32,343.9a21.45,21.45,0,0,0,12.42-.24c.46-.15.26-.88-.2-.73a20.6,20.6,0,0,1-12,.24.38.38,0,0,0-.2.73Z" transform="translate(-361.61 -212.71)"/><path class="cls-1" d="M459.66,338.74a13.34,13.34,0,0,0,8.28-2.36" transform="translate(-361.61 -212.71)"/><path class="cls-2" d="M459.66,339.12a13.82,13.82,0,0,0,8.47-2.42c.39-.27,0-.92-.38-.65a13.1,13.1,0,0,1-8.09,2.32c-.48,0-.48.72,0,.75Z" transform="translate(-361.61 -212.71)"/><path class="cls-1" d="M480.32,309.13a25.88,25.88,0,0,1-11.18,6.32" transform="translate(-361.61 -212.71)"/><path class="cls-2" d="M480.06,308.87a25.81,25.81,0,0,1-11,6.22.37.37,0,0,0,.19.72,26.52,26.52,0,0,0,11.36-6.41c.35-.34-.18-.87-.53-.53Z" transform="translate(-361.61 -212.71)"/><path class="cls-1" d="M465.74,314.08a22.89,22.89,0,0,1-5.35,2.07" transform="translate(-361.61 -212.71)"/><path class="cls-2" d="M465.55,313.76a23.18,23.18,0,0,1-5.26,2,.37.37,0,0,0,.2.72,24.15,24.15,0,0,0,5.44-2.11c.42-.22,0-.87-.38-.64Z" transform="translate(-361.61 -212.71)"/><path class="cls-1" d="M467.2,296l2.11-2.57" transform="translate(-361.61 -212.71)"/><path class="cls-2" d="M467.46,296.28l2.11-2.57a.38.38,0,0,0,0-.53.37.37,0,0,0-.53,0l-2.11,2.57a.39.39,0,0,0,0,.53.38.38,0,0,0,.53,0Z" transform="translate(-361.61 -212.71)"/><path class="cls-1" d="M425.18,304.06a10.14,10.14,0,0,0,6.77-.71" transform="translate(-361.61 -212.71)"/><path class="cls-2" d="M425.08,304.42a10.62,10.62,0,0,0,7.06-.75c.44-.21.06-.85-.38-.65a9.79,9.79,0,0,1-6.48.68c-.47-.12-.67.61-.2.72Z" transform="translate(-361.61 -212.71)"/><path class="cls-1" d="M433.2,291.68a6.83,6.83,0,0,0,4.12-.72" transform="translate(-361.61 -212.71)"/><path class="cls-2" d="M433.1,292.05a7.33,7.33,0,0,0,4.41-.77c.43-.23.05-.87-.38-.65a6.36,6.36,0,0,1-3.83.69.39.39,0,0,0-.46.27.38.38,0,0,0,.26.46Z" transform="translate(-361.61 -212.71)"/><path class="cls-1" d="M463.83,257.38a14.18,14.18,0,0,1-3.15,5.39" transform="translate(-361.61 -212.71)"/><path class="cls-2" d="M463.46,257.28a13.92,13.92,0,0,1-3,5.23c-.33.35.2.88.53.53a14.92,14.92,0,0,0,3.24-5.56c.14-.47-.58-.66-.73-.2Z" transform="translate(-361.61 -212.71)"/><path class="cls-1" d="M470.34,273.69a14.49,14.49,0,0,1-7.27,5.1" transform="translate(-361.61 -212.71)"/><path class="cls-2" d="M470,273.5a14.29,14.29,0,0,1-7,4.93c-.46.15-.27.87.2.73a15.11,15.11,0,0,0,7.5-5.29c.29-.38-.36-.75-.65-.37Z" transform="translate(-361.61 -212.71)"/><path class="cls-1" d="M433.61,253.14a13.71,13.71,0,0,0,4.47-2.76" transform="translate(-361.61 -212.71)"/><path class="cls-2" d="M433.71,253.51a14.59,14.59,0,0,0,4.63-2.86c.36-.33-.17-.86-.53-.53a13.58,13.58,0,0,1-4.3,2.66.38.38,0,0,0-.26.46.38.38,0,0,0,.46.27Z" transform="translate(-361.61 -212.71)"/><path class="cls-1" d="M440.9,248.26a49.64,49.64,0,0,0,7.53-10.07" transform="translate(-361.61 -212.71)"/><path class="cls-2" d="M441.17,248.52a50.74,50.74,0,0,0,7.59-10.14.38.38,0,0,0-.65-.38,49.59,49.59,0,0,1-7.47,10c-.34.35.19.88.53.53Z" transform="translate(-361.61 -212.71)"/><path class="cls-1" d="M382.5,253.5a17.1,17.1,0,0,0,3.62,7.65" transform="translate(-361.61 -212.71)"/><path class="cls-2" d="M382.14,253.6a17.57,17.57,0,0,0,3.71,7.81c.31.37.84-.16.53-.53a16.72,16.72,0,0,1-3.51-7.48c-.1-.47-.82-.27-.73.2Z" transform="translate(-361.61 -212.71)"/><path class="cls-1" d="M389.71,265.13l1.41,1.5" transform="translate(-361.61 -212.71)"/><path class="cls-2" d="M389.44,265.39l1.41,1.51a.39.39,0,0,0,.53,0,.37.37,0,0,0,0-.53L390,264.86a.38.38,0,0,0-.53,0,.39.39,0,0,0,0,.53Z" transform="translate(-361.61 -212.71)"/><path class="cls-1" d="M371.74,282a34,34,0,0,0,9.52,16.17" transform="translate(-361.61 -212.71)"/><path class="cls-2" d="M371.37,282.11a34.55,34.55,0,0,0,6.76,13.25,32.19,32.19,0,0,0,2.87,3.08c.35.34.88-.19.53-.53a33.32,33.32,0,0,1-9.43-16,.38.38,0,0,0-.73.2Z" transform="translate(-361.61 -212.71)"/><path class="cls-1" d="M384.11,300.36l1.76.87" transform="translate(-361.61 -212.71)"/><path class="cls-2" d="M383.92,300.68l1.76.87a.37.37,0,0,0,.51-.13.39.39,0,0,0-.14-.52L384.3,300a.37.37,0,0,0-.51.13.38.38,0,0,0,.13.51Z" transform="translate(-361.61 -212.71)"/><path class="cls-1" d="M436,226.67a15.52,15.52,0,0,1-6.64,5.24" transform="translate(-361.61 -212.71)"/><path class="cls-2" d="M435.64,226.48a15.27,15.27,0,0,1-6.42,5.07.38.38,0,0,0-.26.46.37.37,0,0,0,.46.26,16.12,16.12,0,0,0,6.86-5.41c.29-.39-.36-.76-.64-.38Z" transform="translate(-361.61 -212.71)"/><path class="cls-1" d="M435.77,231.91a3.85,3.85,0,0,1-2.07,1.44" transform="translate(-361.61 -212.71)"/><path class="cls-2" d="M435.44,231.72s-.05.08,0,0,0,0,0,0l-.09.11-.21.22-.23.21-.06,0s0,0,0,0l-.13.1a4.27,4.27,0,0,1-.51.3l-.15.07c-.06,0,.08,0,0,0l-.06,0-.31.1a.38.38,0,0,0,.2.73,4.43,4.43,0,0,0,2.29-1.62.39.39,0,0,0-.13-.52.4.4,0,0,0-.52.14Z" transform="translate(-361.61 -212.71)"/><path class="cls-1" d="M420.14,226.75c.46.8.91,1.6,1.36,2.4" transform="translate(-361.61 -212.71)"/><path class="cls-2" d="M419.82,226.94c.45.8.9,1.6,1.36,2.4a.37.37,0,1,0,.64-.38l-1.35-2.4a.38.38,0,0,0-.65.38Z" transform="translate(-361.61 -212.71)"/><path class="cls-1" d="M400.77,318.48a17.36,17.36,0,0,0,9.12-1.56" transform="translate(-361.61 -212.71)"/><path class="cls-2" d="M400.77,318.86a17.9,17.9,0,0,0,9.31-1.62c.44-.2.06-.85-.38-.64a17.15,17.15,0,0,1-8.93,1.51c-.48-.05-.48.7,0,.75Z" transform="translate(-361.61 -212.71)"/><path class="cls-1" d="M413.14,315.55a1.18,1.18,0,0,0,1.17-.56" transform="translate(-361.61 -212.71)"/><path class="cls-2" d="M413,315.91l.27,0a1.07,1.07,0,0,0,.25,0,1.36,1.36,0,0,0,.43-.14,1.52,1.52,0,0,0,.64-.59.37.37,0,1,0-.64-.38l-.08.12.06-.08a1,1,0,0,1-.21.2l.08-.05a1.82,1.82,0,0,1-.27.15l.09,0a.9.9,0,0,1-.32.09h-.1a.41.41,0,0,0-.29,0,.36.36,0,0,0-.18.22.41.41,0,0,0,0,.29.33.33,0,0,0,.23.17Z" transform="translate(-361.61 -212.71)"/><path class="cls-1" d="M411.29,292.1a14.75,14.75,0,0,0,4.4,0" transform="translate(-361.61 -212.71)"/><path class="cls-2" d="M411.2,292.46a15.69,15.69,0,0,0,4.59,0,.37.37,0,0,0,.26-.46.39.39,0,0,0-.46-.26,14.08,14.08,0,0,1-4.2,0,.39.39,0,0,0-.46.27.38.38,0,0,0,.27.46Z" transform="translate(-361.61 -212.71)"/><path class="cls-1" d="M402.44,303.57a15.85,15.85,0,0,0,8.45-1.36" transform="translate(-361.61 -212.71)"/><path class="cls-2" d="M402.44,303.94a16.16,16.16,0,0,0,8.64-1.41c.44-.2.06-.85-.38-.65a15.54,15.54,0,0,1-8.26,1.31c-.48-.05-.48.7,0,.75Z" transform="translate(-361.61 -212.71)"/><path class="cls-1" d="M427.41,281.6a8.34,8.34,0,0,0,4.21-1.22" transform="translate(-361.61 -212.71)"/><path class="cls-2" d="M427.41,282a9,9,0,0,0,4.4-1.28.38.38,0,0,0-.38-.65,8,8,0,0,1-4,1.18.38.38,0,0,0,0,.75Z" transform="translate(-361.61 -212.71)"/><path class="cls-1" d="M428.17,276.29a1.6,1.6,0,0,0,1.24-.76" transform="translate(-361.61 -212.71)"/><path class="cls-2" d="M428.17,276.66a2,2,0,0,0,1.56-.94.39.39,0,0,0-.13-.52.4.4,0,0,0-.52.14l-.06.1h0s0,0,0,0a1.29,1.29,0,0,1-.16.17l-.05,0,0,0,0,0-.09.06-.22.11.09,0a1.74,1.74,0,0,1-.39.11l.1,0h-.11a.44.44,0,0,0-.27.11.46.46,0,0,0-.11.27.38.38,0,0,0,.38.37Z" transform="translate(-361.61 -212.71)"/><path class="cls-3" d="M479.88,278.57a3.81,3.81,0,0,0-3.65.79c-9.61,8.14-16.51,17.56-27.59,21.48a10.2,10.2,0,0,1-6.62.4c-2.13-.73-3.91-2.81-3.71-5.05.25-2.83,3.18-4.52,5.76-5.72l14.88-7c6.54-3,13.81-6.95,15.51-14,1.29-5.28-1-10.38-3.41-15.26-1-2.08-7.55-8.42-9-6.7s-3.86,7.55-4.89,9.56a31,31,0,0,1-18,15.21,4.67,4.67,0,0,1-3.77,0c-1.41-.85-1.61-2.93-.88-4.4a10.23,10.23,0,0,1,3.45-3.44c4.52-3.27,9-6.7,12.51-11s7.68-8.24,7.6-13.81c-.05-3.5-5.83-9.31-9.21-10.2-4.21-1.12-3.63,2-6.39,6.47-2.28,3.71-8,11.9-11.62,6.77s9.78-8.26,10.34-14.33c.26-2.79-1.67-5.36-4-7s-5-2.55-7.4-4-4.11-2.52-4.18-4.73c-.72,4.72-5.63,8.79-10.84,10.73-3.49,1.29-7.85,2-9.41,5.35-1.91,4.1,1.86,8.41,5,11.68,3.91,4.08,7.45,9,7.73,14.69a4.75,4.75,0,0,1-1.24,3.94,7.55,7.55,0,0,1-5.41,1.37c-7.92-2-13.31-10.1-14.41-18.21-.36-2.65-1.12-6.28-3.79-6.18a4.58,4.58,0,0,0-2.48,1.15,47.51,47.51,0,0,0-10.62,11.07c-2,2.89-3.7,6.24-3.37,9.72.47,5,4.84,11.91,8.69,15.09,6.08,5,12.73,5.15,18,11,1.09,1.23,1.4,4.79,1.12,5.86a7.27,7.27,0,0,1-7.49,5.23,19.48,19.48,0,0,1-13.84-6.63c-3.47-4-5.12-9.19-7.37-14a5.64,5.64,0,0,0-2.57-3.08c-1.83-.76-4.1.28-5.25,1.89-3.81,5.38-6.13,13.14-6.39,20.45-.17,4.76.08,10,3.36,13.48,2.87,3,7.29,3.82,11.32,4.88a61.71,61.71,0,0,1,13.92,5.53c2.8,1.53,5.89,4.58,4.38,7.4-1.14,2.12-4.07,2.3-6.48,2.2-3.06-.13-6.25-.29-8.93-1.78-3.91-2.16-6.45-5.16-9.8-7.9-1.16-1-3.78-5.15-4-1.64-.68,10.4,4.95,15.83,16.7,21a2.55,2.55,0,0,1,1.65,2,4.47,4.47,0,0,1-.6,1.79c-1.49,3.56,3,8.87,6.68,10.07,10.05,3.29,21.31-.15,24.65-13a35.71,35.71,0,0,1,2.56-7c5.59-9.71,9,6.26,10,10,1.56,5.58,4.64,11.16,9.88,13.64,5,2.37,13.18,1.3,18.24-.94,19-8.44,27.35-27.43,25.9-29.36s-9.86,6.3-28.35,3.21a8.21,8.21,0,0,1-4.35-1.64c-1.15-1.07-1.55-3.09-.43-4.2a4.35,4.35,0,0,1,2.92-.9c5.81-.26,11.65.51,17.44,0s11.82-2.6,15.29-7.27c2.06-2.78,3-6.23,3.75-9.62C489,295.92,484.24,280.31,479.88,278.57Zm-66.11-.23c-1.36,2.25-5.76,2.08-9.81-.38s-6.23-6.27-4.87-8.53,5-.74,9,1.71S415.14,276.08,413.77,278.34Zm7.33-43.77c-.74.69-2.48.47-3.72-.85s-1.49-3.24-.76-3.93,2,.26,3.27,1.58S421.83,233.88,421.1,234.57Zm24.8,76c-3.11.81-6.39-.17-6.91-1.69s2-2.68,5.14-3.5,5.59-1,6.11.55S449,309.75,445.9,310.56Z" transform="translate(-361.61 -212.71)"/><path class="cls-2" d="M425.89,226.48q-2.29,27-3.5,54.08t-1.28,53.9q0,15.14.25,30.26a.38.38,0,0,0,.75,0q-.53-27.09.05-54.19t2.25-53.87q.94-15.09,2.23-30.18c.05-.48-.7-.47-.75,0Z" transform="translate(-361.61 -212.71)"/><path class="cls-2" d="M447.71,244.54a81,81,0,0,1-8.43,9,74.46,74.46,0,0,1-9.6,7.45q-3,1.91-6.07,3.56c-.42.22-.05.87.38.65a75.26,75.26,0,0,0,19.59-14.83c1.63-1.71,3.18-3.5,4.66-5.34.3-.37-.23-.91-.53-.53Z" transform="translate(-361.61 -212.71)"/><path class="cls-2" d="M413.06,234.71a59.19,59.19,0,0,0,8.13,9.67c.87.83,1.76,1.63,2.68,2.4.37.31.9-.22.53-.53a57.69,57.69,0,0,1-8.63-9c-.71-.94-1.4-1.9-2.06-2.88-.27-.4-.92,0-.65.38Z" transform="translate(-361.61 -212.71)"/><path class="cls-2" d="M422.57,287.74a73.28,73.28,0,0,0,18.65-5.32,74.59,74.59,0,0,0,16.57-9.9,73.15,73.15,0,0,0,8-7.4c.33-.35-.2-.89-.53-.53a72.69,72.69,0,0,1-14.85,12.17A73.1,73.1,0,0,1,422.37,287c-.47.07-.27.79.2.72Z" transform="translate(-361.61 -212.71)"/><path class="cls-2" d="M422.15,312.45a49.86,49.86,0,0,0,10.79,2.35,51.85,51.85,0,0,0,11,0,54.29,54.29,0,0,0,10.78-2.28A53.31,53.31,0,0,0,464.83,308a50.08,50.08,0,0,0,8.89-6.48c.33-.31.67-.62,1-.94s-.18-.87-.53-.53a49.25,49.25,0,0,1-8.58,6.63,52.31,52.31,0,0,1-9.87,4.65,53.88,53.88,0,0,1-10.57,2.52,52.48,52.48,0,0,1-10.85.3,49.06,49.06,0,0,1-10.66-2c-.43-.13-.87-.27-1.3-.42s-.66.57-.2.72Z" transform="translate(-361.61 -212.71)"/><path class="cls-2" d="M421.66,321.63A32,32,0,0,1,433,334.22a31,31,0,0,1,1.81,4.43c.15.46.87.27.72-.2A32.73,32.73,0,0,0,426,324a33.09,33.09,0,0,0-4-3c-.4-.26-.78.39-.38.64Z" transform="translate(-361.61 -212.71)"/><path class="cls-2" d="M389.83,243.32c.06,5.72,2.84,11,6.74,15.1,4.32,4.52,10,7.39,15.78,9.49,3.48,1.25,7,2.25,10.59,3.25a.38.38,0,0,0,.2-.73c-6.14-1.71-12.36-3.45-18-6.51a29.43,29.43,0,0,1-12.22-11.74,19.36,19.36,0,0,1-2.35-8.86.38.38,0,0,0-.75,0Z" transform="translate(-361.61 -212.71)"/><path class="cls-2" d="M369.71,292.84a29.3,29.3,0,0,0,6.92,8.08,34.08,34.08,0,0,0,9.29,5.34,35.22,35.22,0,0,0,10.83,2.29A43.66,43.66,0,0,0,409,307.39a53.57,53.57,0,0,0,11.58-4.17c.45-.22.89-.45,1.33-.68s.05-.88-.38-.65a53,53,0,0,1-11.19,4.39,44.27,44.27,0,0,1-11.95,1.57A35.09,35.09,0,0,1,387.46,306a33.67,33.67,0,0,1-9.3-4.85,29,29,0,0,1-7.12-7.58c-.24-.37-.46-.75-.68-1.13a.38.38,0,0,0-.65.38Z" transform="translate(-361.61 -212.71)"/><path class="cls-2" d="M402.11,338.53a37.23,37.23,0,0,1,5.9-8.28,37.76,37.76,0,0,1,7.92-6.39,36.57,36.57,0,0,1,5.12-2.57c.44-.18.25-.9-.2-.72a37.7,37.7,0,0,0-9,5.17,38.35,38.35,0,0,0-7.29,7.44,37,37,0,0,0-3.12,5c-.22.43.43.81.65.38Z" transform="translate(-361.61 -212.71)"/><path class="cls-2" d="M379.7,330.05a21.09,21.09,0,0,0,9.17,2.1.38.38,0,0,0,0-.75,20.23,20.23,0,0,1-8.79-2c-.44-.21-.82.44-.38.65Z" transform="translate(-361.61 -212.71)"/><path class="cls-2" d="M393.48,331.12a3.44,3.44,0,0,0,2.6-.59.38.38,0,0,0-.38-.65,2.48,2.48,0,0,1-.49.3l-.09,0-.14,0-.27.08-.28.06h-.75a.39.39,0,0,0-.47.26.38.38,0,0,0,.27.46Z" transform="translate(-361.61 -212.71)"/><path class="cls-2" d="M405.12,345.36a29.82,29.82,0,0,1,5.43-7.64c.34-.35-.19-.88-.53-.53a30.51,30.51,0,0,0-5.54,7.79c-.22.43.43.81.64.38Z" transform="translate(-361.61 -212.71)"/><path class="cls-2" d="M410.51,333l.63-.85a.41.41,0,0,0,0-.29.39.39,0,0,0-.18-.22.35.35,0,0,0-.28,0l-.09,0a.35.35,0,0,0-.14.13l-.62.85a.36.36,0,0,0,0,.29.38.38,0,0,0,.46.26l.09,0a.33.33,0,0,0,.13-.13Z" transform="translate(-361.61 -212.71)"/><path class="cls-2" d="M431.94,323.54a20.08,20.08,0,0,1,6.71,9.15c.16.45.89.26.72-.2a21,21,0,0,0-7.05-9.6c-.39-.29-.76.36-.38.65Z" transform="translate(-361.61 -212.71)"/><path class="cls-2" d="M433.83,320.3a4.41,4.41,0,0,1,2.49,1.3.37.37,0,1,0,.53-.53,5.13,5.13,0,0,0-2.82-1.5.4.4,0,0,0-.47.27.39.39,0,0,0,.27.46Z" transform="translate(-361.61 -212.71)"/><path class="cls-2" d="M448,342.24a21.37,21.37,0,0,0,12.42-.24c.45-.15.26-.87-.2-.72a20.6,20.6,0,0,1-12,.24.37.37,0,0,0-.2.72Z" transform="translate(-361.61 -212.71)"/><path class="cls-2" d="M459.35,337.46a13.76,13.76,0,0,0,8.46-2.41c.4-.28,0-.93-.38-.65a13.06,13.06,0,0,1-8.08,2.31c-.48,0-.48.73,0,.75Z" transform="translate(-361.61 -212.71)"/><path class="cls-2" d="M479.75,307.21a25.58,25.58,0,0,1-11,6.22.38.38,0,0,0,.2.73,26.44,26.44,0,0,0,11.36-6.42c.34-.33-.19-.86-.53-.53Z" transform="translate(-361.61 -212.71)"/><path class="cls-2" d="M465.24,312.1a23.18,23.18,0,0,1-5.26,2,.38.38,0,0,0,.2.73,23.89,23.89,0,0,0,5.43-2.11c.43-.23.05-.88-.37-.65Z" transform="translate(-361.61 -212.71)"/><path class="cls-2" d="M467.15,294.63l2.11-2.58a.37.37,0,1,0-.53-.53l-2.11,2.58a.37.37,0,0,0,.53.53Z" transform="translate(-361.61 -212.71)"/><path class="cls-2" d="M424.77,302.77a10.68,10.68,0,0,0,7.06-.75c.43-.21.05-.86-.38-.65A9.79,9.79,0,0,1,425,302a.38.38,0,0,0-.2.73Z" transform="translate(-361.61 -212.71)"/><path class="cls-2" d="M432.79,290.39a7.32,7.32,0,0,0,4.41-.76c.42-.23.05-.88-.38-.65a6.43,6.43,0,0,1-3.83.69.39.39,0,0,0-.46.26.37.37,0,0,0,.26.46Z" transform="translate(-361.61 -212.71)"/><path class="cls-2" d="M463.15,255.62a13.79,13.79,0,0,1-3,5.23c-.32.36.21.89.53.53a14.58,14.58,0,0,0,3.24-5.56c.15-.46-.57-.66-.72-.2Z" transform="translate(-361.61 -212.71)"/><path class="cls-2" d="M469.71,271.84a14.23,14.23,0,0,1-7.06,4.94c-.46.14-.26.87.2.72a15.08,15.08,0,0,0,7.51-5.28c.29-.38-.36-.76-.65-.38Z" transform="translate(-361.61 -212.71)"/><path class="cls-2" d="M433.39,251.85A14.35,14.35,0,0,0,438,249c.36-.32-.17-.85-.53-.53a13.55,13.55,0,0,1-4.31,2.67.4.4,0,0,0-.26.46.38.38,0,0,0,.46.26Z" transform="translate(-361.61 -212.71)"/><path class="cls-2" d="M440.86,246.87a50.48,50.48,0,0,0,7.58-10.15c.24-.42-.41-.8-.64-.38a49.94,49.94,0,0,1-7.47,10c-.34.34.19.88.53.53Z" transform="translate(-361.61 -212.71)"/><path class="cls-2" d="M381.83,251.94a17.61,17.61,0,0,0,3.71,7.82c.31.37.84-.16.53-.53a16.9,16.9,0,0,1-3.52-7.48c-.09-.48-.81-.28-.72.19Z" transform="translate(-361.61 -212.71)"/><path class="cls-2" d="M389.13,263.74l1.41,1.5a.37.37,0,0,0,.53,0,.39.39,0,0,0,0-.53l-1.41-1.5a.37.37,0,0,0-.53,0,.39.39,0,0,0,0,.53Z" transform="translate(-361.61 -212.71)"/><path class="cls-2" d="M371.06,280.46a34.6,34.6,0,0,0,6.75,13.25,35,35,0,0,0,2.88,3.08c.35.33.88-.2.53-.53a33.65,33.65,0,0,1-8.15-12,33.2,33.2,0,0,1-1.28-4,.38.38,0,0,0-.73.2Z" transform="translate(-361.61 -212.71)"/><path class="cls-2" d="M383.61,299l1.75.87a.39.39,0,0,0,.52-.14.37.37,0,0,0-.14-.51l-1.75-.87a.38.38,0,0,0-.51.14.37.37,0,0,0,.13.51Z" transform="translate(-361.61 -212.71)"/><path class="cls-2" d="M435.32,224.83a15.18,15.18,0,0,1-6.41,5.07.37.37,0,0,0,.2.72,16.18,16.18,0,0,0,6.86-5.41c.29-.39-.36-.77-.65-.38Z" transform="translate(-361.61 -212.71)"/><path class="cls-2" d="M435.13,230.07s-.06.07,0,0,0,0,0,0l-.09.12-.21.22-.23.21-.07.05h0l-.13.09a3.4,3.4,0,0,1-.52.31l-.14.07c-.06,0,.08,0,0,0l-.06,0-.31.1a.37.37,0,0,0,.2.72,4.32,4.32,0,0,0,2.29-1.62.38.38,0,0,0-.13-.51.4.4,0,0,0-.52.14Z" transform="translate(-361.61 -212.71)"/><path class="cls-2" d="M419.51,225.29l1.35,2.39a.39.39,0,0,0,.52.14.39.39,0,0,0,.13-.52l-1.36-2.39a.37.37,0,1,0-.64.38Z" transform="translate(-361.61 -212.71)"/><path class="cls-2" d="M400.45,317.2a17.81,17.81,0,0,0,9.32-1.61c.44-.2.06-.85-.38-.65a17.07,17.07,0,0,1-8.94,1.51c-.48,0-.47.71,0,.75Z" transform="translate(-361.61 -212.71)"/><path class="cls-2" d="M412.72,314.26l.27,0,.26,0a1.48,1.48,0,0,0,.42-.14,1.55,1.55,0,0,0,.65-.59.38.38,0,1,0-.65-.38l-.07.11,0-.07-.2.2.07-.06a1,1,0,0,1-.26.16l.09,0a1.68,1.68,0,0,1-.32.09l.1,0a.94.94,0,0,1-.29,0h.08a.38.38,0,0,0-.29,0,.38.38,0,0,0-.17.22.38.38,0,0,0,.26.46Z" transform="translate(-361.61 -212.71)"/><path class="cls-2" d="M410.88,290.8a15.42,15.42,0,0,0,4.6,0,.37.37,0,1,0-.2-.72,14.42,14.42,0,0,1-4.2,0,.39.39,0,0,0-.46.26.37.37,0,0,0,.26.46Z" transform="translate(-361.61 -212.71)"/><path class="cls-2" d="M402.12,302.29a16.39,16.39,0,0,0,8.65-1.41c.44-.2.06-.85-.38-.65a15.57,15.57,0,0,1-8.27,1.31c-.47-.06-.47.69,0,.75Z" transform="translate(-361.61 -212.71)"/><path class="cls-2" d="M427.1,280.32a8.88,8.88,0,0,0,4.4-1.27.38.38,0,0,0-.38-.65,8.06,8.06,0,0,1-4,1.17.38.38,0,0,0,0,.75Z" transform="translate(-361.61 -212.71)"/><path class="cls-2" d="M427.85,275a2,2,0,0,0,1.57-.95.38.38,0,0,0-.65-.38l-.06.11s-.07.07,0,0l0,0-.17.17,0,0,0,0,0,0-.09.06a1.51,1.51,0,0,1-.22.11l.09,0a1.43,1.43,0,0,1-.39.11h0a.41.41,0,0,0-.26.11.35.35,0,0,0-.11.27.37.37,0,0,0,.37.37Z" transform="translate(-361.61 -212.71)"/></svg>