<svg xmlns="http://www.w3.org/2000/svg" viewBox="0 0 110.54 114.54"><defs><style>.cls-1{isolation:isolate;}.cls-2{fill:#17202d;mix-blend-mode:multiply;opacity:0.81;}.cls-3{fill:#fff;}.cls-4{fill:#eb5c96;}.cls-5{fill:#f9b03d;}.cls-6{fill:#343434;opacity:0.1;}</style></defs><g class="cls-1"><g id="Слой_1" data-name="Слой 1"><path class="cls-2" d="M462.94,362.7c.16-.31.32-.62.47-.94s.46-.92.68-1.38l.46-1,.57-1.34c.14-.36.29-.71.42-1.07s.34-.89.5-1.34.25-.71.37-1.07c.17-.51.33-1,.48-1.54s.34-1.18.5-1.77c.11-.43.23-.85.33-1.28h0a55.22,55.22,0,0,0,.7-22h0c-.07-.43-.16-.86-.25-1.3s-.22-1.09-.34-1.63-.19-.86-.3-1.29h0A54.79,54.79,0,0,0,458,303.86h0c-.27-.35-.55-.69-.83-1s-.76-.95-1.16-1.41-.7-.82-1.06-1.22l-.78-.82-1-1-.83-.8-1.06-1-.83-.74-1.18-1-.81-.67-1.38-1.05-.71-.53c-.71-.51-1.44-1-2.18-1.5s-1.5-.94-2.25-1.39l-.78-.43c-.5-.29-1-.57-1.52-.84l-.94-.47c-.46-.23-.92-.46-1.38-.67l-1-.47-1.35-.56c-.35-.15-.7-.3-1.06-.43l-1.34-.49-1.07-.38c-.52-.17-1-.33-1.55-.48s-1.17-.34-1.76-.5c-.43-.11-.85-.23-1.28-.33h0a55.08,55.08,0,0,0-22-.69h0c-.43.07-.87.16-1.3.25l-1.63.34-1.29.3h0a54.79,54.79,0,0,0-19.85,9.54h0l-1,.82-1.42,1.18c-.41.34-.81.69-1.21,1.05l-.83.78-1,1c-.27.27-.54.55-.8.83s-.67.7-1,1.06-.5.55-.74.84-.67.77-1,1.17-.45.54-.67.82c-.36.45-.7.91-1.05,1.37-.18.24-.36.47-.53.71-.52.71-1,1.44-1.5,2.18s-1,1.5-1.39,2.26c-.15.25-.29.51-.43.77-.29.5-.57,1-.84,1.52-.16.31-.32.63-.47.94s-.46.92-.67,1.38-.32.68-.47,1-.38.89-.56,1.33-.3.71-.43,1.07-.34.9-.5,1.34l-.37,1.08c-.17.51-.33,1-.48,1.54s-.34,1.17-.5,1.76c-.11.43-.23.85-.33,1.28h0a55.27,55.27,0,0,0-.7,22h0c.07.43.16.86.25,1.3s.22,1.09.34,1.64.19.86.3,1.28h0a54.91,54.91,0,0,0,9.54,19.86h0c.27.35.55.69.83,1s.76.94,1.16,1.4.7.82,1.06,1.22l.78.83,1,1,.83.8,1.06,1,.83.75,1.18,1,.82.67c.44.36.9.71,1.37,1.05l.71.53c.71.52,1.44,1,2.18,1.5s1.5,1,2.25,1.39l.78.44,1.52.83.94.48,1.38.67,1,.46,1.35.57,1.06.43,1.35.49c.35.12.71.26,1.06.37.52.18,1,.33,1.55.48s1.17.34,1.76.5c.43.11.85.23,1.28.33h0a55.27,55.27,0,0,0,22,.7h0c.43-.07.86-.16,1.3-.25s1.09-.22,1.64-.34.86-.19,1.28-.3h0A54.79,54.79,0,0,0,447.46,381h0l1-.82q.72-.57,1.41-1.17c.41-.35.82-.7,1.22-1.06s.55-.52.83-.78.69-.65,1-1l.8-.82c.34-.35.67-.71,1-1.07s.5-.55.74-.83.67-.78,1-1.18l.67-.81c.36-.45.7-.91,1.05-1.38.18-.24.36-.47.53-.71.52-.71,1-1.44,1.5-2.18s1-1.5,1.39-2.25c.15-.26.29-.52.43-.78C462.39,363.72,462.67,363.21,462.94,362.7Zm-27.66-10.24c-.08.12-.17.24-.26.35s-.32.43-.49.64l-.34.41c-.14.18-.29.35-.44.52l-.39.44-.42.44c-.14.15-.29.31-.44.45l-.38.38-.5.46-.28.25c-.47.41-1,.81-1.45,1.19a26,26,0,0,1-8.28,4.19,26.39,26.39,0,0,1-4.22.89h0a25.84,25.84,0,0,1-9.26-.49h0c-.61-.14-1.21-.31-1.81-.5L406,362l-.65-.23-.5-.18-.58-.23-.56-.24-.54-.24-.61-.3-.48-.24c-.23-.12-.47-.25-.7-.39l-.38-.21c-.36-.21-.72-.43-1.07-.66s-.69-.46-1-.71l-.35-.26-.64-.48-.41-.34-.52-.45c-.15-.12-.29-.26-.44-.39l-.44-.41-.45-.44-.37-.39c-.16-.17-.32-.33-.47-.5s-.16-.19-.25-.28c-.41-.47-.81-.95-1.19-1.45h0a26.18,26.18,0,0,1-5.08-12.5h0a25.84,25.84,0,0,1,.49-9.26h0c.14-.61.31-1.21.5-1.81,0-.12.07-.24.11-.36s.15-.43.23-.64l.18-.51.24-.58c.07-.19.15-.37.23-.56l.24-.54.3-.61.24-.48.39-.7.21-.38c.21-.36.43-.72.66-1.07s.47-.69.71-1l.26-.35c.16-.21.32-.43.49-.63l.34-.42.44-.52.39-.44.42-.44.44-.45c.12-.13.25-.25.38-.37l.5-.47.28-.25c.48-.41,1-.81,1.45-1.19a26.2,26.2,0,0,1,8.28-4.19h0a26.39,26.39,0,0,1,4.22-.89h0a25.9,25.9,0,0,1,9.27.49c.6.14,1.2.31,1.8.5l.36.11.65.23.5.18.58.24.56.23.54.25.61.29.48.24.7.39.38.21c.36.21.71.43,1.06.65h0c.35.22.69.46,1,.7l.35.26.64.49.41.34c.18.14.35.29.52.44l.44.39.44.42c.15.14.31.29.45.44s.25.25.37.38.32.33.47.5.17.19.25.28c.41.48.81,1,1.19,1.45a26.2,26.2,0,0,1,4.19,8.28h0a26.39,26.39,0,0,1,.89,4.22,25.84,25.84,0,0,1-.49,9.26h0c-.14.61-.31,1.22-.5,1.82l-.11.35c-.07.22-.15.43-.23.65l-.18.5c-.07.19-.16.39-.24.59s-.15.37-.23.55l-.24.54-.3.61-.24.48-.39.7-.21.38c-.21.36-.43.71-.65,1.06h0C435.76,351.79,435.52,352.13,435.28,352.46Z" transform="translate(-358.67 -277.73)"/><path class="cls-3" d="M443.81,286.66a55.08,55.08,0,1,1-76.21,16.1A55.09,55.09,0,0,1,443.81,286.66Zm-51.92,31.92A26.09,26.09,0,1,0,428,311,26.09,26.09,0,0,0,391.89,318.58Z" transform="translate(-358.67 -277.73)"/><path class="cls-4" d="M391.89,318.58A26.1,26.1,0,0,1,398,312L380.42,289a55.27,55.27,0,0,0-20.26,31.1l28.2,6.75A26.12,26.12,0,0,1,391.89,318.58Z" transform="translate(-358.67 -277.73)"/><path class="cls-4" d="M435.62,347.06a26.08,26.08,0,0,1-6.11,6.56l17.58,23.05a55.2,55.2,0,0,0,20.26-31.09l-28.2-6.76A26.27,26.27,0,0,1,435.62,347.06Z" transform="translate(-358.67 -277.73)"/><path class="cls-4" d="M428,311a26.1,26.1,0,0,1,6.56,6.11l23.06-17.58a55.2,55.2,0,0,0-31.09-20.25l-6.76,28.19A26.12,26.12,0,0,1,428,311Z" transform="translate(-358.67 -277.73)"/><path class="cls-4" d="M399.52,354.68a25.92,25.92,0,0,1-6.56-6.11L369.9,366.15A55.29,55.29,0,0,0,401,386.41l6.76-28.2A25.9,25.9,0,0,1,399.52,354.68Z" transform="translate(-358.67 -277.73)"/><path class="cls-5" d="M439.64,329.56l28.41-6c-.25-1.42-.54-2.83-.9-4.23l-28.41,6A26.53,26.53,0,0,1,439.64,329.56Z" transform="translate(-358.67 -277.73)"/><path class="cls-5" d="M387.88,336.07l-28.42,6c.25,1.42.54,2.83.9,4.23l28.41-6A25.45,25.45,0,0,1,387.88,336.07Z" transform="translate(-358.67 -277.73)"/><path class="cls-5" d="M410.5,306.94l-6-28.41c-1.42.24-2.83.54-4.23.89l6,28.41A26.51,26.51,0,0,1,410.5,306.94Z" transform="translate(-358.67 -277.73)"/><path class="cls-5" d="M417,358.7l6,28.41c1.42-.24,2.83-.54,4.23-.89l-6-28.42A25.48,25.48,0,0,1,417,358.7Z" transform="translate(-358.67 -277.73)"/><path class="cls-6" d="M431.29,305.9a32.13,32.13,0,1,1-44.46,9.38A32.12,32.12,0,0,1,431.29,305.9Zm-39.4,12.68A26.09,26.09,0,1,0,428,311,26.09,26.09,0,0,0,391.89,318.58Z" transform="translate(-358.67 -277.73)"/></g></g></svg>