<svg id="Слой_1" data-name="Слой 1" xmlns="http://www.w3.org/2000/svg" viewBox="0 0 102.17 119.67"><defs><style>.cls-1,.cls-4{fill:#17202d;}.cls-1{opacity:0.8;}.cls-2{fill:#da5f5b;}.cls-3{fill:#e2824e;stroke:#da5e5a;stroke-miterlimit:10;stroke-width:0.25px;}.cls-4{opacity:0.82;}</style></defs><path class="cls-1" d="M399,259.6c.17-7.56-1.89-16.81-6.1-23.19-2.36-3.59-5.53-9.28-9.77-8.6-2.76.44-6.43,2.75-8.58,4.41-7.71,5.93-9.73,21-9.53,29,.35,13.52,4.27,26.9,8.93,39.5,4.15,11.22,11,24.19,21,24.33,2,0,7.29-2,9.85-4.27,4.45-4,2.93-8.59.81-16.86-1.36-5.28-3.82-10-5.43-15.12C397,278.57,398.77,269.83,399,259.6Z" transform="translate(-365.01 -224.07)"/><path class="cls-2" d="M401.27,257.18c.17-7.56-1.89-16.81-6.1-23.19-2.36-3.59-5.53-9.28-9.77-8.6-2.76.44-6.43,2.75-8.58,4.41-7.71,5.93-9.73,21-9.52,28.95.34,13.52,4.26,26.9,8.92,39.51,4.15,11.21,11,24.18,21,24.32,2,0,7.28-2,9.84-4.27,4.45-4,2.93-8.59.81-16.86-1.36-5.28-3.82-10-5.43-15.12C399.22,276.15,401,267.41,401.27,257.18Z" transform="translate(-365.01 -224.07)"/><path class="cls-3" d="M405.32,254.07c.17-7.56-1.89-16.81-6.09-23.19-2.37-3.59-6.18-6.5-10.48-6.67-14.28-.56-17.67,21.21-17.4,31.43.34,13.52,4.26,26.91,8.92,39.51,4.15,11.21,11,24.18,21,24.32,8.34.12,13.44-10.25,10.65-21.13-1.36-5.28-3.82-10-5.43-15.12C403.27,273,405.09,264.3,405.32,254.07Z" transform="translate(-365.01 -224.07)"/><path class="cls-2" d="M388.83,241a20.61,20.61,0,0,1-3.4,12.19c-2.7,4.12-6.66,6.43-11,8.51-2,.95-.25,3.9,1.73,3a37.55,37.55,0,0,0,7.37-4.32,23.3,23.3,0,0,0,4.87-5.42A23.79,23.79,0,0,0,392.26,241c-.1-2.2-3.52-2.21-3.43,0Z" transform="translate(-365.01 -224.07)"/><path class="cls-2" d="M389.89,246.94a33.27,33.27,0,0,1,14.26,20c.53,2.14,3.83,1.23,3.3-.91a36.72,36.72,0,0,0-15.83-22c-1.86-1.2-3.58,1.77-1.73,2.95Z" transform="translate(-365.01 -224.07)"/><path class="cls-4" d="M431,281c2.77-7,8.25-14.77,14.59-19,3.57-2.39,8.69-6.42,12.35-4.15,2.37,1.47,4.85,5,6.2,7.39,4.81,8.45.86,23.09-2.41,30.38-5.55,12.33-14.34,23.16-23.51,33-8.17,8.74-19.5,18.05-28.74,14.32-1.85-.74-5.95-4.64-7.43-7.74-2.57-5.38.62-9.05,5.78-15.86,3.29-4.34,7.37-7.71,10.85-11.85C425.51,299.3,427.22,290.54,431,281Z" transform="translate(-365.01 -224.07)"/><path class="cls-2" d="M431.8,277.5c2.77-7,8.25-14.77,14.59-19,3.57-2.4,8.69-6.42,12.34-4.15,2.38,1.47,4.86,5,6.21,7.39,4.81,8.44.86,23.09-2.42,30.38-5.54,12.33-14.33,23.16-23.51,33-8.16,8.74-19.49,18.05-28.73,14.33-1.85-.75-5.95-4.65-7.43-7.75-2.58-5.37.61-9.05,5.78-15.86,3.29-4.34,7.37-7.71,10.85-11.84C426.35,295.78,428.06,287,431.8,277.5Z" transform="translate(-365.01 -224.07)"/><path class="cls-3" d="M429.44,273.1c2.77-7,8.25-14.77,14.59-19,3.57-2.39,8.21-3.61,12.24-2.1,13.39,5,8.09,26.39,3.9,35.72-5.55,12.33-14.34,23.16-23.52,33-8.16,8.73-19.49,18.05-28.73,14.32-7.74-3.12-8.44-14.65-1.65-23.6,3.29-4.35,7.37-7.72,10.85-11.85C424,291.39,425.7,282.62,429.44,273.1Z" transform="translate(-365.01 -224.07)"/><path class="cls-2" d="M446.47,265.86a24.24,24.24,0,0,0-1.86,14.85c1,5.39,4.05,9.56,7.63,13.58,1.47,1.65,3.88-.78,2.42-2.42-3.11-3.5-5.7-7-6.67-11.69a20.28,20.28,0,0,1,1.44-12.59c.93-2-2-3.73-3-1.73Z" transform="translate(-365.01 -224.07)"/><path class="cls-2" d="M445.57,269.11a36.71,36.71,0,0,0-23,14.33,1.71,1.71,0,1,0,3,1.73,33.37,33.37,0,0,1,21-12.76c2.17-.37,1.25-3.68-.91-3.3Z" transform="translate(-365.01 -224.07)"/></svg>