<svg id="Слой_1" data-name="Слой 1" xmlns="http://www.w3.org/2000/svg" viewBox="0 0 84.36 81.72"><defs><style>.cls-1{fill:#e47476;}.cls-2{fill:#370f11;opacity:0.22;}.cls-3{fill:#de5456;}.cls-4,.cls-6{fill:#fff;}.cls-5{fill:#010101;}.cls-6{opacity:0.35;}</style></defs><path class="cls-1" d="M381.1,282.18c-1.64,4.15,18.74,16.84,21,22.05s-9.19,27-5.67,30.21,20-15.3,24.71-15.85c4.06-.48,22.9,19.3,27,17.51s-8.1-27-6.27-31.65,25.63-16.68,23.3-22.07c-2.11-4.85-28.84,2.24-31.61-.86-3.31-3.68-3.8-27.1-8.89-27s-10.23,22.83-14.2,26.65S382.83,277.8,381.1,282.18Z" transform="translate(-381 -254.49)"/><path class="cls-2" d="M447.66,334.43c-2.19-.4-4.16-2.15-5.81-3.54a33.16,33.16,0,0,1-5.16-5.75,73.46,73.46,0,0,0-4.86-6,54.63,54.63,0,0,0-5.14-5.18A6.42,6.42,0,0,0,421,312.4c-2.2.56-4,2.23-5.49,3.83-1.75,1.87-3.42,3.81-5.11,5.74-3.34,3.81-6.74,7.8-10.83,10.84a6.93,6.93,0,0,1-3.09,1.42.45.45,0,0,0-.2,0,1.27,1.27,0,0,0,.21.25c3.51,3.17,20-15.3,24.71-15.85,4.06-.48,22.9,19.3,27,17.51.52-.23.78-.82.84-1.71A3.43,3.43,0,0,1,447.66,334.43Z" transform="translate(-381 -254.49)"/><path class="cls-2" d="M465.21,282.38h0a56,56,0,0,1-15.8,11.37c-3,1.45-6.86,2.35-9,5.17a5.67,5.67,0,0,0-1.18,4.1c.26,1.93,1.33,3.83,2.07,5.61l2.21,5.34c-1.32-4.33-2.21-8-1.62-9.51C443.74,299.81,467.54,287.77,465.21,282.38Z" transform="translate(-381 -254.49)"/><path class="cls-3" d="M424.93,260.23a1.28,1.28,0,0,0-.37-.66,1.22,1.22,0,0,0-.57-.28,1.41,1.41,0,0,0-1.11.26,1.26,1.26,0,0,0-.2.2,1.6,1.6,0,0,0-.5.79,1.47,1.47,0,0,0,.14,1.35,1.27,1.27,0,0,0,1.29.43,1.73,1.73,0,0,0,1.1-.9A1.77,1.77,0,0,0,424.93,260.23Z" transform="translate(-381 -254.49)"/><path class="cls-3" d="M424,269c.06-.18.11-.37.16-.55a2.71,2.71,0,0,0,0-.75.28.28,0,0,0,0-.09c0-.14-.07-.29-.11-.43a2,2,0,0,0-.24-.45,3.23,3.23,0,0,0-.34-.37l-.11-.09a2.4,2.4,0,0,0-1-.4,1.61,1.61,0,0,0-.31,0,1.82,1.82,0,0,0-.33,0,2.07,2.07,0,0,0-.92.38l0,0-.31.29-.05.06a2.2,2.2,0,0,0-.27.47,3.9,3.9,0,0,0-.12.46s0,.05,0,.07a2.44,2.44,0,0,0,0,.54h0a1.57,1.57,0,0,0-.08.29v0a2.67,2.67,0,0,0,0,.4,2.07,2.07,0,0,0,.1.43,1.58,1.58,0,0,0,.24.44,1.49,1.49,0,0,0,.17.18,1.62,1.62,0,0,0,.18.19,3.07,3.07,0,0,0,.39.23l.06,0,.26.08.26.06h.52a2.36,2.36,0,0,0,.51-.12l.06,0a2.82,2.82,0,0,0,.38-.21,2.19,2.19,0,0,0,.42-.38.69.69,0,0,0,.11-.13,4.85,4.85,0,0,0,.29-.49Z" transform="translate(-381 -254.49)"/><path class="cls-3" d="M424.29,277.67a3.13,3.13,0,0,0,.1-.44,3.51,3.51,0,0,0,0-.65,1.26,1.26,0,0,0,0-.27,2.49,2.49,0,0,0-.16-.55,2.58,2.58,0,0,0-.49-.7,1.66,1.66,0,0,0-.32-.38,2.27,2.27,0,0,0-.72-.46,2.48,2.48,0,0,0-.84-.18,2.81,2.81,0,0,0-.58,0,3,3,0,0,0-.59.15,1.88,1.88,0,0,0-.38.18,2.74,2.74,0,0,0-.36.23,2.83,2.83,0,0,0-1,1.81c0,.2,0,.4,0,.6a1.24,1.24,0,0,0,0,.27,4,4,0,0,0,.16.59,2.89,2.89,0,0,0,.29.55,1.07,1.07,0,0,0,.15.22,3.33,3.33,0,0,0,.46.46,4.79,4.79,0,0,0,.53.34l.27.13a3.25,3.25,0,0,0,.92.22,3.42,3.42,0,0,0,.64,0h.13a1.63,1.63,0,0,0,.8-.3l.14-.14a.7.7,0,0,0,.24-.3l.13-.23a.75.75,0,0,0,.07-.12l.15-.28A4,4,0,0,0,424.29,277.67Z" transform="translate(-381 -254.49)"/><path class="cls-3" d="M443.45,290.12a1.45,1.45,0,0,0,0-.29,3.11,3.11,0,0,0,0-.61,3.46,3.46,0,0,0-.13-.64,2.33,2.33,0,0,0-1.8-1.67,2.26,2.26,0,0,0-2,.87,2.5,2.5,0,0,0-.29.41,3,3,0,0,0-.26.24,2.71,2.71,0,0,0-.31.49l-.09.19a2.61,2.61,0,0,0-.15,1.14,2.19,2.19,0,0,0,.41,1.05,2.37,2.37,0,0,0,.93.76,2.9,2.9,0,0,0,.57.18,1,1,0,0,0,.25,0,3,3,0,0,0,1.18-.14l.21-.09a3,3,0,0,0,.52-.32,2.7,2.7,0,0,0,.76-1A3.22,3.22,0,0,0,443.45,290.12Z" transform="translate(-381 -254.49)"/><path class="cls-3" d="M437.12,311.53a1.5,1.5,0,0,0,0-.22,2.84,2.84,0,0,0-.16-.57,2.55,2.55,0,0,0-.66-.93,2.42,2.42,0,0,0-1.08-.49,1.76,1.76,0,0,0-.4,0,2.54,2.54,0,0,0-.39,0,2.58,2.58,0,0,0-.56.16,2.36,2.36,0,0,0-.48.29,2.19,2.19,0,0,0-.52.63,2.57,2.57,0,0,0-.61,1,2.65,2.65,0,0,0-.15,1.15,2.82,2.82,0,0,0,.12.52,1.07,1.07,0,0,0,.07.19,2.46,2.46,0,0,0,.53.77,1.6,1.6,0,0,0,.26.26,3.58,3.58,0,0,0,.49.3,1.82,1.82,0,0,0,.71.21,2.35,2.35,0,0,0,1.08-.13l.09,0,.42-.23a2.73,2.73,0,0,0,.46-.44,3.42,3.42,0,0,0,.48-.77A3.36,3.36,0,0,0,437.12,311.53Z" transform="translate(-381 -254.49)"/><path class="cls-3" d="M410.58,312.32a2.35,2.35,0,0,0-.33-.57,1.27,1.27,0,0,0-.25-.54,2,2,0,0,0-1.3-.76,2.26,2.26,0,0,0-1.46.35,3.48,3.48,0,0,0-1.12,1.42,3.85,3.85,0,0,0-.5,1.51,2.76,2.76,0,0,0,.56,1.92,2.31,2.31,0,0,0,2.13.88,2.7,2.7,0,0,0,1.65-1A3.37,3.37,0,0,0,410.58,312.32Z" transform="translate(-381 -254.49)"/><path class="cls-3" d="M404.14,290.89a2.92,2.92,0,0,0,0-.59,3.5,3.5,0,0,0-.13-.56,2.43,2.43,0,0,0-.36-.72,3.22,3.22,0,0,0-.39-.43.9.9,0,0,0-.19-.15,2.7,2.7,0,0,0-1.15-.47,2.37,2.37,0,0,0-.88,0,3.7,3.7,0,0,0-.57.16,2.89,2.89,0,0,0-.55.29,2.37,2.37,0,0,0-.64.58,2.69,2.69,0,0,0-.51,1.13,2.26,2.26,0,0,0,0,.82,3,3,0,0,0,.38,1,1.11,1.11,0,0,0,.14.29,2.21,2.21,0,0,0,.6.58,3.5,3.5,0,0,0,.57.3l.08,0,.41.11.07,0h0a1.43,1.43,0,0,0,.29,0h.44a1.11,1.11,0,0,0,.34-.08l.3-.07.24-.1a2.88,2.88,0,0,0,.94-.72,2.76,2.76,0,0,0,.4-.71A2.8,2.8,0,0,0,404.14,290.89Z" transform="translate(-381 -254.49)"/><path class="cls-3" d="M451.2,287.42s0-.08,0-.11a2.41,2.41,0,0,0,0-.38s0-.07,0-.11a2,2,0,0,0-.09-.35l-.05-.11a2,2,0,0,0-.19-.31,1.48,1.48,0,0,0-.24-.26.39.39,0,0,0-.1-.08,2,2,0,0,0-.31-.19l-.07,0a1.92,1.92,0,0,0-.32-.09,1.61,1.61,0,0,0-.31,0,.94.94,0,0,0-.47,0,1,1,0,0,0-.54.54l0,.05a1.41,1.41,0,0,0-.19.39.94.94,0,0,0,0,.16l0,.08c-.05.11-.09.22-.14.34a.3.3,0,0,1,0,.08,1.05,1.05,0,0,0,0,.78,1.38,1.38,0,0,0,.36.47.27.27,0,0,0,.08.07,2.07,2.07,0,0,0,.32.19l.09,0a2.42,2.42,0,0,0,.36.1h.58l.35-.09a1.34,1.34,0,0,0,.4-.23,1.42,1.42,0,0,0,.25-.24.39.39,0,0,0,.08-.1,1.39,1.39,0,0,0,.18-.31A2.47,2.47,0,0,0,451.2,287.42Z" transform="translate(-381 -254.49)"/><path class="cls-3" d="M441.39,319.68a1.46,1.46,0,0,0-.26-.73,1.34,1.34,0,0,0-.27-.31,1.47,1.47,0,0,0-.76-.31,1.51,1.51,0,0,0-.52.05l-.05,0a1.48,1.48,0,0,0-.47,0,1.91,1.91,0,0,0-.7.26l-.11.08a1.79,1.79,0,0,0-.27.28,1.7,1.7,0,0,0-.3.77,2,2,0,0,0,.1.8.94.94,0,0,0,.06.15,2.67,2.67,0,0,0,.22.36,1.71,1.71,0,0,0,1,.62.57.57,0,0,0,.18,0h.41a2.6,2.6,0,0,0,.4-.1,1.69,1.69,0,0,0,.52-.26l.14-.11a2.72,2.72,0,0,0,.29-.3,1.86,1.86,0,0,0,.27-.5A2.12,2.12,0,0,0,441.39,319.68Z" transform="translate(-381 -254.49)"/><path class="cls-3" d="M405.22,322.36a2.38,2.38,0,0,0,0-.38,1.54,1.54,0,0,0-.09-.37,1.61,1.61,0,0,0-.24-.47,1.8,1.8,0,0,0-.26-.29l-.11-.09-.17-.11a1.4,1.4,0,0,0-.17-.09,1.76,1.76,0,0,0-.39-.12.82.82,0,0,0-.38,0,.8.8,0,0,0-.35.16c-.05,0-.07.09-.11.13a2,2,0,0,0-.29.15l-.08.06a2.83,2.83,0,0,0-.24.25.19.19,0,0,0-.06.07,2.48,2.48,0,0,0-.18.31.36.36,0,0,0,0,.09,2.25,2.25,0,0,0-.09.35.31.31,0,0,0,0,.1,1.37,1.37,0,0,0,0,.35,3,3,0,0,0,.08.32.42.42,0,0,0,0,.1,1.56,1.56,0,0,0,.43.56,1.23,1.23,0,0,0,.4.23,2.19,2.19,0,0,0,.34.1l.12,0a1.49,1.49,0,0,0,.47,0,1.6,1.6,0,0,0,.44-.13l.3-.17a2.16,2.16,0,0,0,.27-.25,1.41,1.41,0,0,0,.25-.41A1.37,1.37,0,0,0,405.22,322.36Z" transform="translate(-381 -254.49)"/><path class="cls-3" d="M394.6,288.07s0-.05,0-.07,0-.22,0-.33a.24.24,0,0,0,0-.08v0a1,1,0,0,0,0-.34,1.07,1.07,0,0,0-.1-.4,1.45,1.45,0,0,0-.22-.36,1.75,1.75,0,0,0-.52-.42l-.08,0a2,2,0,0,0-.33-.08,1.32,1.32,0,0,0-.65.08.87.87,0,0,0-.35.26,1.58,1.58,0,0,0-.56.25,1.61,1.61,0,0,0-.59,1.48c0,.1.05.21.09.31s.09.18.14.27a1.42,1.42,0,0,0,.29.31,1.3,1.3,0,0,0,.38.21,1.53,1.53,0,0,0,.34.09h.17a1.26,1.26,0,0,0,.76.13,1.45,1.45,0,0,0,.6-.22,1.93,1.93,0,0,0,.3-.27,1.57,1.57,0,0,0,.21-.34A1.51,1.51,0,0,0,394.6,288.07Z" transform="translate(-381 -254.49)"/><path class="cls-3" d="M387.42,284.14a1.58,1.58,0,0,0-.39-.5,1.31,1.31,0,0,0-.58-.28.62.62,0,0,0-.51.19,2.11,2.11,0,0,0-.25.27,1.77,1.77,0,0,0-.3.67.74.74,0,0,0,.14.49,1,1,0,0,0,.19.21,1.26,1.26,0,0,0,.52.25l.2,0h.09a1.26,1.26,0,0,0,.38.1.53.53,0,0,0,.53-.3A1.35,1.35,0,0,0,387.42,284.14Z" transform="translate(-381 -254.49)"/><path class="cls-3" d="M401.11,328.78a1.91,1.91,0,0,0-.06-.48,1.17,1.17,0,0,0-.42-.58l-.09,0-.05,0a1,1,0,0,0-.34-.11.87.87,0,0,0-.36,0,1.27,1.27,0,0,0-.64.3,1.52,1.52,0,0,0-.3.37,1.12,1.12,0,0,0-.11.34,1.06,1.06,0,0,0,.14.7,1.27,1.27,0,0,0,1.1.65,1.1,1.1,0,0,0,1.06-.76A1.53,1.53,0,0,0,401.11,328.78Z" transform="translate(-381 -254.49)"/><path class="cls-3" d="M444.79,327.25a1.14,1.14,0,0,0-.4-.5,1.91,1.91,0,0,0-.32-.16,1.41,1.41,0,0,0-.45-.07.53.53,0,0,0-.24-.11.6.6,0,0,0-.37.09,1.34,1.34,0,0,0-.53,1.26,1.15,1.15,0,0,0,1,1,1.28,1.28,0,0,0,1.31-.75A1,1,0,0,0,444.79,327.25Z" transform="translate(-381 -254.49)"/><path class="cls-3" d="M458.1,284.63a1.28,1.28,0,0,0-.22-.95,1.4,1.4,0,0,0-.45-.39,1.17,1.17,0,0,0-.58-.12l-.12,0a.44.44,0,0,0-.16.1.55.55,0,0,0-.14.26,1.33,1.33,0,0,0-.32.15,1,1,0,0,0-.36.46.89.89,0,0,0,0,.68,1.09,1.09,0,0,0,.23.29.54.54,0,0,0,.15.15,1.4,1.4,0,0,0,.48.22,1.25,1.25,0,0,0,.81-.07,1.43,1.43,0,0,0,.42-.31A1.2,1.2,0,0,0,458.1,284.63Z" transform="translate(-381 -254.49)"/><path class="cls-4" d="M434.34,291.38a4.91,4.91,0,0,0-.75-3.55,2.93,2.93,0,0,0-3-.82,4.11,4.11,0,0,0-2.59,2.3,9.08,9.08,0,0,0-.79,4.14c0,.2.05.38.07.57a3.76,3.76,0,0,0,.76,2.58,3,3,0,0,0,2.75,1.08c1.26-.21,2-1.37,2.49-2.42A10.14,10.14,0,0,0,434.34,291.38Z" transform="translate(-381 -254.49)"/><path class="cls-4" d="M417.68,293.81a7.89,7.89,0,0,0-.87-3.43c-.24-.5-.52-1-.8-1.45a9.45,9.45,0,0,0-1-1.54c-1.44-1.56-3.83-.23-4.34,1.53a5.67,5.67,0,0,0-.28,2.74,13.43,13.43,0,0,0,.93,3.17,4,4,0,0,0,.94,1.48,5.51,5.51,0,0,0,1.54.93,2.32,2.32,0,0,0,2.92-.4A4.47,4.47,0,0,0,417.68,293.81Z" transform="translate(-381 -254.49)"/><path class="cls-5" d="M431.84,292.73a1.72,1.72,0,0,0-.1-.78,1,1,0,0,0-.76-.59,1.17,1.17,0,0,0-.79.19,1.14,1.14,0,0,0-.48.79,1,1,0,0,0,0,.24.84.84,0,0,0,0,.17,1.05,1.05,0,0,0,.22.76,1,1,0,0,0,.39.29,1.06,1.06,0,0,0,.5.06,1.2,1.2,0,0,0,.76-.39A1.44,1.44,0,0,0,431.84,292.73Z" transform="translate(-381 -254.49)"/><path class="cls-5" d="M415,292.92a.88.88,0,0,0,.06-.27,1,1,0,0,0,0-.25,1.09,1.09,0,0,0,0-.26.3.3,0,0,0,0-.1,1.71,1.71,0,0,0-.13-.23,1,1,0,0,0-.17-.19l-.06-.05a.94.94,0,0,0-.22-.12,1.13,1.13,0,0,0-.24-.08,1.83,1.83,0,0,0-.33,0l-.08,0-.24.06a1.11,1.11,0,0,0-.37.27,1.59,1.59,0,0,0-.13.22l0,.12a.5.5,0,0,0,0,.13.83.83,0,0,0,0,.35.29.29,0,0,0,0,.09.86.86,0,0,0,0,.16,1,1,0,0,0,.06.25,1.11,1.11,0,0,0,.29.39l0,0,.18.1,0,0,.21.06h.26l.1,0a1.09,1.09,0,0,0,.8-.6A.36.36,0,0,0,415,292.92Z" transform="translate(-381 -254.49)"/><path class="cls-5" d="M426.39,301.84a.43.43,0,0,0-.85.11,3.4,3.4,0,0,1-.79,2.58,2.42,2.42,0,0,1-2.42,1.08,3.86,3.86,0,0,1-2.47-4.21.43.43,0,0,0-.85-.12,4.78,4.78,0,0,0,1.89,4.54,3,3,0,0,0,2.63.61,4.45,4.45,0,0,0,2.86-4.59Z" transform="translate(-381 -254.49)"/><path class="cls-6" d="M422.36,273a73.72,73.72,0,0,0,2.81-11.53c.17-1.14.33-2.27.45-3.41.08-.72.3-1.71-.52-2.1a1.57,1.57,0,0,0-1.94.79c-.61.93-1.14,1.92-1.7,2.87a.37.37,0,0,0,0,.43,65.79,65.79,0,0,0-4.06,10.58c-.55,1.94-1,3.91-1.4,5.9-.25,1.39-.27,3.37,1.42,3.86,1.35.4,2.34-.84,2.86-1.92A44.59,44.59,0,0,0,422.36,273Z" transform="translate(-381 -254.49)"/><path class="cls-6" d="M460.71,283.2c-.47-.86-1.43-.68-2.28-.65l-3.59.11-6.95.21-3.47.11a21.61,21.61,0,0,0-3.12.2c-1.76.3-3.49,1.35-3.77,3.25a.44.44,0,0,0,.19.44c0,1.89,1.66,3,3.42,3.26a20.25,20.25,0,0,0,6.48-.56,36.21,36.21,0,0,0,6.54-2,19.25,19.25,0,0,0,6.48-3.91A.48.48,0,0,0,460.71,283.2Z" transform="translate(-381 -254.49)"/><path class="cls-6" d="M407.54,286.38c-.2-1.05-1.53-1.71-2.42-2.05a19.36,19.36,0,0,0-4.52-.89c-1.45-.18-2.9-.32-4.35-.44a33.37,33.37,0,0,0-10.17-.71.51.51,0,0,0-.4.69c.95,2.13,3.38,2.83,5.42,3.48a66,66,0,0,0,8.17,2.06,11.93,11.93,0,0,0,6.44-.14C406.54,288.06,407.73,287.46,407.54,286.38Z" transform="translate(-381 -254.49)"/><path class="cls-6" d="M410,309.58c0-1.54-.75-4.42-2.89-3.59a4.41,4.41,0,0,0-2,2.14,18.08,18.08,0,0,0-1.7,4.12.47.47,0,0,0,0,.31c-.9,2.3-1.72,4.63-2.43,7q-.84,2.73-1.5,5.52c-.28,1.14-1,3,.41,3.71a.48.48,0,0,0,.49-.06,19.91,19.91,0,0,0,4.2-5.71c1.28-2.34,2.46-4.74,3.53-7.18A16.71,16.71,0,0,0,410,309.58Z" transform="translate(-381 -254.49)"/><path class="cls-6" d="M445.84,327l-.63-1.82c-.9-4-1.9-7.89-3-11.79a.43.43,0,0,0-.21-.26,12.74,12.74,0,0,0-3.71-4.91c-.78-.63-1.66-1.07-2.42-.16a3.61,3.61,0,0,0-.61,2.89,16.92,16.92,0,0,0,1,3.33c.41,1.09.85,2.17,1.31,3.24.94,2.14,2,4.24,3.13,6.28a70.22,70.22,0,0,0,4.36,6.81.5.5,0,0,0,.86-.1A4.15,4.15,0,0,0,445.84,327Z" transform="translate(-381 -254.49)"/></svg>