<svg xmlns="http://www.w3.org/2000/svg" xmlns:xlink="http://www.w3.org/1999/xlink" viewBox="0 0 187.99 92.43"><defs><style>.cls-1{fill:none;}.cls-2{isolation:isolate;}.cls-3{fill:#828a2d;}.cls-4{fill:#d2db60;}.cls-5{fill:#e9445a;}.cls-6{fill:#612c26;}.cls-7{fill:#f7e9d0;}.cls-8{mix-blend-mode:soft-light;}.cls-9{fill:#fff;}.cls-10{clip-path:url(#clip-path);}</style><clipPath id="clip-path" transform="translate(-324.45 -263.09)"><path class="cls-1" d="M505.57,263.19a87.73,87.73,0,1,1-175.45.24Z"/></clipPath></defs><g class="cls-2"><g id="Слой_1" data-name="Слой 1"><path class="cls-3" d="M505.57,263.19a87.73,87.73,0,1,1-175.45.24Z" transform="translate(-324.45 -263.09)"/><path class="cls-4" d="M498.86,263.25c-1.88,42.9-37.12,78.29-80.49,78.35s-78.82-35.38-80.82-78.28" transform="translate(-324.45 -263.09)"/><path class="cls-5" d="M344.81,263.31c4.36,40.09,34.85,71.87,73.54,71.82,38.9-.05,70.45-31.65,74.51-72" transform="translate(-324.45 -263.09)"/><path class="cls-6" d="M409.93,306.25a4.52,4.52,0,0,0,1.05-1.13,3.49,3.49,0,0,0,.53-1.59,4.37,4.37,0,0,0-.69-3,1.08,1.08,0,0,0-1.45-.38,4.54,4.54,0,0,0-1.89,2.91,4.62,4.62,0,0,0,.7,3.49,1.26,1.26,0,0,0,1,.59,1.28,1.28,0,0,0,1-.59,3.39,3.39,0,0,0,.54-2.66,2.5,2.5,0,0,0-2-2.2,1.12,1.12,0,0,0-1.07,1.41,2,2,0,0,0,.44.78c.07.09.12.21,0-.06,0,.06.08.1.11.16l.12.21c.1.19-.1-.28,0-.06a2.79,2.79,0,0,1,.1.39s0,.06,0,.1,0,.08,0-.15c0,.06,0,.13,0,.19v.19a.49.49,0,0,0,0,.12c0-.21,0-.27,0-.17a2.85,2.85,0,0,0-.11.39c.06-.3.07-.17,0-.06l-.14.21,1.88-.24c-.14-.18.12.18.05.06s-.06-.08-.09-.13l-.15-.27s-.09-.22,0,0v0c0-.1-.07-.2-.1-.3l-.06-.31c0-.19,0,.23,0,.09s0-.1,0-.16a3.32,3.32,0,0,1,0-.63c0-.15,0,.08,0,.11a1.13,1.13,0,0,0,0-.18c0-.1.05-.21.08-.31a1.66,1.66,0,0,0,.1-.29s-.1.22,0,.09a1,1,0,0,0,.07-.15c.05-.09.1-.18.16-.27l.09-.13c.11-.17-.12.14,0,.05l.21-.23c.06-.06.36-.31.1-.11l-1.45-.38a3.27,3.27,0,0,1,.32.5l.08.15c.06.12,0,0,0-.06a1.76,1.76,0,0,0,.1.3c.06.18.11.37.16.56a.3.3,0,0,0,0,.13c0-.13,0-.16,0-.08a.2.2,0,0,0,0,.07c0,.1,0,.2,0,.31v.27c0,.06,0,.12,0,.17s0,.18,0,.05,0,0,0,.06,0,.22-.05.33,0,.09,0,.13,0-.11,0,0a5.47,5.47,0,0,1-.15.58s0,.1,0,0l-.06.12c-.05.1-.11.2-.17.3a.56.56,0,0,0,.09.66.55.55,0,0,0,.66.09Z" transform="translate(-324.45 -263.09)"/><path class="cls-6" d="M422,273.5a3.82,3.82,0,0,0,.14-1.3,3.31,3.31,0,0,0-.47-1.46,3.55,3.55,0,0,0-.87-1.09,4.68,4.68,0,0,0-1.41-.8,1,1,0,0,0-1.18.67,4.27,4.27,0,0,0,2.78,5.25,1.1,1.1,0,0,0,1.38-1,3.11,3.11,0,0,0-1-2.28,3.56,3.56,0,0,0-1.16-.71,2.09,2.09,0,0,0-.43-.11,1.49,1.49,0,0,0-1.28.34,1,1,0,0,0,0,1.43l.24.19.17.07c-.09,0-.1,0,0,0a1.69,1.69,0,0,0,.31.13l.32.08c.19.07-.24-.11-.07,0l.17.09.16.11c.16.11-.2-.18-.05,0a2.5,2.5,0,0,1,.23.23l.08.08c-.12-.14-.15-.18-.1-.11a.91.91,0,0,1,.11.16s0,.09.08.14-.09-.26,0-.06a2.24,2.24,0,0,1,.1.37l0-.29a1.55,1.55,0,0,1,0,.22l1.38-1.05-.3-.09s-.19-.08,0,0,0,0,0,0l-.24-.14-.13-.08c-.14-.1.16.13.07.05a4.17,4.17,0,0,1-.43-.41s-.13-.16,0,0,0,0,0,0-.11-.17-.17-.26l-.13-.26c-.08-.14,0,0,0,.08s0-.1-.06-.15a4.92,4.92,0,0,1-.14-.55c0-.19,0,.26,0,.06s0-.1,0-.15a1.13,1.13,0,0,1,0-.26.76.76,0,0,1,0-.15c0-.2,0,.24,0,0s0-.2.07-.3l-1.18.67.27.08-.05,0,.12.06a4.34,4.34,0,0,1,.46.28l0,0c-.11-.09-.07,0,.14.1a.35.35,0,0,0,.09.07c-.2-.11-.07-.06,0,0l.08.08.2.2.09.1c0,.05.08.15,0,0,.08.16.2.29.29.45s.17.3.25.46l.06.12c0,.06,0,.09,0,0l.09.26a2.72,2.72,0,0,1,.09.45.5.5,0,0,0,1,.14Z" transform="translate(-324.45 -263.09)"/><path class="cls-6" d="M475.82,280.26a4.1,4.1,0,0,0,.47-1.35,2.84,2.84,0,0,0,0-.92,4.74,4.74,0,0,0-.15-.75,4.51,4.51,0,0,0-2-2.59,1.07,1.07,0,0,0-1.45.38,4.68,4.68,0,0,0,1.65,6.31,1.2,1.2,0,0,0,1.75-.72,3.43,3.43,0,0,0-.42-2.67c-.55-.82-1.64-1.77-2.7-1.41a1.13,1.13,0,0,0-.5,1.87,1.44,1.44,0,0,0,.27.22c.08.05.07,0,0,0s.15.12.25.18l.36.2c.2.12-.22-.2,0,0l.14.13a.58.58,0,0,0,.13.14c-.13-.16-.15-.2-.08-.09l0,.07a3.35,3.35,0,0,1,.21.36c.1.19-.09-.28,0-.06a1.33,1.33,0,0,0,.05.19c0,.05,0,.13,0,.18,0-.22,0-.26,0-.13v.06a1.21,1.21,0,0,1,0,.19c0,.33,0-.21,0,0l1.75-.72-.29-.16-.12-.09c-.16-.11.17.15.07.06s-.31-.29-.45-.45.13.18.05.06a.83.83,0,0,0-.08-.12c-.06-.1-.12-.19-.17-.29s-.05-.09-.07-.14-.1-.21,0,0,0,0,0,0l-.06-.18a2.46,2.46,0,0,1-.07-.29l0-.15c0-.18,0,0,0,.08,0-.21,0-.42,0-.63,0-.05,0-.1,0-.15,0-.23-.06.26,0,.05s0-.2.07-.3.06-.19.09-.29-.11.23,0,0l.09-.16-1.45.38.25.15.14.1s-.18-.15-.06-.05a3.66,3.66,0,0,1,.44.44,2,2,0,0,1,.19.22s.11.18,0,.05,0,0,0,0a4.1,4.1,0,0,1,.3.54c0,.11,0,0,0,0a.44.44,0,0,1,.06.16l.09.28c0,.18.11.37.16.56a2.84,2.84,0,0,1,.06.31c0-.15,0,.12,0,.16a3,3,0,0,1,0,.6.55.55,0,0,0,1,.28Z" transform="translate(-324.45 -263.09)"/><path class="cls-6" d="M382.41,311.74a2.19,2.19,0,0,0-1.68,2.27,1,1,0,0,0,.36.71,1,1,0,0,0,.79.16,3.38,3.38,0,0,0,2-1.26,4.15,4.15,0,0,0,1-2.42,1,1,0,0,0-1.3-1,4,4,0,0,0-2.11,1.28,4.4,4.4,0,0,0-1,2.51,1.06,1.06,0,0,0,.43.86,1.14,1.14,0,0,0,1,.2,4.31,4.31,0,0,0,2.69-1.79,4.21,4.21,0,0,0,.67-1.38,4.37,4.37,0,0,0,.08-1.8,1.09,1.09,0,0,0-.52-.67,1.08,1.08,0,0,0-.86-.11,4.15,4.15,0,0,0-2.05,1.55,3.33,3.33,0,0,0-.65,2.24,1.14,1.14,0,0,0,.3.74,1.12,1.12,0,0,0,.75.31,1,1,0,0,0,.74-.31,1.2,1.2,0,0,0,.31-.74s0-.07,0-.11l0,.29a3.86,3.86,0,0,1,.26-.94l-.12.26a3.59,3.59,0,0,1,.39-.66l-.17.22a3.45,3.45,0,0,1,.54-.54l-.22.17a2.57,2.57,0,0,1,.62-.36l-.27.11.2-.07L383,310.39a3,3,0,0,1,0,.79l0-.3a3.14,3.14,0,0,1-.24.86l.12-.26a4,4,0,0,1-.46.77l.17-.23a2.55,2.55,0,0,1-.26.3,1.85,1.85,0,0,1-.14.14s-.25.21-.08.08,0,0-.07,0l-.17.11-.38.19.27-.11a2.72,2.72,0,0,1-.62.17l1.38,1.06a1.5,1.5,0,0,0,0-.2l0,.29a2.77,2.77,0,0,1,.2-.75l-.11.26A2.82,2.82,0,0,1,383,313c.05-.08.22-.23,0,0a.58.58,0,0,0,.1-.12l.23-.24c.07-.07.38-.3.08-.09l.28-.19.3-.15c-.27.15-.14.06-.06,0l.2-.07-1.31-1c0,.12,0,.24,0,.36l0-.27c0,.14-.05.27-.08.41a1.46,1.46,0,0,1-.07.19c-.09.25.08-.15,0,0a2.64,2.64,0,0,1-.2.37,1.63,1.63,0,0,1-.11.17c-.11.15.15-.19,0,0l-.27.28a1,1,0,0,0-.16.13l.07-.05-.08.06a6.37,6.37,0,0,1-.73.39l1.24.32c0,.06.06.2,0,.06s0-.06,0-.09,0,.21,0,.06a.27.27,0,0,1,0-.09s0-.17,0,0,0,0,0,0a1.52,1.52,0,0,1,.06-.2c0-.07-.07.11,0,0a.33.33,0,0,0,.06-.1c.06-.1,0,0,0,0s.07-.08.08-.09l.06-.06c0-.06-.11.06,0,0s.25-.12.09-.06a.65.65,0,1,0-.34-1.25Z" transform="translate(-324.45 -263.09)"/><path class="cls-6" d="M417.22,325a2.15,2.15,0,0,0-1.44.6,2.21,2.21,0,0,0-.7,1.49.87.87,0,0,0,.27.64,1,1,0,0,0,.64.27,3.67,3.67,0,0,0,2.38-.95,4,4,0,0,0,1.28-2,1,1,0,0,0-1-1.31,4.3,4.3,0,0,0-2.52,1,4.16,4.16,0,0,0-1.35,2.09,1.11,1.11,0,0,0,1.06,1.39,4.44,4.44,0,0,0,4.4-4.15,1.14,1.14,0,0,0-.44-.89.91.91,0,0,0-.39-.2,1.18,1.18,0,0,0-.59,0,4,4,0,0,0-2.78,2,3.28,3.28,0,0,0-.39,1.37,1,1,0,0,0,.3.75,1.09,1.09,0,0,0,.61.29,1.06,1.06,0,0,0,1.15-.76c0-.1.07-.2.11-.3l-.11.26a3.63,3.63,0,0,1,.47-.84l-.18.22a3.24,3.24,0,0,1,.56-.55l-.23.17a3.14,3.14,0,0,1,.64-.37l-.27.11a2.66,2.66,0,0,1,.67-.18l-.3,0h.05L418,324a1.64,1.64,0,0,1,0,.22l0-.29a3,3,0,0,1-.21.78l.12-.26a3.71,3.71,0,0,1-.44.74l.17-.22a3.53,3.53,0,0,1-.64.64l.22-.17a3.48,3.48,0,0,1-.75.43l.27-.11a3.18,3.18,0,0,1-.79.21l.29,0a2.73,2.73,0,0,1-.41,0l1.06,1.38a3.1,3.1,0,0,1,.13-.4l-.11.27a3,3,0,0,1,.4-.69l-.17.22a3.72,3.72,0,0,1,.59-.6l-.22.17.29-.22-.22.17a3.59,3.59,0,0,1,.73-.43l-.26.11a3.09,3.09,0,0,1,.72-.2l-.27,0,.14,0-1-1.3a2.49,2.49,0,0,1-.16.53l.1-.24a3.54,3.54,0,0,1-.16.34,1.74,1.74,0,0,0-.11.18s-.16.21-.05.07,0,0-.06.06l-.12.13-.14.13c-.06.06-.26.2,0,0a2.11,2.11,0,0,1-.31.21,2.55,2.55,0,0,0-.33.17s.22-.08.09,0l-.08,0-.2.06-.38.11,1.11.63s0-.18,0,0,0,0,0,0v-.11c0-.1-.05.21,0,.07l.06-.22c0,.06-.07.16,0,.05l.06-.1c0-.09,0,0,0,0a.9.9,0,0,0,.09-.1s.06,0,.07-.06-.1.07,0,0l0,0a.27.27,0,0,1,.1-.06l.06,0s0,0,0,0h.05l.13,0a.65.65,0,0,0,.47-.71.66.66,0,0,0-.64-.57Z" transform="translate(-324.45 -263.09)"/><path class="cls-6" d="M467.71,301.34a2.14,2.14,0,0,0-1.43.59,2.21,2.21,0,0,0-.7,1.5.9.9,0,0,0,.26.64,1,1,0,0,0,.64.26,3.53,3.53,0,0,0,2.38-.95,3.94,3.94,0,0,0,1.28-2,1,1,0,0,0-1-1.3,4.21,4.21,0,0,0-2.51,1,4.08,4.08,0,0,0-1.35,2.09,1.1,1.1,0,0,0,1.06,1.38,4.42,4.42,0,0,0,4.39-4.15,1.06,1.06,0,0,0-.44-.88.78.78,0,0,0-.38-.2,1,1,0,0,0-.6,0,3.85,3.85,0,0,0-2.07,1.08,4,4,0,0,0-.71.92,3.48,3.48,0,0,0-.39,1.38,1,1,0,0,0,.31.74,1.06,1.06,0,0,0,1.76-.46,2.81,2.81,0,0,1,.1-.31l-.1.26a4,4,0,0,1,.46-.84l-.17.22a3.24,3.24,0,0,1,.56-.55l-.23.18a3.18,3.18,0,0,1,.64-.38l-.27.12a2.94,2.94,0,0,1,.66-.19l-.29,0h0l-1.12-1.12c0,.08,0,.15,0,.23l0-.3a3.69,3.69,0,0,1-.21.79l.11-.27a3.48,3.48,0,0,1-.43.75l.17-.23a3.64,3.64,0,0,1-.65.65l.23-.18a3.51,3.51,0,0,1-.75.44l.26-.11a3.46,3.46,0,0,1-.78.21l.29,0a2.82,2.82,0,0,1-.41,0l1,1.39a2.7,2.7,0,0,1,.14-.4l-.11.26a3.07,3.07,0,0,1,.39-.68l-.17.22a3.05,3.05,0,0,1,.59-.6l-.22.17.3-.23-.22.17a3.23,3.23,0,0,1,.72-.42l-.25.1a2.94,2.94,0,0,1,.72-.19l-.28,0h.14l-1-1.31a3.08,3.08,0,0,1-.16.54l.1-.24c-.05.11-.11.22-.17.33a1.74,1.74,0,0,1-.11.18s-.16.22,0,.07,0,0-.06.06a.86.86,0,0,1-.13.14l-.13.13c-.07.05-.27.2,0,0l-.32.21c-.09.06-.24.1-.33.17s.22-.09.1,0l-.09,0-.2.06-.38.11,1.11.63s0-.18,0,0,0,0,0,0,0-.08,0-.12-.05.21,0,.07,0-.14.07-.21-.07.15,0,0l0-.1a.49.49,0,1,0,0,0,.9.9,0,0,0,.09-.1.19.19,0,0,0,.07-.06l-.06,0,0,0,.1-.06.06,0h0c-.1,0,0,0,0,0l.14,0a.65.65,0,0,0,.46-.72.64.64,0,0,0-.64-.56Z" transform="translate(-324.45 -263.09)"/><path class="cls-6" d="M430.52,305.76a6.28,6.28,0,0,0,.39.83c.07.12.15.24.23.35l.09.12.15.21c.06.06.05.05,0,0a2.78,2.78,0,0,1,.22.29l.09.12a4.12,4.12,0,0,0,.28.31s.08.1.11.11-.11-.15-.06-.06a.81.81,0,0,0,.17.24l.3.28-.17-.22,0,0a1.18,1.18,0,0,0,.67.51,1.25,1.25,0,0,0,.85-.11,1.55,1.55,0,0,0,.75-1.39,2.72,2.72,0,0,0,0-.57,4.44,4.44,0,0,0-.49-1.69,3.9,3.9,0,0,0-1.17-1.32,2.67,2.67,0,0,0-.49-.3,3.37,3.37,0,0,0-1.17-.3,1.32,1.32,0,0,0-.92.38,1.34,1.34,0,0,0-.35.75,1.31,1.31,0,0,0,.92,1.42l.17.06-.32-.13a3.88,3.88,0,0,1,.8.44l-.27-.21a3.57,3.57,0,0,1,.61.62l-.2-.26a3.18,3.18,0,0,1,.38.64l-.13-.31a2.94,2.94,0,0,1,.19.72l0-.33a3.11,3.11,0,0,1,0,.61l0-.33a1.8,1.8,0,0,0,0,.73,1,1,0,0,0,.17.37l1-1.67h0l.29,0-.27-.09a1.78,1.78,0,0,0-.47-.09l.26,0,.1.05-.07,0-.13-.08-.21-.14s-.1-.09-.13-.09l.07.05a.18.18,0,0,0-.07-.05l-.2-.21-.19-.21-.1-.12c0,.07.07.09,0,0a4.76,4.76,0,0,1-.32-.51.71.71,0,0,0-.88-.29.69.69,0,0,0-.41.83Z" transform="translate(-324.45 -263.09)"/><path class="cls-6" d="M361.86,291.47a8.93,8.93,0,0,0,.39.83c.07.12.15.23.23.35l.09.12.16.2q.07.11,0,0a1.84,1.84,0,0,1,.22.29l.1.12.27.31s.08.1.11.11-.1-.15-.06-.06a.69.69,0,0,0,.18.24,3.83,3.83,0,0,0,.29.28l-.17-.22,0,0a1.16,1.16,0,0,0,.66.51,1.28,1.28,0,0,0,.86-.11c.57-.26.67-.84.74-1.39a2.72,2.72,0,0,0,0-.57,4.33,4.33,0,0,0-.48-1.69,4,4,0,0,0-1.18-1.32,2.41,2.41,0,0,0-.48-.3,3.42,3.42,0,0,0-1.18-.3,1.32,1.32,0,0,0-.92.38,1.41,1.41,0,0,0-.35.75,1.31,1.31,0,0,0,.93,1.42l.16.06-.31-.13a3.81,3.81,0,0,1,.79.44l-.27-.21a3.64,3.64,0,0,1,.62.62l-.21-.27a3.25,3.25,0,0,1,.38.65l-.13-.31a3,3,0,0,1,.2.72l-.05-.33a2.49,2.49,0,0,1,0,.61l.05-.33a1.64,1.64,0,0,0,0,.73,1,1,0,0,0,.18.37l1-1.67h-.05l.29,0-.26-.09a1.56,1.56,0,0,0-.47-.09l.25,0,.1.05-.06,0-.14-.08-.21-.14S364,292,364,292s.11.08.06,0L364,292l-.21-.2-.19-.21a.94.94,0,0,1-.09-.12h0a5.29,5.29,0,0,1-.32-.5.71.71,0,0,0-.88-.29.7.7,0,0,0-.41.83Z" transform="translate(-324.45 -263.09)"/><path class="cls-6" d="M369.14,272.57a6.5,6.5,0,0,0,1.32,1.08,4.7,4.7,0,0,0,.65.37l.09.05c.09,0,.07,0-.07-.07a1.24,1.24,0,0,0,.32.23,5.62,5.62,0,0,0,.56.25l-.26-.11,0,0,.27.12a.94.94,0,0,0,.44,0,1.2,1.2,0,0,0,.64-.31,1.24,1.24,0,0,0,.41-1c0-.19-.05-.39-.08-.58a4,4,0,0,0-.3-.81,3.73,3.73,0,0,0-.87-1.18,3.93,3.93,0,0,0-1.53-.89,3.17,3.17,0,0,0-1.78-.05,1.29,1.29,0,0,0,.34,2.54l.38,0-.35,0,.6.07-.35-.05a3,3,0,0,1,.69.19l-.33-.14a3.73,3.73,0,0,1,.78.44l-.27-.21a3.45,3.45,0,0,1,.54.54l-.2-.26a2.59,2.59,0,0,1,.34.58l-.13-.29a1.9,1.9,0,0,1,.12.36,1.27,1.27,0,0,0,.15.41,1.57,1.57,0,0,0,.49.47l.27-2H372l.29,0a3.57,3.57,0,0,0-.79.07l.25,0h-.05l.25,0-.57-.13-.26-.08c-.17-.05.16.08,0,0l-.13-.06-.49-.28a1.37,1.37,0,0,0-.24-.18l.06.06-.08-.07-.11-.1a.71.71,0,0,0-1,1Z" transform="translate(-324.45 -263.09)"/><path class="cls-6" d="M413,285.45a4.28,4.28,0,0,0,3,3.84,3.62,3.62,0,0,0,4.22-1.58,4.41,4.41,0,0,0,.67-2.38.38.38,0,0,0-.75,0,3.27,3.27,0,0,1-2.72,3.38,3.48,3.48,0,0,1-3.64-3.26.38.38,0,0,0-.75,0Z" transform="translate(-324.45 -263.09)"/><path class="cls-6" d="M381.6,287.62a8.88,8.88,0,1,1,9,8.86A9,9,0,0,1,381.6,287.62Z" transform="translate(-324.45 -263.09)"/><path class="cls-7" d="M390.65,285.86a2.81,2.81,0,0,1,1.57-3.61,2.72,2.72,0,0,1,3.55,1.6,2.8,2.8,0,0,1-1.57,3.61A2.73,2.73,0,0,1,390.65,285.86Z" transform="translate(-324.45 -263.09)"/><path class="cls-7" d="M386.83,288.15a1.41,1.41,0,0,1,.79-1.81,1.36,1.36,0,0,1,1.77.8,1.4,1.4,0,0,1-.78,1.81A1.37,1.37,0,0,1,386.83,288.15Z" transform="translate(-324.45 -263.09)"/><path class="cls-6" d="M396.55,278.82a6,6,0,0,1,2.9,3.27.38.38,0,0,0,.73-.2,6.77,6.77,0,0,0-3.26-3.72.37.37,0,1,0-.37.65Z" transform="translate(-324.45 -263.09)"/><path class="cls-6" d="M454,286.47a8.87,8.87,0,1,0-8.75,9.15A9,9,0,0,0,454,286.47Z" transform="translate(-324.45 -263.09)"/><path class="cls-7" d="M444.92,285a2.81,2.81,0,0,0-1.69-3.56,2.74,2.74,0,0,0-3.5,1.72,2.81,2.81,0,0,0,1.69,3.56A2.74,2.74,0,0,0,444.92,285Z" transform="translate(-324.45 -263.09)"/><path class="cls-7" d="M448.81,287.17a1.4,1.4,0,0,0-.84-1.78,1.36,1.36,0,0,0-1.75.85,1.4,1.4,0,0,0,.84,1.78A1.36,1.36,0,0,0,448.81,287.17Z" transform="translate(-324.45 -263.09)"/><path class="cls-6" d="M438.4,277.51a6.71,6.71,0,0,0-3.13,3.82c-.15.46.58.65.72.2a6.06,6.06,0,0,1,2.79-3.38c.43-.23.05-.88-.38-.64Z" transform="translate(-324.45 -263.09)"/><path class="cls-6" d="M437.68,269.38a3,3,0,0,1,3.86.54c.32.36.85-.17.53-.53a3.8,3.8,0,0,0-4.77-.66c-.4.26,0,.91.38.65Z" transform="translate(-324.45 -263.09)"/><path class="cls-6" d="M396.87,269.38a3.8,3.8,0,0,0-4.74.79.39.39,0,0,0,0,.53.37.37,0,0,0,.53,0,3.07,3.07,0,0,1,3.84-.68.37.37,0,0,0,.37-.64Z" transform="translate(-324.45 -263.09)"/><g class="cls-8"><path class="cls-9" d="M353,271.09c.46,1.21.92,2.42,1.37,3.63a.38.38,0,0,0,.46.26.38.38,0,0,0,.27-.46l-1.38-3.63a.38.38,0,0,0-.46-.26.37.37,0,0,0-.26.46Z" transform="translate(-324.45 -263.09)"/></g><g class="cls-8"><path class="cls-9" d="M361.51,277.87c.21.81.43,1.63.65,2.44a.39.39,0,0,0,.46.27.4.4,0,0,0,.27-.47l-.66-2.44a.37.37,0,1,0-.72.2Z" transform="translate(-324.45 -263.09)"/></g><g class="cls-8"><path class="cls-9" d="M368.42,303.13l1.84,3.07a.38.38,0,0,0,.65-.38l-1.84-3.07a.38.38,0,0,0-.65.38Z" transform="translate(-324.45 -263.09)"/></g><g class="cls-8"><path class="cls-9" d="M375.64,298.15c.22.81.43,1.63.65,2.45a.39.39,0,0,0,.46.26.38.38,0,0,0,.27-.46l-.66-2.45a.37.37,0,0,0-.72.2Z" transform="translate(-324.45 -263.09)"/></g><g class="cls-8"><path class="cls-9" d="M422.55,304.51a5.4,5.4,0,0,1-.63,3.67.37.37,0,0,0,.64.38,6.19,6.19,0,0,0,.72-4.25.38.38,0,0,0-.47-.26.38.38,0,0,0-.26.46Z" transform="translate(-324.45 -263.09)"/></g><g class="cls-8"><path class="cls-9" d="M431.54,322a13.25,13.25,0,0,1-1.49,5.16c-.23.43.42.81.64.38a14.16,14.16,0,0,0,1.6-5.54c0-.48-.71-.47-.75,0Z" transform="translate(-324.45 -263.09)"/></g><g class="cls-8"><path class="cls-9" d="M405.27,325.14c.21.62.42,1.23.62,1.84a.38.38,0,0,0,.46.27.4.4,0,0,0,.27-.47c-.21-.61-.42-1.22-.62-1.84a.39.39,0,0,0-.47-.26.39.39,0,0,0-.26.46Z" transform="translate(-324.45 -263.09)"/></g><g class="cls-8"><path class="cls-9" d="M395.85,307.39a13,13,0,0,0,1.45,4.32c.23.43.88.05.65-.38a12.19,12.19,0,0,1-1.38-4.14.37.37,0,0,0-.72.2Z" transform="translate(-324.45 -263.09)"/></g><g class="cls-8"><path class="cls-9" d="M380.7,318.5l1.24,1.85a.38.38,0,0,0,.51.13.37.37,0,0,0,.13-.51l-1.23-1.85a.37.37,0,0,0-.51-.13.39.39,0,0,0-.14.51Z" transform="translate(-324.45 -263.09)"/></g><g class="cls-8"><path class="cls-9" d="M448.3,319.69a8.07,8.07,0,0,0,2-5.78c0-.48-.78-.49-.75,0a7.31,7.31,0,0,1-1.77,5.25c-.32.36.21.89.53.53Z" transform="translate(-324.45 -263.09)"/></g><g class="cls-8"><path class="cls-9" d="M446,304.07v-1.84a.38.38,0,1,0-.75,0v1.84a.38.38,0,0,0,.38.38.38.38,0,0,0,.37-.38Z" transform="translate(-324.45 -263.09)"/></g><g class="cls-8"><path class="cls-9" d="M464.21,285a10.39,10.39,0,0,1-.57,4.82c-.16.46.56.65.72.2a11,11,0,0,0,.6-5,.38.38,0,0,0-.38-.37c-.18,0-.4.17-.37.37Z" transform="translate(-324.45 -263.09)"/></g><g class="cls-8"><path class="cls-9" d="M468.67,292.2c-.21.41-.42.82-.62,1.23a.37.37,0,0,0,.64.38l.63-1.23a.38.38,0,0,0-.65-.38Z" transform="translate(-324.45 -263.09)"/></g><g class="cls-8"><path class="cls-9" d="M485.06,271.54a15.8,15.8,0,0,1-1.63,10.19c-.23.43.41.81.64.38a16.64,16.64,0,0,0,1.72-10.77c-.09-.48-.81-.28-.73.2Z" transform="translate(-324.45 -263.09)"/></g><g class="cls-8"><path class="cls-9" d="M479.16,292.9c-.21.62-.41,1.23-.61,1.85a.37.37,0,0,0,.26.46.38.38,0,0,0,.46-.26c.2-.62.41-1.23.61-1.85a.37.37,0,0,0-.72-.2Z" transform="translate(-324.45 -263.09)"/></g><g class="cls-8"><path class="cls-9" d="M467.28,267.15c0,.61,0,1.23,0,1.84a.38.38,0,0,0,.37.38A.39.39,0,0,0,468,269c0-.61,0-1.23,0-1.84a.38.38,0,0,0-.37-.38.39.39,0,0,0-.38.38Z" transform="translate(-324.45 -263.09)"/></g><g class="cls-8"><path class="cls-9" d="M408.87,270.92V274a.38.38,0,0,0,.75,0v-3.08a.38.38,0,0,0-.75,0Z" transform="translate(-324.45 -263.09)"/></g><g class="cls-8"><path class="cls-9" d="M424.87,279.51v.61a.39.39,0,0,0,.11.27.37.37,0,0,0,.53,0,.4.4,0,0,0,.11-.27v-.61a.39.39,0,0,0-.11-.27.41.41,0,0,0-.26-.11.44.44,0,0,0-.27.11.39.39,0,0,0-.11.27Z" transform="translate(-324.45 -263.09)"/></g><g class="cls-8"><path class="cls-9" d="M384.43,268.56l1.23,4.92a.38.38,0,0,0,.73-.2q-.61-2.46-1.24-4.92c-.11-.47-.84-.27-.72.2Z" transform="translate(-324.45 -263.09)"/></g><g class="cls-8"><path class="cls-9" d="M380.56,277.84l.66,1.83a.39.39,0,0,0,.47.26.38.38,0,0,0,.26-.46c-.22-.61-.45-1.22-.67-1.82a.37.37,0,1,0-.72.19Z" transform="translate(-324.45 -263.09)"/></g><g class="cls-8"><path class="cls-9" d="M462.81,313a.38.38,0,0,0,0-.75.38.38,0,0,0,0,.75Z" transform="translate(-324.45 -263.09)"/></g><g class="cls-8"><path class="cls-9" d="M456.64,301.36a.38.38,0,0,0,0-.75.38.38,0,0,0,0,.75Z" transform="translate(-324.45 -263.09)"/></g><g class="cls-8"><path class="cls-9" d="M457.21,272.46a.38.38,0,0,0,0-.75.38.38,0,0,0,0,.75Z" transform="translate(-324.45 -263.09)"/></g><g class="cls-8"><path class="cls-9" d="M425.27,295.25a.38.38,0,0,0,0-.75.38.38,0,0,0,0,.75Z" transform="translate(-324.45 -263.09)"/></g><g class="cls-8"><path class="cls-9" d="M403.75,294.67a.38.38,0,0,0,0-.75.38.38,0,0,0,0,.75Z" transform="translate(-324.45 -263.09)"/></g><g class="cls-8"><path class="cls-9" d="M371.76,285.5a.38.38,0,0,0,0-.75.38.38,0,0,0,0,.75Z" transform="translate(-324.45 -263.09)"/></g><g class="cls-8"><path class="cls-9" d="M354.19,284.27l-.62-.62a.38.38,0,0,0-.26-.11.37.37,0,0,0-.27.11.44.44,0,0,0-.11.27.41.41,0,0,0,.11.26l.62.62a.41.41,0,0,0,.26.11.4.4,0,0,0,.27-.11.44.44,0,0,0,.11-.27.41.41,0,0,0-.11-.26Z" transform="translate(-324.45 -263.09)"/></g><g class="cls-8"><path class="cls-9" d="M365,268.9a.38.38,0,0,0,0-.75.38.38,0,0,0,0,.75Z" transform="translate(-324.45 -263.09)"/></g><g class="cls-8"><path class="cls-9" d="M371.18,311.94a.38.38,0,0,0,0-.75.38.38,0,0,0,0,.75Z" transform="translate(-324.45 -263.09)"/></g><g class="cls-8"><path class="cls-9" d="M415.46,315a.38.38,0,0,0,0-.75.38.38,0,0,0,0,.75Z" transform="translate(-324.45 -263.09)"/></g><g class="cls-8"><path class="cls-9" d="M396.41,324.81a.38.38,0,0,0,0-.75.38.38,0,0,0,0,.75Z" transform="translate(-324.45 -263.09)"/></g><g class="cls-10"><path class="cls-6" d="M333.67,269.58a11.64,11.64,0,0,0-8.33,1c-.43.22,0,.87.38.64a10.91,10.91,0,0,1,7.75-.9.37.37,0,0,0,.2-.72Z" transform="translate(-324.45 -263.09)"/><path class="cls-6" d="M334.23,278.07a13.94,13.94,0,0,0-9.65,2.95c-.38.3.16.83.53.53a13.24,13.24,0,0,1,9.12-2.73c.48,0,.48-.72,0-.75Z" transform="translate(-324.45 -263.09)"/><path class="cls-6" d="M338.45,288.47a23.22,23.22,0,0,0-9.29,3.78c-.4.27,0,.92.37.65a22.68,22.68,0,0,1,9.12-3.7c.48-.08.27-.81-.2-.73Z" transform="translate(-324.45 -263.09)"/><path class="cls-6" d="M343.32,297.17l-8.62,5.52c-.41.26,0,.91.38.65l8.62-5.52c.41-.26,0-.91-.38-.65Z" transform="translate(-324.45 -263.09)"/><path class="cls-6" d="M345.25,305.71a15.07,15.07,0,0,0-5.68,3.19c-.36.33.17.86.53.53a14.31,14.31,0,0,1,5.35-3,.37.37,0,0,0-.2-.72Z" transform="translate(-324.45 -263.09)"/><path class="cls-6" d="M350.61,314.21l-8.5,5.69c-.4.27,0,.92.38.65l8.5-5.69c.4-.27,0-.92-.38-.65Z" transform="translate(-324.45 -263.09)"/><path class="cls-6" d="M352,322.24l-3.07,1.25a.39.39,0,0,0-.26.46.37.37,0,0,0,.46.26l3.07-1.25a.38.38,0,0,0,.26-.46.37.37,0,0,0-.46-.26Z" transform="translate(-324.45 -263.09)"/><path class="cls-6" d="M358.73,323.59l-6.19,3.62a.38.38,0,0,0,.38.65q3.09-1.82,6.19-3.62a.38.38,0,0,0-.38-.65Z" transform="translate(-324.45 -263.09)"/><path class="cls-6" d="M364.83,328.57l-6.76,5.54c-.37.31.16.84.53.53l6.76-5.54c.37-.31-.16-.83-.53-.53Z" transform="translate(-324.45 -263.09)"/><path class="cls-6" d="M372.77,330.46a42.54,42.54,0,0,1-8,9.11c-.37.32.16.84.53.53a43.09,43.09,0,0,0,8.1-9.26c.27-.4-.38-.78-.65-.38Z" transform="translate(-324.45 -263.09)"/><path class="cls-6" d="M377.1,337.23l-3.67,4.94a.38.38,0,0,0,.65.38l3.67-4.94a.38.38,0,0,0-.65-.38Z" transform="translate(-324.45 -263.09)"/><path class="cls-6" d="M387.5,339l-5.57,11.67c-.21.43.44.81.65.38q2.78-5.83,5.57-11.67c.21-.43-.44-.81-.65-.38Z" transform="translate(-324.45 -263.09)"/><path class="cls-6" d="M394.31,344.74a12.55,12.55,0,0,1-2.56,6.52.38.38,0,0,0,.13.51.41.41,0,0,0,.52-.13,13.23,13.23,0,0,0,2.66-6.9c0-.48-.71-.48-.75,0Z" transform="translate(-324.45 -263.09)"/><path class="cls-6" d="M402.38,343.42q-1,5.52-2.06,11c-.09.47.64.67.73.2q1-5.52,2.05-11c.09-.47-.63-.67-.72-.2Z" transform="translate(-324.45 -263.09)"/><path class="cls-6" d="M410.83,348.4c0,2.25,0,4.51,0,6.76a.38.38,0,0,0,.75,0c0-2.25,0-4.51,0-6.76a.38.38,0,0,0-.75,0Z" transform="translate(-324.45 -263.09)"/><path class="cls-6" d="M419.41,346a28.17,28.17,0,0,1,.64,8.49c0,.49.71.48.75,0a28.85,28.85,0,0,0-.67-8.69c-.11-.47-.83-.27-.72.2Z" transform="translate(-324.45 -263.09)"/><path class="cls-6" d="M427.32,348.39c.26,2.25.52,4.49.79,6.74.05.48.8.48.75,0-.27-2.25-.53-4.49-.79-6.74-.06-.47-.81-.48-.75,0Z" transform="translate(-324.45 -263.09)"/><path class="cls-6" d="M434.16,346l1.26,6.76c.09.48.81.28.73-.2l-1.26-6.76c-.09-.47-.81-.27-.73.2Z" transform="translate(-324.45 -263.09)"/><path class="cls-6" d="M443.29,344.2c.68,2,1.37,4.05,2.06,6.07.15.46.88.26.72-.2-.69-2-1.37-4.05-2.06-6.07-.16-.46-.88-.26-.72.2Z" transform="translate(-324.45 -263.09)"/><path class="cls-6" d="M449,340a36.43,36.43,0,0,1,6.67,9.76c.2.44.85.05.64-.38a37,37,0,0,0-6.78-9.91c-.33-.35-.86.18-.53.53Z" transform="translate(-324.45 -263.09)"/><path class="cls-6" d="M458.85,339.28l2.95,5c.25.42.9,0,.65-.37l-2.95-5a.38.38,0,0,0-.65.38Z" transform="translate(-324.45 -263.09)"/><path class="cls-6" d="M464.42,332.48a71.35,71.35,0,0,0,6.73,9.36c.32.37.85-.16.53-.53a69,69,0,0,1-6.61-9.21c-.25-.41-.9,0-.65.38Z" transform="translate(-324.45 -263.09)"/><path class="cls-6" d="M473,330.13l3.7,3.68a.38.38,0,0,0,.53-.53l-3.7-3.69c-.34-.34-.87.19-.53.54Z" transform="translate(-324.45 -263.09)"/><path class="cls-6" d="M477.31,319.67l6.16,4.91c.37.29.9-.23.53-.53l-6.16-4.91c-.37-.3-.91.23-.53.53Z" transform="translate(-324.45 -263.09)"/><path class="cls-6" d="M487.76,314.73l3.69,3.68c.34.35.87-.18.53-.53l-3.69-3.68c-.35-.34-.88.19-.53.53Z" transform="translate(-324.45 -263.09)"/><path class="cls-6" d="M488.54,305.54A38.15,38.15,0,0,1,500.06,310a.38.38,0,0,0,.38-.65,38.77,38.77,0,0,0-11.71-4.49c-.47-.1-.67.62-.19.72Z" transform="translate(-324.45 -263.09)"/><path class="cls-6" d="M496.6,299.49l6.15.67c.48,0,.47-.7,0-.75l-6.15-.67c-.48-.06-.47.7,0,.75Z" transform="translate(-324.45 -263.09)"/><path class="cls-6" d="M496.59,290.29a40.54,40.54,0,0,1,12.77,3.49c.43.2.81-.45.37-.65a41.66,41.66,0,0,0-13.14-3.59c-.48-.05-.48.7,0,.75Z" transform="translate(-324.45 -263.09)"/><path class="cls-6" d="M502.12,284.07h5.53a.38.38,0,0,0,0-.75h-5.53a.38.38,0,0,0,0,.75Z" transform="translate(-324.45 -263.09)"/><path class="cls-6" d="M500.18,275.92l9.82,1.36a.37.37,0,1,0,.2-.72l-9.82-1.36a.39.39,0,0,0-.46.26.37.37,0,0,0,.26.46Z" transform="translate(-324.45 -263.09)"/><path class="cls-6" d="M503.33,268.76a14.42,14.42,0,0,1,8.54,1.48c.43.22.81-.42.38-.65a15.21,15.21,0,0,0-8.92-1.58.38.38,0,0,0-.37.38c0,.18.17.4.37.37Z" transform="translate(-324.45 -263.09)"/></g></g></g></svg>