<svg id="Слой_1" data-name="Слой 1" xmlns="http://www.w3.org/2000/svg" viewBox="0 0 646.11 203.89"><defs><style>.cls-1{fill:#010101;opacity:0.08;}.cls-2{fill:#314057;}.cls-3{fill:#e2824e;}</style></defs><path class="cls-1" d="M731.21,276.93c3,0,3-3,0-3q-11.4.12-22.7-.79V264.5l19.87.25c3,0,3-3,0-3l-19.87-.25V251q9.11,1.45,18.45,2.16c3,.22,3-2.78,0-3-6.24-.47-12.38-1.24-18.45-2.26v-8.1L727.9,239c3-.13,3-3.14,0-3l-19.39.83V226.63q9,.54,18,.39c3-.05,3-3.05,0-3q-9,.16-18-.39v-9.08c7.54.58,15.09.87,22.7.79,3,0,3-3,0-3q-11.4.12-22.7-.78V206s-122,12.93-298,0-298,0-298,0v6.33c-5.84-.1-11.67-.38-17.48-.89-3-.26-4.26,2.63-1.25,2.89,6.23.55,12.46.88,18.73,1V224c-6.37.05-12.72-.14-19.07-.61-3-.22-3,2.79,0,3,6.35.47,12.7.66,19.07.61v9.08l-20,.86c-3,.13-3,3.13,0,3l20-.86v10.8q-9.34-.81-18.43-2.46c-2.93-.52-4.18,2.37-1.26,2.9,6.48,1.16,13,2,19.69,2.57v8.76l-19.06-.23c-3,0-3,3,0,3l19.06.23v9.21c-5.84-.09-11.67-.37-17.48-.88-3-.26-4.26,2.63-1.25,2.89,6.23.55,12.46.88,18.73,1v8.72q-9.56.09-19.07-.6c-3-.22-3,2.78,0,3q9.53.69,19.07.6v9.09l-20,.86c-3,.13-3,3.13,0,3l20-.86v10.8q-9.34-.83-18.43-2.46c-2.93-.53-4.18,2.37-1.26,2.89,6.48,1.17,13,2,19.69,2.58v8.76l-19.06-.23c-3,0-3,3,0,3l19.06.23v9.85c-5.84-.09-11.67-.37-17.48-.88-3-.26-4.26,2.63-1.25,2.89,6.23.55,12.46.88,18.73,1v8.72q-9.56.07-19.07-.6c-3-.22-3,2.78,0,3q9.53.69,19.07.6v9.09l-20,.86c-3,.13-3,3.13,0,3l20-.86v10.8q-9.34-.83-18.43-2.46c-2.93-.53-4.18,2.37-1.26,2.89,6.48,1.17,13,2,19.69,2.58v8.76l-19.06-.23c-3,0-3,3,0,3l19.06.23v6.74s96.18-11.57,298,0,298,0,298,0v-6.93l19.87.24c3,0,3-3,0-3l-19.87-.24v-10.5q9.11,1.46,18.45,2.15c3,.23,3-2.77,0-3-6.24-.46-12.38-1.23-18.45-2.25v-8.1l19.39-.84c3-.13,3-3.13,0-3l-19.39.84V350.45q9,.54,18,.39c3,0,3-3,0-3q-9,.15-18-.39v-9.09c7.54.59,15.09.88,22.7.8,3,0,3-3,0-3q-11.4.12-22.7-.79v-9.28l19.87.24c3,0,3-3,0-3l-19.87-.24v-10.5q9.11,1.46,18.45,2.16c3,.22,3-2.78,0-3-6.24-.47-12.38-1.24-18.45-2.26v-8.1l19.39-.84c3-.13,3-3.13,0-3l-19.39.84V288.22q9,.54,18,.39c3-.05,3-3.05,0-3q-9,.15-18-.39v-9.09C716.05,276.72,723.6,277,731.21,276.93Z" transform="translate(-90.32 -196.51)"/><path class="cls-2" d="M734.14,273.2c3,0,3.05-3,0-3-7.6.07-15.16-.18-22.7-.79v-8.64l19.87.24c3,0,3-3,0-3l-19.87-.24v-10.5q9.1,1.46,18.45,2.15c3,.23,3-2.77,0-3-6.24-.46-12.38-1.23-18.45-2.25v-8.1l19.39-.84c3-.13,3-3.13,0-3l-19.39.84V222.9q9,.53,18,.39c3,0,3.05-3,0-3q-9,.15-18-.39v-9.09c7.54.58,15.09.88,22.7.8,3,0,3.05-3,0-3-7.6.07-15.16-.18-22.7-.79v-5.57s-122,12.94-298,0-298,0-298,0v6.33c-5.84-.09-11.67-.37-17.48-.88-3-.26-4.26,2.63-1.25,2.89,6.23.55,12.46.88,18.73,1v8.72q-9.55.07-19.07-.6c-3-.22-3,2.78,0,3q9.52.69,19.07.6v9.09l-20,.86c-3,.13-3,3.13,0,3l20-.86v10.8q-9.34-.83-18.43-2.46c-2.93-.53-4.18,2.37-1.26,2.89,6.48,1.17,13,2,19.69,2.57V258l-19.06-.24c-3,0-3,3,0,3l19.06.24v9.21q-8.76-.14-17.48-.89c-3-.26-4.26,2.63-1.25,2.9,6.23.54,12.46.88,18.73,1v8.72q-9.55.08-19.07-.6c-3-.22-3,2.78,0,3q9.52.69,19.07.6V294l-20,.87c-3,.13-3,3.13,0,3l20-.87v10.81q-9.34-.82-18.43-2.46c-2.93-.53-4.18,2.36-1.26,2.89,6.48,1.17,13,2,19.69,2.57v8.77l-19.06-.24c-3,0-3,3,0,3l19.06.24v9.85q-8.76-.13-17.48-.89c-3-.26-4.26,2.63-1.25,2.9,6.23.54,12.46.88,18.73,1v8.72q-9.55.08-19.07-.6c-3-.22-3,2.78,0,3q9.52.69,19.07.6v9.08l-20,.87c-3,.13-3,3.13,0,3l20-.87V370q-9.34-.83-18.43-2.46c-2.93-.53-4.18,2.36-1.26,2.89,6.48,1.17,13,2,19.69,2.57v8.77l-19.06-.24c-3,0-3,3,0,3l19.06.24v6.74s96.18-11.58,298,0,298,0,298,0v-6.94l19.87.25c3,0,3-3,0-3l-19.87-.25v-10.5q9.1,1.47,18.45,2.16c3,.23,3-2.78,0-3-6.24-.46-12.38-1.24-18.45-2.25v-8.11l19.39-.83c3-.13,3-3.13,0-3l-19.39.83V346.72q9,.52,18,.39c3-.06,3.05-3.06,0-3q-9,.15-18-.39v-9.09c7.54.58,15.09.87,22.7.8,3,0,3.05-3,0-3-7.6.07-15.16-.18-22.7-.79v-9.29l19.87.25c3,0,3-3,0-3l-19.87-.25V308.86q9.1,1.45,18.45,2.15c3,.23,3-2.78,0-3-6.24-.46-12.38-1.24-18.45-2.25v-8.11l19.39-.83c3-.13,3-3.13,0-3l-19.39.83V284.49q9,.52,18,.39c3-.06,3.05-3.06,0-3q-9,.15-18-.39V272.4C719,273,726.53,273.27,734.14,273.2Z" transform="translate(-90.32 -196.51)"/><polygon class="cls-3" points="62.25 192.18 48.54 193.02 48.54 3.82 62.25 2.94 62.25 192.18"/><polygon class="cls-3" points="596.98 197.03 583.27 197.89 583.27 8.61 596.98 7.73 596.98 197.03"/></svg>