<svg xmlns="http://www.w3.org/2000/svg" viewBox="0 0 89.89 37.83"><defs><style>.cls-1{isolation:isolate;}.cls-2{fill:#1d1d1b;mix-blend-mode:multiply;opacity:0.1;}.cls-3{fill:#eb5c96;}.cls-4{fill:#343434;}.cls-5{fill:#4e4d4d;}</style></defs><g class="cls-1"><g id="Слой_1" data-name="Слой 1"><path class="cls-2" d="M448.42,317.53a14.15,14.15,0,0,0-5.64-1.51,11.42,11.42,0,0,0-7.88,3.12h0a11.46,11.46,0,0,0-16.09,0h0s-3.63,3.78-6.87,3.77-6.87-3.78-6.87-3.78l0,0a11.43,11.43,0,0,0-16.09-.08h0a11.41,11.41,0,0,0-7.87-3.18,14,14,0,0,0-5.64,1.48c-1,.42-8.18,4.17-8.18,5.3s.07,4.9.07,4.9a3.68,3.68,0,0,1,2.43,1.55c1.8,10.92,19.09,22.32,19.09,22.32s16.33-10.52,19.15-21.18c0,0,.26-1.23,3.88-1.21,3.79,0,3.91,1.23,3.91,1.23,2.75,10.68,19,21.3,19,21.3s17.37-11.28,19.24-22.19a3.72,3.72,0,0,1,2.44-1.54s.1-3.67.1-4.89S449.38,318,448.42,317.53Z" transform="translate(-367.24 -313.68)"/><path class="cls-3" d="M416.34,328.17c2.74,10.67,19,21.3,19,21.3s17.37-11.28,19.24-22.19a3.66,3.66,0,0,1,2.43-1.54s.1-3.67.11-4.89-7.18-4.93-8.15-5.36a13.78,13.78,0,0,0-5.63-1.51,11.43,11.43,0,0,0-7.89,3.12h0a11.46,11.46,0,0,0-16.08,0h0s-3.63,3.78-6.87,3.77-6.87-3.78-6.87-3.78v0a11.46,11.46,0,0,0-16.1-.09h0a11.42,11.42,0,0,0-7.87-3.17,13.89,13.89,0,0,0-5.65,1.48c-1,.42-8.17,4.16-8.17,5.3s.07,4.89.07,4.89A3.7,3.7,0,0,1,370.3,327c1.8,10.92,19.1,22.31,19.1,22.31s16.33-10.52,19.15-21.18c0,0,.26-1.22,3.87-1.21C416.21,326.94,416.34,328.17,416.34,328.17Z" transform="translate(-367.24 -313.68)"/><path class="cls-4" d="M404,327.13a8.57,8.57,0,0,0-14.45-6.25h0a8.57,8.57,0,0,0-14.6,6.06c0,8.67,14.52,18.18,14.52,18.18S404,335.69,404,327.13Z" transform="translate(-367.24 -313.68)"/><path class="cls-4" d="M449.78,327.28A8.57,8.57,0,0,0,435.34,321h0a8.57,8.57,0,0,0-14.6,6.06c0,8.67,14.52,18.18,14.52,18.18S449.76,335.84,449.78,327.28Z" transform="translate(-367.24 -313.68)"/><path class="cls-4" d="M404,327.13a8.57,8.57,0,0,0-14.45-6.25h0a8.57,8.57,0,0,0-14.6,6.06c0,8.67,14.52,18.18,14.52,18.18S404,335.69,404,327.13Z" transform="translate(-367.24 -313.68)"/><path class="cls-4" d="M449.78,327.28A8.57,8.57,0,0,0,435.34,321h0a8.57,8.57,0,0,0-14.6,6.06c0,8.67,14.52,18.18,14.52,18.18S449.76,335.84,449.78,327.28Z" transform="translate(-367.24 -313.68)"/><path class="cls-5" d="M379.07,319.64l11.76,24.52c.36-.26.77-.56,1.22-.91L380.41,319A7.94,7.94,0,0,0,379.07,319.64Z" transform="translate(-367.24 -313.68)"/><path class="cls-5" d="M384.58,318.47a7.17,7.17,0,0,0-1-.08,8.74,8.74,0,0,0-1.78.18l11.43,23.8c.64-.51,1.33-1.08,2.05-1.71Z" transform="translate(-367.24 -313.68)"/><path class="cls-5" d="M424.86,319.79l11.77,24.51,1.22-.9L426.2,319.13A8.33,8.33,0,0,0,424.86,319.79Z" transform="translate(-367.24 -313.68)"/><path class="cls-5" d="M441,340.81l-10.65-22.2a9,9,0,0,0-1.05-.07,8.64,8.64,0,0,0-1.77.18L439,342.52C439.63,342,440.32,341.44,441,340.81Z" transform="translate(-367.24 -313.68)"/></g></g></svg>