<svg xmlns="http://www.w3.org/2000/svg" viewBox="0 0 79.29 29.76"><defs><style>.cls-1{isolation:isolate;}.cls-2{fill:#e7d9c4;mix-blend-mode:multiply;opacity:0.7;}.cls-3{fill:#f39323;}.cls-4{fill:#343434;}.cls-5{fill:#4e4d4d;}</style></defs><g class="cls-1"><g id="Слой_1" data-name="Слой 1"><path class="cls-2" d="M414.81,324.2a18.8,18.8,0,0,1-7.83.06c-17.28-6.52-35.62-2-35.62-2l0,5.56c1,.06,1.69,1.63,1.69,1.63,2.47,9.58,2.09,17.72,16.15,18.16,15,.46,16.5-12.58,18.63-16.4l.13-.16c3.09-3.22,5.89.08,5.89.08,2,3.87,3.2,16.95,18.17,16.9,14.07-.05,13.92-8.2,16.64-17.7,0,0,.72-1.55,1.74-1.59l.11-5.56S432.26,318.16,414.81,324.2Z" transform="translate(-371.18 -318.24)"/><path class="cls-3" d="M406.84,321.77c-17.27-6.51-35.62-2-35.62-2l0,5.55c1,.07,1.7,1.64,1.7,1.64,2.46,9.57,2.09,17.72,16.15,18.15,15,.46,16.5-12.58,18.63-16.39l.12-.17c3.1-3.21,5.89.08,5.89.08,2,3.87,3.2,16.95,18.17,16.9,14.07,0,13.92-8.2,16.64-17.7,0,0,.72-1.55,1.75-1.59l.11-5.55s-18.21-5-35.66,1A18.84,18.84,0,0,1,406.84,321.77Z" transform="translate(-371.18 -318.24)"/><path class="cls-4" d="M422.57,322.63c-7.62,1.7-4.48,9.25-3.58,11.76s3.36,8.63,12.65,9.08,12.48-5.2,12.76-14.25C444.71,319.62,430.19,320.93,422.57,322.63Z" transform="translate(-371.18 -318.24)"/><path class="cls-4" d="M377.06,328.71c0,9.06,3.07,14.79,12.37,14.59s11.89-6.17,12.89-8.72,4.31-9.95-3.26-11.86S377,319.11,377.06,328.71Z" transform="translate(-371.18 -318.24)"/><path class="cls-5" d="M432.56,321.44l5.09,21.21a13.15,13.15,0,0,1-4.56.84l-5.22-21.75A42.78,42.78,0,0,1,432.56,321.44Z" transform="translate(-371.18 -318.24)"/><path class="cls-5" d="M425.84,322,431,343.43a21.52,21.52,0,0,1-2.47-.36l-4.95-20.65C424.28,322.28,425,322.14,425.84,322Z" transform="translate(-371.18 -318.24)"/><path class="cls-5" d="M390.49,321.33l5,20.78a15.36,15.36,0,0,1-4.5,1.11l-5.25-21.87A30.2,30.2,0,0,1,390.49,321.33Z" transform="translate(-371.18 -318.24)"/><path class="cls-5" d="M383.7,321.64l5.21,21.67a18.41,18.41,0,0,1-2.43-.17l-5-20.84A13.37,13.37,0,0,1,383.7,321.64Z" transform="translate(-371.18 -318.24)"/></g></g></svg>