<svg id="Слой_1" data-name="Слой 1" xmlns="http://www.w3.org/2000/svg" viewBox="0 0 186.17 197.81"><defs><style>.cls-1{opacity:0.85;}.cls-2{fill:#1b2535;}.cls-3{fill:#fff0ca;}.cls-4{fill:#314057;}.cls-5{fill:#f4e2ba;}</style></defs><g class="cls-1"><path class="cls-2" d="M448.41,209.15c-17.94-9.61-40-16.72-58.18-7.55l-7.49,9.24c-20.56,4.44-37.1,20.53-42.89,40.65-6.65,23.09,3.87,40.53,15.08,59.87,12.6,21.74,8.11,53,29.2,70,6.9,5.54,15.75,8.23,24.57,9.08,17.92,1.74,42,.32,58.23-8.07,6.6-3.42,12.33-8.28,17.69-13.42a188.6,188.6,0,0,0,22.8-26.33c8.94-12.5,16.56-27,16-42.33-.31-9-3.42-17.69-7.42-25.76C501.87,246,476.49,224.2,448.41,209.15Z" transform="translate(-337.31 -193.26)"/></g><path class="cls-3" d="M448,205.07c-17.94-9.62-40-16.72-58.18-7.55l-7.49,9.23c-20.56,4.44-37.1,20.53-42.89,40.65-6.66,23.1,3.87,40.53,15.08,59.87,12.6,21.75,8.11,53.05,29.19,70,6.91,5.54,15.76,8.23,24.57,9.09,17.93,1.74,42,.32,58.24-8.08,6.59-3.41,12.33-8.28,17.69-13.42A188.12,188.12,0,0,0,507,338.5c8.94-12.5,16.56-27,16-42.32-.31-9-3.42-17.7-7.43-25.76C501.4,241.89,476,220.12,448,205.07Z" transform="translate(-337.31 -193.26)"/><path class="cls-4" d="M397.34,278.85c.45,5.76,2.61,11.22,4.75,16.58,4.94,12.39,10.43,25.5,21.39,33.09a34.43,34.43,0,0,0,34,2.65,37,37,0,0,0,12-9.49c12.78-15.16,12.79-39,1.64-55.38-9.8-14.41-30.26-25.78-48.11-23.86C408,244,396.23,265,397.34,278.85Z" transform="translate(-337.31 -193.26)"/><path class="cls-5" d="M400.1,275.27c.45,5.76,2.62,11.22,4.75,16.58,4.94,12.39,10.43,25.49,21.39,33.09a34.44,34.44,0,0,0,34,2.65,37,37,0,0,0,12-9.49c12.78-15.17,12.79-39,1.64-55.38-9.8-14.41-30.25-25.78-48.11-23.87C410.76,240.46,399,261.43,400.1,275.27Z" transform="translate(-337.31 -193.26)"/><path class="cls-4" d="M406.56,301.77c-4.57.2-8.09-3.22-11.74-5.46a18.93,18.93,0,0,0-12.73-2.68,1.5,1.5,0,0,0-1,1.84,1.53,1.53,0,0,0,1.84,1c4.57-.62,8.52,1,12.22,3.56,3.47,2.35,7.07,4.88,11.46,4.69,1.93-.09,1.94-3.09,0-3Z" transform="translate(-337.31 -193.26)"/><path class="cls-4" d="M406.16,302.26c-3.26,1.46-4.35,5-6.55,7.48a20.13,20.13,0,0,1-4.94,3.63L388.61,317c-1.65,1-.15,3.6,1.51,2.59l6.06-3.67a25,25,0,0,0,5.21-3.72c2.2-2.29,3.25-6,6.28-7.39a1.5,1.5,0,0,0,.54-2.05,1.54,1.54,0,0,0-2-.54Z" transform="translate(-337.31 -193.26)"/></svg>