<svg xmlns="http://www.w3.org/2000/svg" xmlns:xlink="http://www.w3.org/1999/xlink" version="1.1" width="1000" height="1000" viewBox="0 0 1000 1000" xml:space="preserve">
<desc>Created with Fabric.js 3.5.0</desc>
<defs>
</defs>
<rect x="0" y="0" width="100%" height="100%" fill="#ffffff"/>
<g transform="matrix(1.6444 0 0 1.6444 500.0078 500.0028)" id="823390">
<g style="" vector-effect="non-scaling-stroke">
		<g transform="matrix(1 0 0 1 -74.425 0.01)">
<path style="stroke: none; stroke-width: 1; stroke-dasharray: none; stroke-linecap: butt; stroke-dashoffset: 0; stroke-linejoin: miter; stroke-miterlimit: 4; is-custom-font: none; font-file-url: none; fill: rgb(210,146,44); fill-rule: nonzero; opacity: 1;" transform=" translate(-202, -99.345)" d="M 275.36 61.37 l 26.29 -1.65 q 0.86 6.41 3.48 9.76 q 4.28 5.43 12.2 5.43 q 5.91 0 9.12 -2.77 a 8.34 8.34 0 0 0 3.2 -6.44 a 8.18 8.18 0 0 0 -3 -6.22 q -3 -2.74 -14.15 -5.19 q -18.18 -4.08 -25.93 -10.86 a 21.84 21.84 0 0 1 -7.81 -17.26 a 23.44 23.44 0 0 1 4 -13 a 26.47 26.47 0 0 1 12 -9.64 q 8 -3.51 22 -3.51 q 17.14 0 26.14 6.38 t 10.71 20.28 l -26.05 1.52 q -1 -6 -4.36 -8.78 t -9.2 -2.77 c -3.21 0 -5.63 0.69 -7.25 2.05 a 6.25 6.25 0 0 0 -2.44 5 a 5 5 0 0 0 2 3.84 q 1.95 1.77 9.27 3.3 q 18.12 3.9 26 7.9 t 11.4 9.91 a 25.12 25.12 0 0 1 3.57 13.24 a 28.37 28.37 0 0 1 -4.75 15.86 a 29.83 29.83 0 0 1 -13.3 11 q -8.55 3.75 -21.54 3.75 q -22.81 0 -31.6 -8.78 t -10 -22.35 z M 6.27 91 V 1.53 h 46.06 q 12.81 0 19.58 2.19 a 20.93 20.93 0 0 1 10.92 8.14 A 24.75 24.75 0 0 1 87 26.35 a 24.8 24.8 0 0 1 -3.2 12.84 A 24.91 24.91 0 0 1 75.07 48 a 33.63 33.63 0 0 1 -9.7 3.54 a 27.79 27.79 0 0 1 7.19 3.29 A 27.79 27.79 0 0 1 77 59.49 A 35.16 35.16 0 0 1 80.85 65 l 13.38 26 H 63 L 48.24 63.63 q -2.81 -5.31 -5 -6.9 a 11.63 11.63 0 0 0 -6.78 -2.07 H 34 V 91 z M 34 37.76 h 11.68 A 41 41 0 0 0 53 36.54 a 7.3 7.3 0 0 0 4.48 -2.81 a 8.24 8.24 0 0 0 1.74 -5.18 a 8.23 8.23 0 0 0 -2.75 -6.65 q -2.74 -2.32 -10.31 -2.32 H 34 z M 0 167.56 l 26.29 -1.64 q 0.86 6.41 3.48 9.76 Q 34 181.11 42 181.11 q 5.91 0 9.12 -2.78 a 8.34 8.34 0 0 0 3.2 -6.44 a 8.2 8.2 0 0 0 -3 -6.22 q -3 -2.74 -14.15 -5.18 q -18.18 -4.1 -25.93 -10.86 a 21.87 21.87 0 0 1 -7.81 -17.27 a 23.49 23.49 0 0 1 4 -13 a 26.47 26.47 0 0 1 12 -9.64 q 8 -3.51 22 -3.51 q 17.14 0 26.14 6.38 t 10.71 20.28 l -26 1.53 q -1 -6 -4.36 -8.79 t -9.19 -2.74 q -4.81 0 -7.25 2 a 6.25 6.25 0 0 0 -2.44 5 a 5 5 0 0 0 2 3.85 q 1.95 1.77 9.27 3.29 q 18.12 3.9 26 7.9 t 11.4 9.91 a 25.15 25.15 0 0 1 3.57 13.24 a 28.35 28.35 0 0 1 -4.75 15.86 a 29.83 29.83 0 0 1 -13.3 11 q -8.55 3.75 -21.54 3.75 q -22.81 0 -31.6 -8.78 T 0 167.56 z m 163 -7.01 l 24.22 7.32 a 44.72 44.72 0 0 1 -7.69 17 a 33.46 33.46 0 0 1 -13 10.31 q -7.78 3.47 -19.8 3.47 q -14.58 0 -23.82 -4.23 t -16 -14.91 q -6.72 -10.67 -6.71 -27.31 q 0 -22.18 11.8 -34.11 t 33.4 -11.92 q 16.91 0 26.57 6.84 t 14.36 21 l -24.4 5.43 a 21 21 0 0 0 -2.68 -6 a 16 16 0 0 0 -5.67 -4.88 a 16.31 16.31 0 0 0 -7.51 -1.71 q -9.39 0 -14.39 7.56 q -3.8 5.61 -3.79 17.61 q 0 14.86 4.52 20.38 t 12.69 5.51 q 7.92 0 12 -4.45 t 5.9 -12.91 z m 45.51 -52.83 h 27.63 V 139 h 30.2 v -31.28 h 27.75 v 89.43 h -27.75 V 161 h -30.2 v 36.18 h -27.63 z m 102.78 44.77 q 0 -21.88 12.2 -34.1 t 34 -12.2 q 22.32 0 34.4 12 T 404 151.76 q 0 15.69 -5.28 25.72 a 37.54 37.54 0 0 1 -15.25 15.61 q -10 5.58 -24.86 5.58 q -15.12 0 -25 -4.82 a 37.59 37.59 0 0 1 -16.07 -15.25 q -6.26 -10.42 -6.25 -26.11 z m 27.63 0.13 q 0 13.55 5 19.46 t 13.7 5.91 q 8.91 0 13.79 -5.79 t 4.88 -20.8 q 0 -12.63 -5.1 -18.46 t -13.82 -5.82 A 16.78 16.78 0 0 0 344 133 q -5.07 6 -5.08 19.62 z" stroke-linecap="round"/>
</g>
		<g transform="matrix(1 0 0 1 162.195 53.0993)">
<path style="stroke: none; stroke-width: 1; stroke-dasharray: none; stroke-linecap: butt; stroke-dashoffset: 0; stroke-linejoin: miter; stroke-miterlimit: 4; is-custom-font: none; font-file-url: none; fill: rgb(210,146,44); fill-rule: nonzero; opacity: 1;" transform=" translate(-438.62, -152.4342)" d="M 392.28 152.49 q 0 -21.88 12.2 -34.1 t 34 -12.2 q 22.34 0 34.41 12 t 12.07 33.58 q 0 15.69 -5.27 25.72 a 37.6 37.6 0 0 1 -15.25 15.61 q -10 5.58 -24.86 5.58 q -15.13 0 -25 -4.82 a 37.67 37.67 0 0 1 -16.08 -15.25 q -6.22 -10.43 -6.22 -26.12 z m 27.64 0.13 q 0 13.55 5 19.46 t 13.72 5.92 q 8.91 0 13.79 -5.79 t 4.88 -20.8 q 0 -12.63 -5.09 -18.46 t -13.82 -5.82 A 16.77 16.77 0 0 0 425 133 q -5.09 6 -5.08 19.62 z" stroke-linecap="round"/>
</g>
		<g transform="matrix(1 0 0 1 241.04 53.09)">
<path style="stroke: none; stroke-width: 1; stroke-dasharray: none; stroke-linecap: butt; stroke-dashoffset: 0; stroke-linejoin: miter; stroke-miterlimit: 4; is-custom-font: none; font-file-url: none; fill: rgb(210,146,44); fill-rule: nonzero; opacity: 1;" transform=" translate(-517.465, -152.425)" d="M 482.08 107.72 h 27.64 v 67.41 h 43.13 v 22 h -70.77 z" stroke-linecap="round"/>
</g>
</g>
</g>
</svg>