<svg id="Слой_1" data-name="Слой 1" xmlns="http://www.w3.org/2000/svg" viewBox="0 0 47.43 45.82"><defs><style>.cls-1{fill:#17202d;opacity:0.84;}.cls-2{fill:#fff0ca;}.cls-3{fill:#e2824e;}.cls-4{fill:#f49b73;}</style></defs><path class="cls-1" d="M445.89,298.42a3.81,3.81,0,0,1-.48-1.27c-.12-1,.62-2.21.37-3.2s-1.47-1.69-1.85-2.64,0-2.29-.48-3.18-1.86-1.24-2.47-2.06-.57-2.22-1.29-2.95-2.11-.73-2.92-1.36-1.12-2-2-2.52-2.22-.16-3.17-.56-1.6-1.63-2.59-1.91-2.18.43-3.21.28-1.95-1.16-3-1.17-2,1-3,1.1-2.21-.62-3.2-.37-1.69,1.47-2.63,1.85-2.3,0-3.19.48-1.24,1.86-2.06,2.47-2.22.57-2.95,1.29-.73,2.11-1.36,2.92-2,1.12-2.52,2-.16,2.22-.56,3.17-1.63,1.59-1.91,2.59.43,2.18.28,3.21a4.08,4.08,0,0,1-.56,1.35,1.91,1.91,0,0,0,.53,2.47,98.2,98.2,0,0,1,11.44,9.76,53.41,53.41,0,0,1-.22,7.64c-.14.72,6.48.06,6.48.06l0,0c1.24,1.33,2.49,2.24,3.84,2.27,1.53,0,2.86-.64,4.44-2.22l0,0s6.69.85,6.57.14a45.71,45.71,0,0,1,.17-7.65,147.94,147.94,0,0,1,12.9-9.41A2,2,0,0,0,445.89,298.42Z" transform="translate(-398.69 -274.29)"/><path class="cls-2" d="M445,299.43a2,2,0,0,0,.68-2.59,3.92,3.92,0,0,1-.49-1.27c-.12-1,.62-2.22.37-3.2s-1.47-1.69-1.85-2.64,0-2.29-.48-3.18-1.85-1.25-2.47-2.07-.57-2.21-1.29-3-2.11-.72-2.91-1.36-1.12-2-2-2.52-2.22-.15-3.17-.56-1.59-1.63-2.59-1.91-2.18.43-3.21.29-1.95-1.16-3-1.18-2,1-3,1.1-2.21-.61-3.2-.36-1.68,1.47-2.63,1.85-2.29,0-3.18.48-1.25,1.85-2.07,2.47-2.22.57-2.95,1.28-.72,2.11-1.36,2.92-2,1.12-2.52,2-.15,2.22-.56,3.17-1.63,1.59-1.91,2.59.43,2.17.28,3.2a4,4,0,0,1-.56,1.36,1.91,1.91,0,0,0,.53,2.47c2.86,2.1,10.35,7.84,14.09,12.8,2.5,3.4,4.78,6.85,7.43,6.9s4.51-1.79,8-6.54C431.72,308.39,441.49,301.77,445,299.43Z" transform="translate(-398.69 -274.29)"/><path class="cls-3" d="M399.49,295a36,36,0,0,1,9.56,11.75c-3-3.9-6.51-7.91-9.56-11.75Z" transform="translate(-398.69 -274.29)"/><path class="cls-3" d="M401.12,289.21c4.7,5.89,8.6,12.65,10.39,20a140,140,0,0,0-10.39-20Z" transform="translate(-398.69 -274.29)"/><path class="cls-3" d="M414.25,312.59c-3.4-9.34-6.53-19.27-10.05-28.56,4.51,9.05,7.56,18.78,10.05,28.56Z" transform="translate(-398.69 -274.29)"/><path class="cls-3" d="M416.33,315.33c-2.84-11.19-5.48-24.17-7.82-35.5a294.55,294.55,0,0,1,7.82,35.5Z" transform="translate(-398.69 -274.29)"/><path class="cls-3" d="M418.09,317.19a285.39,285.39,0,0,1-5.42-40.13c1.57,11.61,4,28.66,5.42,40.13Z" transform="translate(-398.69 -274.29)"/><path class="cls-3" d="M417.81,275.12q1.6,21.48,1.68,43-1.61-21.48-1.68-43Z" transform="translate(-398.69 -274.29)"/><path class="cls-3" d="M421.52,274.58c.43,14.63.85,29.36-.54,43.95.14-1.82.12-3.66.13-5.49,0-12.2,0-26.29.41-38.46Z" transform="translate(-398.69 -274.29)"/><path class="cls-3" d="M445.18,295.56c-2.48,2.78-5.88,6.65-8.23,9.49a24.34,24.34,0,0,1,8.23-9.49Z" transform="translate(-398.69 -274.29)"/><path class="cls-3" d="M443.7,289.73a106.49,106.49,0,0,0-9.95,17.78,42,42,0,0,1,9.95-17.78Z" transform="translate(-398.69 -274.29)"/><path class="cls-3" d="M431,309.88a118.21,118.21,0,0,1,9.79-25.4c-3.31,8.18-6.55,17.22-9.79,25.4Z" transform="translate(-398.69 -274.29)"/><path class="cls-3" d="M428,313.29a285.86,285.86,0,0,1,8.55-33.12c-2.51,10.75-5.41,22.53-8.55,33.12Z" transform="translate(-398.69 -274.29)"/><path class="cls-3" d="M425,316.69c2.59-12.95,5.32-26.38,7.42-39.39A214.46,214.46,0,0,1,425,316.69Z" transform="translate(-398.69 -274.29)"/><path class="cls-3" d="M427.35,275.24q-1.5,21.56-4.52,42.95,1.5-21.54,4.52-42.95Z" transform="translate(-398.69 -274.29)"/><path class="cls-4" d="M410.9,308.58a53.7,53.7,0,0,1-.22,7.65c-.13.71,6.48,0,6.48,0s-2.42-2.94-3.61-4.65A29.49,29.49,0,0,0,410.9,308.58Z" transform="translate(-398.69 -274.29)"/><path class="cls-4" d="M432.13,308.84a45.76,45.76,0,0,0-.17,7.65c.12.72-6.57-.14-6.57-.14s2.34-2.68,3.57-4.36A23.71,23.71,0,0,1,432.13,308.84Z" transform="translate(-398.69 -274.29)"/></svg>