<svg xmlns="http://www.w3.org/2000/svg" viewBox="0 0 184.19 127.97"><defs><style>.cls-1{isolation:isolate;}.cls-2{fill:#96e777;}.cls-3{fill:#73cb74;}.cls-4{fill:#de5456;}.cls-5{fill:#f5d733;}.cls-6{fill:#272425;mix-blend-mode:multiply;opacity:0.19;}.cls-7,.cls-8{fill:#e9a1aa;}.cls-7{opacity:0.69;}.cls-8{opacity:0.46;}.cls-9{fill:#393b3a;}.cls-10{fill:#fff;opacity:0.15;}</style></defs><g class="cls-1"><g id="Слой_1" data-name="Слой 1"><path class="cls-2" d="M423,244.51s.14-9.17,8.6-17.72a4.48,4.48,0,0,1,4.07,2.65S426,235,430.22,246C430.22,246,425.82,248.27,423,244.51Z" transform="translate(-331.91 -226.79)"/><path class="cls-3" d="M427.33,246s-17.45-16-45.92-9c0,0,17.09,18.74,34.45,21s56.86-17.51,56.86-17.51S455.63,228.09,427.33,246Z" transform="translate(-331.91 -226.79)"/><path class="cls-4" d="M382.92,320.15c1.22,2.17,2.37,4.11,3.39,5.74,6.09,9.65,14.78,18.66,25.87,22.25,24.95,8.08,49.11-22.24,59.51-40.87,12.13-21.72,10.22-54.43-19.49-59.4a26.34,26.34,0,0,0-6.26-.28c-8.18.5-16.15,4.36-23.24,8.12,0,0-25.86-18.1-46.24-4.16C357,264.92,372.42,301.47,382.92,320.15Z" transform="translate(-331.91 -226.79)"/><path class="cls-5" d="M451.31,277.79s-6.93,7.79-1.05,8.73S451.31,277.79,451.31,277.79Z" transform="translate(-331.91 -226.79)"/><path class="cls-5" d="M460.12,259.92s-3.76,9.72,2.07,8.54S460.12,259.92,460.12,259.92Z" transform="translate(-331.91 -226.79)"/><path class="cls-5" d="M436,262.69s-3.76,9.72,2.07,8.54S436,262.69,436,262.69Z" transform="translate(-331.91 -226.79)"/><path class="cls-5" d="M413.84,260.8s-8.6,5.89-3.13,8.22S413.84,260.8,413.84,260.8Z" transform="translate(-331.91 -226.79)"/><path class="cls-5" d="M390,256.63s-8.61,5.89-3.14,8.21S390,256.63,390,256.63Z" transform="translate(-331.91 -226.79)"/><path class="cls-5" d="M442.52,302.94s-9.07,5.14-3.81,7.92S442.52,302.94,442.52,302.94Z" transform="translate(-331.91 -226.79)"/><path class="cls-5" d="M447,319.89s-9.07,5.15-3.81,7.92S447,319.89,447,319.89Z" transform="translate(-331.91 -226.79)"/><path class="cls-5" d="M424.09,282.85s-6.6,8.08-.69,8.76S424.09,282.85,424.09,282.85Z" transform="translate(-331.91 -226.79)"/><path class="cls-5" d="M388.13,295s-3.94,9.65,1.91,8.58S388.13,295,388.13,295Z" transform="translate(-331.91 -226.79)"/><path class="cls-5" d="M462.18,295.14s-7.93,6.77-2.25,8.5S462.18,295.14,462.18,295.14Z" transform="translate(-331.91 -226.79)"/><path class="cls-5" d="M402.37,275.5s-6.17,8.4-.23,8.79S402.37,275.5,402.37,275.5Z" transform="translate(-331.91 -226.79)"/><path class="cls-5" d="M379.77,277.12s-6.18,8.41-.24,8.79S379.77,277.12,379.77,277.12Z" transform="translate(-331.91 -226.79)"/><path class="cls-5" d="M404.14,304s7.44,7.83,1.55,8.66S404.14,304,404.14,304Z" transform="translate(-331.91 -226.79)"/><path class="cls-5" d="M398.61,319.42s8.29,6.91,2.54,8.41S398.61,319.42,398.61,319.42Z" transform="translate(-331.91 -226.79)"/><path class="cls-5" d="M421.24,311s6.89,8.31,1,8.74S421.24,311,421.24,311Z" transform="translate(-331.91 -226.79)"/><path class="cls-5" d="M428,329s6.6,7.38.71,7.93S428,329,428,329Z" transform="translate(-331.91 -226.79)"/><path class="cls-5" d="M410.4,330.6s5.91,5.07.11,5.92S410.4,330.6,410.4,330.6Z" transform="translate(-331.91 -226.79)"/><path class="cls-6" d="M382.92,320.15c1.22,2.17,2.37,4.11,3.39,5.74,6.09,9.65,14.78,18.66,25.87,22.25,24.95,8.08,49.11-22.24,59.51-40.87,12.13-21.72,10.22-54.43-19.49-59.4-2.08-.36-5.2-.71-12.32.53,7.13,3.45,20.58,8.47,20.76,31.73.2,25.87-43.45,93.48-75.78,42.89C384.21,322,383.56,321,382.92,320.15Z" transform="translate(-331.91 -226.79)"/><path class="cls-7" d="M381.45,310.83c6.38,13.15,15.63,21.83,20.66,19.4s3.94-15.09-2.44-28.24S384,280.16,379,282.61,375.07,297.68,381.45,310.83Z" transform="translate(-331.91 -226.79)"/><path class="cls-8" d="M388,293.12c-.75,4.52,1.45,8.65,4.92,9.22s6.87-2.63,7.62-7.15-1.46-8.65-4.92-9.22S388.77,288.6,388,293.12Z" transform="translate(-331.91 -226.79)"/><path class="cls-9" d="M383.09,352.08a21.57,21.57,0,0,1,1.81-3.9,22.48,22.48,0,0,1,5.67-6.42,22.83,22.83,0,0,1,3.64-2.27,4.36,4.36,0,0,0,2.42-2.1c.45-1.3-.59-2.31-1.55-3s-2.13-1.12-3-.23a.42.42,0,0,0,0,.56,60.87,60.87,0,0,0-8.86,8.94,28.77,28.77,0,0,0-1.82,2.73c-.27.48-.53,1-.77,1.45s-.43,1.29-.88,1.57c-.65.41-1.84-.15-2.49-.33A4,4,0,0,0,375,349a.46.46,0,0,0-.21.77,44.39,44.39,0,0,0,3.38,3.48c.84.76,1.89,1.94,3.14,1.41A4,4,0,0,0,383.09,352.08Z" transform="translate(-331.91 -226.79)"/><path class="cls-9" d="M475.33,337.89a2.82,2.82,0,0,0-1.06.31l-1.68.65a2,2,0,0,1-1.47.26,5.23,5.23,0,0,1-1.37-.92,16.86,16.86,0,0,1-2.26-2.29c-1.36-1.63-2.54-3.4-4-4.95a22,22,0,0,0-5.62-4.3,3.56,3.56,0,0,0-1.42-.56,1.61,1.61,0,0,0-1.1.55,5.44,5.44,0,0,0-1.57,2.76c-.12.47.46.63.75.37,4,1.34,6.89,4.58,9.5,7.76,1.35,1.66,2.7,3.34,4.21,4.87a15.17,15.17,0,0,0,2.38,2.08,1.41,1.41,0,0,0,1.86-.35,23.37,23.37,0,0,0,2.21-2.35,7.08,7.08,0,0,0,1.6-2.39A1.16,1.16,0,0,0,475.33,337.89Z" transform="translate(-331.91 -226.79)"/><path class="cls-9" d="M369.09,289.34a.54.54,0,0,0-.71.6h0a40,40,0,0,1-11.75,5.82,48.52,48.52,0,0,1-13.24,2.39,17.26,17.26,0,0,1-7.74-1.46.51.51,0,0,0-.63.75,6.48,6.48,0,0,0,3,2.2c-1.18.4-5.12,1-5.62,1.11s-.65,1,0,1l4,.13-3.1,2a.51.51,0,0,0,.34.92,11.29,11.29,0,0,0,3.41-.73l-1.53,2.76c-.25.45.36.9.75.63a11.64,11.64,0,0,0,2.87-2.86,6.67,6.67,0,0,1,0,1.67c-.07.54.77.86,1,.3a6.44,6.44,0,0,1,2.22-3.28,10.11,10.11,0,0,1,3.6-1.58c1.35-.34,2.73-.52,4.09-.76s2.68-.53,4-.86a93.5,93.5,0,0,0,15.6-5.5c1.05-.46,2.57-1.11,2.38-2.53S370.22,289.75,369.09,289.34Z" transform="translate(-331.91 -226.79)"/><path class="cls-9" d="M476.28,292.13c-.21,1.41,1.3,2.08,2.34,2.56a94.43,94.43,0,0,0,15.52,5.73c1.32.34,2.65.65,4,.91s2.74.46,4.07.82a10,10,0,0,1,3.58,1.64A6.29,6.29,0,0,1,508,307.1c.19.56,1,.26,1-.28a6.74,6.74,0,0,1,0-1.68,11.47,11.47,0,0,0,2.83,2.9c.39.28,1-.15.76-.61L511,304.64a11.24,11.24,0,0,0,3.4.79.51.51,0,0,0,.35-.92l-3.07-2,4-.07c.61,0,.49-.9,0-1s-4.43-.77-5.6-1.19a6.51,6.51,0,0,0,3-2.16.51.51,0,0,0-.61-.76,17.22,17.22,0,0,1-7.77,1.35,48,48,0,0,1-13.2-2.59,39.55,39.55,0,0,1-11.66-6l-.85-.36c.07-.33-.89-.85-1.32-.7C476.52,289.41,476.48,290.82,476.28,292.13Z" transform="translate(-331.91 -226.79)"/><path class="cls-9" d="M429.64,304.18c-.23,2.4-.53,4.93-2,6.93a6.29,6.29,0,0,1-5.92,2.29,9.43,9.43,0,0,1-8.32-9c0-1.3-2.07-1.38-2-.07a11.5,11.5,0,0,0,10.27,11.13,8.31,8.31,0,0,0,7.36-2.79c1.93-2.36,2.36-5.44,2.64-8.38C431.78,303,429.76,302.89,429.64,304.18Z" transform="translate(-331.91 -226.79)"/><path class="cls-9" d="M462.87,276.36a1.12,1.12,0,0,0-.86-1.18,29.78,29.78,0,0,0-7.31-.93,179.63,179.63,0,0,0-18.84-.67c-1.57-.15-3.15-.26-4.73-.26-5.3,0-10.57.09-15.87-.14s-10.66-.59-16-.78a132.77,132.77,0,0,0-17.95.41,1,1,0,0,0-.65.38,1.39,1.39,0,0,0-.36.54c-.73,1.92-.19,4,.24,6a34.52,34.52,0,0,0,1.94,6,21.52,21.52,0,0,0,6.95,9,16.87,16.87,0,0,0,15.92,2l.43-.11a12.22,12.22,0,0,0,4.64-2.14,29,29,0,0,0,6.91-7.5,24.41,24.41,0,0,0,1.74-4.46c.62-1.72,2.69-1.35,4.06-.74l.15.05c1.17,7.73,6.72,14.62,14.49,16.44a18.06,18.06,0,0,0,12-1.22,23.59,23.59,0,0,0,8.83-7.67A24.8,24.8,0,0,0,463,277.09,1.12,1.12,0,0,0,462.87,276.36Z" transform="translate(-331.91 -226.79)"/><path class="cls-10" d="M388.83,277a3.13,3.13,0,0,0-2.89-1.58,2.28,2.28,0,0,0-1.22.69h0a1.57,1.57,0,0,0-1.05.83,1.3,1.3,0,0,0-.08.91.8.8,0,0,0,.61.59,2.71,2.71,0,0,0,.41.09,6.83,6.83,0,0,0,3.83-.39.81.81,0,0,0,.49-.47A.75.75,0,0,0,388.83,277Z" transform="translate(-331.91 -226.79)"/><path class="cls-10" d="M411.73,277c-.69-1-2.05-.94-3.15-1q-2.43-.19-4.86-.3c-3.19-.13-6.39-.12-9.58,0a.71.71,0,0,0-.66.49,1.19,1.19,0,0,0-.41.45.77.77,0,0,0,.32,1l.71.25a.67.67,0,0,0,.56.62l2.25.25a23.32,23.32,0,0,0,5.58.59l1,.1c2.75.25,5.64.21,8-1.4A.78.78,0,0,0,411.73,277Z" transform="translate(-331.91 -226.79)"/><path class="cls-10" d="M454.38,275.7a200.21,200.21,0,0,0-22.85,0,7.75,7.75,0,0,0-4.4.61.77.77,0,0,0-.24,1.05c1.09,1.92,3.57,1.62,5.43,1.52,2.95-.17,5.92-.24,8.88-.23s5.8.1,8.7.28c2.1.13,5,.24,5.26-2.52C455.2,276,454.75,275.72,454.38,275.7Z" transform="translate(-331.91 -226.79)"/><path class="cls-10" d="M461.32,277.47a1.38,1.38,0,0,0-.31-.33,1.7,1.7,0,0,0-.45-.26.17.17,0,0,0,0-.07.73.73,0,0,0-.37-.45.74.74,0,0,0-.58-.06,1.67,1.67,0,0,0-.46.24,3,3,0,0,0-.27.23,3.06,3.06,0,0,0-.21.29,1.91,1.91,0,0,0-.3,1,1.54,1.54,0,0,0,.77,1.39,1.42,1.42,0,0,0,.42.17,1.76,1.76,0,0,0,.91,0,1.5,1.5,0,0,0,.75-.48,1.39,1.39,0,0,0,.32-1A1.35,1.35,0,0,0,461.32,277.47Z" transform="translate(-331.91 -226.79)"/><path class="cls-7" d="M396,252a3.53,3.53,0,0,0-1.25-.37,4.08,4.08,0,0,0-1-.47,8,8,0,0,0-3.38-.19,27.8,27.8,0,0,0-4.26.79c-2.49.72-5,2.34-5.7,5a4.28,4.28,0,0,0,3.54,5.37,7.89,7.89,0,0,0,3.45-.56,6.41,6.41,0,0,0,1.64-.08,11.18,11.18,0,0,0,4-1.71,7.74,7.74,0,0,0,2.9-2.92,4.37,4.37,0,0,0,.3-3.23c.07-.21.15-.42.2-.64A.91.91,0,0,0,396,252Zm-12.14,2.86a5.63,5.63,0,0,1,.72-.48,4.56,4.56,0,0,0-1.57,2l-.5.17A4.72,4.72,0,0,1,383.86,254.83Zm-1.17,4.7a2.83,2.83,0,0,1-.2-.28,3.7,3.7,0,0,0,.77.45h0a.82.82,0,0,0,.72.41l.2.2A2.15,2.15,0,0,1,382.69,259.53Z" transform="translate(-331.91 -226.79)"/><path class="cls-2" d="M461.89,241a60,60,0,0,0-9.75.73.43.43,0,0,0-.63.09,62.15,62.15,0,0,0-11.23,3,.71.71,0,0,0,.15-.15,13.12,13.12,0,0,1,4.59-4c.52-.28,0-1.05-.49-.77a14.15,14.15,0,0,0-4.91,4.38.46.46,0,0,0,.19.62.48.48,0,0,0,.23.05c-1.33.49-2.64,1-3.93,1.61a60.16,60.16,0,0,0-6.59,3.5.46.46,0,0,0,.49.78,60,60,0,0,1,21.79-8.08,7.25,7.25,0,0,0,4.82,2.38.47.47,0,0,0,.45-.47.48.48,0,0,0-.47-.45,6.24,6.24,0,0,1-3.69-1.62c.56-.08,1.12-.17,1.68-.24a59.79,59.79,0,0,1,7.33-.38C462.51,241.94,462.48,241,461.89,241Z" transform="translate(-331.91 -226.79)"/><path class="cls-2" d="M419.61,252.11c-1.65-1.32-3.37-2.55-5.14-3.71a.43.43,0,0,0,0-.3,75.2,75.2,0,0,0-2.22-7.51c-.2-.56-1.07-.29-.88.27.8,2.26,1.48,4.57,2.06,6.91a67.64,67.64,0,0,0-21.79-8.94c-.57-.12-.78.77-.21.89A67.13,67.13,0,0,1,402.13,243a31,31,0,0,1-5.23.92c-.59.05-.56,1,0,.91a32.26,32.26,0,0,0,6.47-1.22.26.26,0,0,0,.09-.05,67.23,67.23,0,0,1,10,5.25,68.16,68.16,0,0,1,5.55,4C419.45,253.15,420.08,252.48,419.61,252.11Z" transform="translate(-331.91 -226.79)"/></g></g></svg>